<svg width="134" height="139" viewBox="0 0 134 139" fill="none" xmlns="http://www.w3.org/2000/svg">
<path d="M102.072 49.5322C103.672 50.035 104.984 51.7498 105.121 54.5254C105.988 61.231 102.187 68.761 95.4747 70.7722C95.4747 70.7722 94.9246 70.969 94.6363 70.9882L94.6279 70.9858C86.5125 95.6266 54.3295 95.767 46.0699 71.1766H46.0675C45.9522 71.1886 45.1894 70.975 45.1894 70.975C38.2644 69.001 34.1707 61.4638 35.0872 54.5242C35.2265 51.685 36.5983 49.9558 38.2464 49.4986C40.1071 48.9826 42.3257 50.089 43.5305 53.053C44.8423 31.1422 56.243 32.467 68.636 23.8462C68.5819 26.707 66.1602 31.1734 64.4305 33.9646C72.7657 33.943 81.2932 31.6642 85.8866 24.4306C94.9054 31.7134 96.7733 45.763 96.6748 53.053C97.9048 50.0302 100.187 48.9406 102.071 49.5322H102.072Z" fill="white"/>
<path d="M104.419 32.4598C105.2 34.597 105.668 37.0546 105.321 39.2386C104.778 42.6586 102.419 46.0858 102.072 49.5334C100.188 48.9418 97.906 50.0314 96.6759 53.0542C96.7756 45.7642 94.9066 31.7146 85.8878 24.4318C81.2944 31.6654 72.7669 33.9442 64.4317 33.9658C66.1614 31.1746 68.5831 26.7082 68.6372 23.8474C56.2442 32.4682 44.8435 31.1434 43.5317 53.0542C42.3269 50.0902 40.1095 48.9838 38.2476 49.4998C37.9016 46.0582 35.7695 43.6138 35.1568 40.7038C34.3112 36.6898 36.3797 30.3754 38.5034 27.1726C36.5527 27.2734 35.2493 26.6242 34.5166 25.765C47.181 20.0602 38.4266 9.74379 60.4232 6.13419C59.2653 5.56179 56.0808 4.70139 55.9259 3.61659C62.3836 3.57939 68.7801 0.851792 74.0823 1.47699C79.3856 2.10219 86.5617 4.91259 88.6266 11.059C90.8284 10.6918 93.3438 11.1538 94.6087 11.9878C101.476 16.5226 99.4448 26.851 107.267 30.8734C107.163 31.1782 106.125 32.3734 104.418 32.4598H104.419Z" fill="#333333"/>
<path d="M91.4947 98.527C91.3758 99.8638 91.2568 101.192 91.1403 102.516C90.9529 102.743 90.6502 102.962 90.6502 102.962C81.6051 109.479 65.6505 112.665 51.2756 103.802C51.2756 103.802 50.3783 103.316 50.1572 103.1C50.0239 101.585 49.887 100.062 49.7512 98.5294C49.8761 98.4682 49.9963 98.4082 50.114 98.3494C53.4798 96.6226 55.4594 94.909 55.6456 92.071C55.8498 89.3338 55.9099 86.6494 55.6372 84.7246C64.5874 91.3318 76.9167 91.1398 85.6844 84.1846L85.6075 84.7246C85.3361 86.6494 85.3949 89.3338 85.6003 92.071C85.7865 94.909 87.7649 96.6226 91.1319 98.3494C91.2496 98.4082 91.371 98.4682 91.4935 98.5282L91.4947 98.527Z" fill="white"/>
<path d="M132.619 138.999H87.9429C88.9603 127.375 89.9357 116.13 90.9663 104.481C91.024 103.827 91.0829 103.171 91.1405 102.515C91.1801 102.06 91.221 101.604 91.2618 101.148C91.2955 100.765 91.3291 100.381 91.3639 99.9971C91.3735 99.8891 91.3832 99.7799 91.3928 99.6719C91.4264 99.2915 91.4612 98.9099 91.4949 98.5283C91.7603 98.6579 92.0402 98.7935 92.3321 98.9327C92.4907 99.0083 92.654 99.0851 92.8198 99.1631C100.416 102.739 115.392 108.8 118.594 110.288C128.928 115.085 130.906 117.667 132.11 130.303C132.292 133.166 132.461 136.069 132.619 138.999Z" fill="#999999"/>
<path d="M53.3036 138.999H8.62793C8.73003 137.115 8.83574 135.242 8.94745 133.385C8.97388 132.923 9.00151 132.461 9.03034 132.001C9.06037 131.519 9.0892 131.037 9.12043 130.557C9.12523 130.472 9.13124 130.388 9.13604 130.303C10.2472 118.65 12.0154 115.548 20.3878 111.374C21.0942 111.021 21.8473 110.661 22.6509 110.288C22.9116 110.167 23.2491 110.016 23.6551 109.838C24.2437 109.58 24.9765 109.266 25.8197 108.908C25.8462 108.896 25.8726 108.885 25.9002 108.875C26.4504 108.639 27.0486 108.387 27.6828 108.12C33.6541 105.603 42.9527 101.738 48.4254 99.1631C48.5912 99.0851 48.7546 99.0083 48.9131 98.9327C49.205 98.7935 49.4849 98.6579 49.7504 98.5283C49.784 98.9099 49.8176 99.2915 49.8525 99.6719C49.8621 99.7787 49.8705 99.8855 49.8813 99.9923C49.9053 100.269 49.9306 100.545 49.9546 100.82L50.0555 101.961L50.0627 102.037L50.1564 103.099C50.208 103.683 50.2597 104.268 50.3125 104.85C51.3312 116.366 52.2969 127.496 53.3024 138.999H53.3036Z" fill="#999999"/>
<path d="M91.1406 102.515C91.0829 103.171 91.0241 103.827 90.9664 104.481C89.9357 116.13 88.9604 127.375 87.9429 138.999H53.3035C52.298 127.496 51.3323 116.365 50.3136 104.85C50.2608 104.268 50.2091 103.683 50.1575 103.099C50.3785 103.315 51.2758 103.801 51.2758 103.801C51.3911 103.872 51.5052 103.941 51.6206 104.011C65.3925 112.304 80.5482 109.639 89.6595 103.644C89.9982 103.421 90.3285 103.193 90.6505 102.961C90.6505 102.961 90.9544 102.743 91.1406 102.515Z" fill="white"/>
<path d="M23.9111 138.999H21.0414C20.2822 136.269 19.517 133.541 18.6954 130.83C18.544 130.331 18.3903 129.831 18.2353 129.333C18.0624 128.781 17.887 128.229 17.708 127.679C17.2876 126.381 16.8491 125.09 16.3867 123.807C16.1332 123.103 16.6737 122.295 17.3512 122.109C18.1104 121.902 18.7987 122.372 19.051 123.073C19.0666 123.115 19.081 123.157 19.0954 123.199C19.2167 123.534 19.3344 123.869 19.451 124.205C19.5795 124.571 19.7044 124.937 19.8281 125.303C19.8594 125.394 19.8894 125.481 19.9182 125.57C20.1597 126.288 20.3939 127.007 20.6233 127.728C21.6756 131.029 22.6186 134.363 23.5483 137.701C23.6696 138.134 23.7898 138.567 23.9111 138.999Z" fill="#333333"/>
<path d="M54.3065 85.0906C54.4723 86.3194 54.4591 87.853 54.4194 89.1898C54.3786 90.5686 54.4218 91.9774 54.0447 93.1222C54.035 93.151 53.9149 93.4726 53.9678 93.3466C54.0206 93.2206 53.8789 93.5302 53.8645 93.5578C53.748 93.7846 53.6146 94.0006 53.4693 94.2094C53.3467 94.3858 53.3131 94.4194 53.0969 94.6498C52.9251 94.8322 52.7437 95.0062 52.5563 95.173C51.6939 95.9362 50.5167 96.589 49.4176 97.1566C47.838 97.9726 49.2338 100.355 50.8122 99.5398C53.2446 98.2834 55.6999 96.6778 56.6645 93.9874C57.187 92.5318 57.1318 90.8266 57.1798 89.3014C57.2327 87.6442 57.193 86.0002 56.9708 84.3562C56.8711 83.617 55.921 83.2138 55.2711 83.3926C54.4723 83.6122 54.2068 84.349 54.3065 85.0906Z" fill="#333333"/>
<path d="M48.3701 98.527C48.3269 98.035 48.5083 97.681 48.7978 97.4626C48.799 97.4626 48.8002 97.4614 48.8014 97.4602C48.9167 97.3738 49.0512 97.309 49.1942 97.267C49.217 97.2598 49.241 97.2526 49.265 97.2466C49.8596 97.1026 50.5924 97.3246 50.9395 97.909C51.0428 98.083 51.1113 98.2882 51.1329 98.527C51.1545 98.7718 51.1762 99.0178 51.1978 99.2626C51.2002 99.2866 51.2026 99.3094 51.205 99.3334C51.2939 100.329 51.3828 101.327 51.4705 102.323C51.5209 102.885 51.5702 103.448 51.6206 104.011C51.6326 104.148 51.6446 104.283 51.6567 104.42C51.6939 104.844 51.7311 105.266 51.7684 105.69C52.7498 116.792 53.7143 127.896 54.6861 138.999H51.9233C50.8038 126.206 49.6927 113.412 48.5563 100.62C48.5131 100.134 48.4698 99.649 48.4266 99.163C48.4074 98.9506 48.3893 98.7394 48.3701 98.527Z" fill="#333333"/>
<path d="M124.86 123.807C123.064 128.793 121.626 133.895 120.205 138.999H117.337C118.824 133.65 120.314 128.299 122.196 123.073C122.449 122.37 123.129 121.899 123.896 122.109C124.575 122.297 125.112 123.105 124.86 123.807Z" fill="#333333"/>
<path d="M91.8289 97.1566C90.6758 96.5614 89.4734 95.8918 88.5761 95.0698C87.7724 94.333 87.2968 93.6418 87.0685 92.647C86.9844 92.2822 87.0073 92.3938 86.9808 92.0698C86.9424 91.6042 86.9148 91.1374 86.8895 90.6706C86.8415 89.8126 86.8103 88.9522 86.8067 88.093C86.8007 86.8846 86.8571 85.6654 87.0169 84.5506C87.1214 83.8138 86.8355 83.0686 86.0523 82.8526C85.4048 82.675 84.4583 83.0734 84.3526 83.8162C84.1448 85.2766 84.0331 86.7238 84.0451 88.1998C84.0583 89.929 84.0042 91.8334 84.4391 93.5194C85.1982 96.4618 87.8926 98.227 90.4355 99.5398C92.0127 100.355 93.4122 97.9738 91.8302 97.1566H91.8289Z" fill="#333333"/>
<path d="M86.5603 138.999C87.5417 127.799 88.5147 116.595 89.5045 105.395C89.5561 104.811 89.6078 104.227 89.6594 103.644C89.7111 103.053 89.7639 102.462 89.8168 101.871C89.8168 101.868 89.8168 101.863 89.818 101.859C89.8925 101.017 89.967 100.176 90.0414 99.3335C90.0438 99.3095 90.0462 99.2867 90.0486 99.2627C90.0703 99.0179 90.0919 98.7719 90.1135 98.5271C90.1351 98.2883 90.2036 98.0831 90.3069 97.9091C90.654 97.3223 91.3892 97.1015 91.9862 97.2491C92.0114 97.2551 92.0367 97.2623 92.0607 97.2695C92.1952 97.3103 92.3201 97.3703 92.4306 97.4507C92.7298 97.6667 92.9207 98.0255 92.8763 98.5271C92.8571 98.7395 92.8391 98.9507 92.8198 99.1631C92.7754 99.6539 92.7322 100.145 92.6889 100.635C92.5844 101.808 92.4799 102.981 92.3766 104.154C91.3496 115.769 90.3405 127.385 89.3243 138.999H86.5603Z" fill="#333333"/>
<path d="M49.8151 104.546C55.3287 107.966 61.4537 110.124 67.9499 110.547C73.598 110.917 79.3854 109.981 84.6179 107.82C86.0089 107.245 87.3711 106.605 88.6793 105.86C89.8408 105.199 91.2078 104.483 92.1171 103.489C92.6204 102.939 92.6613 102.081 92.1171 101.538C91.6066 101.028 90.6697 100.986 90.164 101.538C90.0462 101.666 89.9237 101.777 89.7928 101.892C90.1543 101.573 89.7916 101.883 89.7147 101.939C89.5117 102.081 89.3075 102.221 89.1021 102.359C88.5964 102.696 88.0798 103.017 87.5537 103.323C86.5026 103.935 85.4168 104.485 84.3056 104.977C82.0882 105.957 79.5128 106.734 77.0383 107.221C71.5835 108.295 65.8297 108.026 60.4675 106.435C57.1822 105.461 54.1166 103.967 51.2097 102.163C49.695 101.223 48.3064 103.61 49.8151 104.546Z" fill="#333333"/>
<path d="M57.5929 45.6202C57.8584 45.5674 58.1251 45.5194 58.3905 45.4666C58.7557 45.3934 58.202 45.4618 58.4806 45.451C58.5839 45.4474 58.686 45.433 58.7893 45.4282C59.4692 45.397 60.1551 45.475 60.8302 45.5398C61.5738 45.6106 62.2116 44.8546 62.2116 44.1598C62.2116 43.3546 61.5762 42.8506 60.8302 42.7798C59.4452 42.6478 58.2236 42.6874 56.859 42.9574C56.1262 43.1026 55.707 43.9738 55.8944 44.6554C56.1046 45.4186 56.859 45.7642 57.5941 45.619L57.5929 45.6202Z" fill="#333333"/>
<path d="M83.4227 42.9586C82.0581 42.6886 80.8377 42.6478 79.4515 42.781C78.7091 42.8518 78.0701 43.3642 78.0701 44.161C78.0701 44.8522 78.7043 45.6118 79.4515 45.541C80.1266 45.4762 80.8124 45.3994 81.4923 45.4294C81.5956 45.4342 81.6989 45.4474 81.801 45.4522C82.1098 45.4642 81.5512 45.397 81.8383 45.4582C82.1206 45.5182 82.4053 45.565 82.6887 45.6214C83.4203 45.7666 84.1807 45.4126 84.3885 44.6578C84.5747 43.9786 84.159 43.1062 83.4239 42.9598L83.4227 42.9586Z" fill="#333333"/>
<path d="M106.261 52.7278C105.725 50.3794 104.027 48.3154 101.537 48.0298C98.5326 47.6854 96.3896 50.179 95.3434 52.6846C95.0563 53.3734 95.6533 54.2026 96.3079 54.3826C97.1032 54.601 97.7194 54.109 98.0077 53.419C98.1626 53.047 98.4521 52.5418 98.7308 52.1518C98.7512 52.1254 98.8317 52.0186 98.8521 51.9946C98.9254 51.9094 98.9999 51.8254 99.0768 51.7438C99.1668 51.6502 99.2593 51.559 99.3554 51.4714C99.3843 51.445 99.514 51.3406 99.5404 51.3154C99.675 51.2194 99.8143 51.1294 99.9596 51.049C100.02 51.0166 100.08 50.9854 100.141 50.9554C100.154 50.953 100.31 50.887 100.349 50.8762C100.492 50.8378 100.635 50.8018 100.779 50.7706C100.664 50.8042 101.121 50.7586 101.229 50.7586C101.264 50.7586 101.325 50.7694 101.373 50.7778C101.348 50.7718 101.315 50.7646 101.271 50.7538C101.339 50.7694 101.407 50.7754 101.473 50.7958C101.556 50.821 101.858 50.9278 101.834 50.905C101.989 50.9854 102.133 51.0802 102.288 51.1618C102.296 51.1666 102.307 51.1726 102.318 51.181C102.416 51.2638 102.512 51.3502 102.602 51.4414C102.656 51.4966 102.707 51.553 102.76 51.6094C102.783 51.6346 102.799 51.6514 102.813 51.6646C102.82 51.6754 102.828 51.6862 102.838 51.7006C102.958 51.871 103.067 52.0462 103.166 52.2298C103.215 52.3222 103.262 52.4158 103.306 52.5106C103.318 52.5406 103.347 52.6102 103.354 52.6282C103.461 52.9234 103.548 53.2246 103.615 53.5318C103.711 53.9746 103.74 54.4366 103.794 54.997C103.85 55.5826 103.871 56.1718 103.859 56.7598C103.834 57.9598 103.704 58.8886 103.402 60.067C102.846 62.239 101.814 64.3246 100.354 65.977C99.5056 66.937 98.6383 67.687 97.5896 68.323C97.311 68.4922 96.9902 68.6686 96.6839 68.821C96.8377 68.1946 96.9758 67.5646 97.0971 66.9322C97.2389 66.2014 96.8917 65.443 96.1326 65.2342C95.4563 65.0482 94.5758 65.4622 94.4328 66.1978C94.159 67.6186 93.8082 69.0238 93.365 70.4014C92.9241 71.773 92.5109 72.8158 91.9619 73.9702C91.4118 75.1234 90.7884 76.2418 90.0892 77.3122C89.7529 77.8282 89.3986 78.3322 89.0274 78.8242C88.9949 78.8674 88.9625 78.9106 88.9289 78.9526C88.9229 78.9598 88.9181 78.9658 88.9097 78.9766C88.822 79.087 88.7343 79.1974 88.6454 79.3066C88.4436 79.555 88.237 79.7986 88.0268 80.0398C87.2532 80.9218 86.4207 81.751 85.5342 82.519C85.3312 82.6942 85.1258 82.867 84.9168 83.0362C84.8135 83.1202 84.7078 83.203 84.6033 83.2858C84.5997 83.2882 84.5973 83.2906 84.5949 83.293C84.5252 83.3458 84.4555 83.3986 84.3847 83.4514C83.9306 83.7898 83.4657 84.1126 82.9889 84.4186C82.0507 85.0222 81.0717 85.5622 80.0603 86.0338C79.8597 86.1274 79.6567 86.2174 79.4537 86.3062C79.4297 86.3158 79.2891 86.3758 79.2266 86.401C79.0741 86.4634 78.9203 86.5234 78.7654 86.5822C78.2537 86.7778 77.7347 86.9566 77.2098 87.1174C76.1852 87.4318 75.1401 87.6802 74.083 87.859C73.9581 87.8806 73.8332 87.901 73.7071 87.9202C73.659 87.9274 73.4404 87.9574 73.4032 87.9634C73.1785 87.991 72.9539 88.0174 72.7281 88.0402C72.1887 88.093 71.647 88.129 71.1052 88.1458C70.0217 88.1806 68.9358 88.1458 67.8571 88.0378C67.731 88.0258 67.6049 88.0126 67.48 87.9982C67.4403 87.9934 67.2806 87.973 67.2073 87.9646C66.9718 87.931 66.7376 87.8962 66.5034 87.8566C65.9664 87.7654 65.4331 87.6562 64.9045 87.5302C63.8403 87.2758 62.7928 86.9506 61.7718 86.557C61.6517 86.5114 61.5327 86.4634 61.4138 86.4154C61.3586 86.3938 61.3033 86.3698 61.248 86.3482C60.9898 86.2366 60.7339 86.1226 60.4793 86.0026C59.976 85.7662 59.4823 85.5118 58.9958 85.2418C58.0084 84.6934 57.0702 84.0718 56.1633 83.401C56.1249 83.3734 56.1008 83.3554 56.0852 83.3434C56.0756 83.335 56.06 83.323 56.0348 83.3038C55.9303 83.221 55.8246 83.1382 55.7212 83.0542C55.4822 82.861 55.248 82.663 55.0161 82.4614C54.5777 82.0786 54.1525 81.6802 53.7404 81.2674C53.3368 80.8618 52.9452 80.443 52.5693 80.0122C52.3723 79.7854 52.1789 79.5562 51.9891 79.3234C51.9002 79.2142 51.8125 79.1038 51.7248 78.9934C51.7176 78.9838 51.7032 78.9658 51.6888 78.9478C51.6491 78.8962 51.6095 78.8434 51.5698 78.7906C50.8191 77.791 50.1392 76.7386 49.5314 75.6478C49.2155 75.0802 48.9188 74.503 48.6413 73.9162C48.4995 73.6162 48.3638 73.3138 48.2305 73.0102C48.2136 72.973 48.198 72.9346 48.1812 72.8962C48.1692 72.8662 48.1416 72.8002 48.1344 72.7834C48.0659 72.6166 47.9986 72.4486 47.9326 72.2806C47.4208 70.9726 46.998 69.6298 46.6545 68.2678C46.4743 67.5502 46.3169 66.8278 46.1776 66.1018C46.0382 65.3698 45.1565 64.9522 44.4779 65.1382C43.7103 65.3494 43.3727 66.1006 43.5133 66.8362C43.6574 67.5922 43.8256 68.3434 44.0166 69.0874C43.8953 69.0322 43.7715 68.9722 43.6418 68.9062C42.5859 68.3734 41.6898 67.7542 40.8598 66.9862C39.1709 65.4226 37.8904 63.4138 37.1576 61.2754C36.3588 58.9426 36.2555 56.8222 36.4742 54.355C36.5594 53.3974 36.7624 52.5958 37.2958 51.8038C37.3198 51.769 37.5673 51.4654 37.3679 51.7006C37.4171 51.6418 37.4676 51.5806 37.5216 51.5266C37.6033 51.4474 37.6814 51.3658 37.7643 51.2878C37.7667 51.2854 37.8363 51.2302 37.8856 51.1882C37.936 51.1534 38.0033 51.1066 38.0057 51.1054C38.097 51.0514 38.1883 50.9986 38.282 50.947C38.288 50.9434 38.3457 50.9194 38.3961 50.8966C38.4706 50.8738 38.6087 50.8282 38.6291 50.8222C38.7288 50.7958 38.8297 50.779 38.9306 50.755C38.8886 50.7646 38.8562 50.7718 38.8309 50.7778C38.8766 50.7694 38.9366 50.7586 38.9715 50.7586C39.0892 50.7586 39.5853 50.809 39.4015 50.7658C39.6165 50.8102 39.8231 50.8666 40.0322 50.9398C40.0346 50.941 40.0358 50.9422 40.0382 50.9434C40.1715 51.0202 40.3108 51.085 40.443 51.1666C40.5102 51.2086 40.5763 51.253 40.6412 51.2986C40.6544 51.3082 40.6652 51.3154 40.6748 51.3238C40.7325 51.3718 40.7889 51.4198 40.8454 51.4702C41.0412 51.6478 41.225 51.841 41.3931 52.0462C41.416 52.075 41.434 52.0954 41.4484 52.1122C41.4616 52.1338 41.4832 52.1674 41.5193 52.219C41.6033 52.3426 41.6838 52.4662 41.7607 52.5946C41.9133 52.8478 42.1079 53.2114 42.1931 53.4178C42.4802 54.1054 43.1085 54.5974 43.8929 54.3814C44.5427 54.2026 45.1469 53.3758 44.8574 52.6834C43.8676 50.3122 42.0442 48.1114 39.2826 47.9974C36.7913 47.8942 34.9006 49.8142 34.139 52.0282C33.6957 53.317 33.6057 54.8026 33.5768 56.1574C33.5456 57.6154 33.7198 59.0926 34.0585 60.511C34.7324 63.3346 36.1354 65.995 38.103 68.1322C39.1853 69.3082 40.4766 70.333 41.882 71.0986C42.8274 71.6134 43.9313 72.139 45.04 72.3994C46.3133 75.883 48.1548 79.147 50.6113 81.9646C53.7849 85.6042 57.9723 88.327 62.585 89.7598C67.0259 91.1398 71.8344 91.2766 76.3569 90.2098C81.0285 89.1082 85.3589 86.665 88.7583 83.287C91.8923 80.173 94.1902 76.3162 95.6713 72.1702C97.9873 71.593 100.189 70.1122 101.81 68.4586C103.78 66.4474 105.189 63.8974 105.953 61.195C106.713 58.5034 106.879 55.4662 106.254 52.7266L106.261 52.7278ZM102.34 51.2014C102.384 51.2338 102.419 51.2638 102.34 51.2014V51.2014ZM39.9961 50.917C39.9048 50.8642 39.9445 50.8894 39.9961 50.917V50.917Z" fill="#333333"/>
<path d="M101.374 50.7803C101.44 50.7935 101.477 50.8031 101.374 50.7803V50.7803Z" fill="#333333"/>
<path d="M38.8373 50.779C38.7377 50.8006 38.7737 50.791 38.8373 50.779V50.779Z" fill="#333333"/>
<path d="M107.966 29.6806C106.3 28.8082 105.059 27.6166 104.113 26.1058C103.084 24.4642 102.563 23.0374 101.915 21.2542C100.632 17.7298 99.3511 13.9678 96.3156 11.5378C94.3637 9.97544 91.9576 9.44024 89.5216 9.59144C87.7474 5.68544 84.1461 3.09344 80.1701 1.56104C78.2145 0.807439 76.1652 0.337039 74.0859 0.0970386C71.3592 -0.217361 68.5783 0.289039 65.9068 0.803839C62.6011 1.44104 59.3122 2.20064 55.9295 2.23544C54.9878 2.24504 54.416 3.10544 54.5974 3.98264C54.7463 4.70264 55.2905 5.23184 55.9103 5.63384C51.7073 6.66104 47.5559 8.36384 44.7426 11.6602C43.5606 13.045 42.6717 14.6026 41.8453 16.2166C41.4669 16.9546 41.0945 17.6962 40.6861 18.4186C40.4747 18.793 40.2537 19.1614 40.0182 19.5214C39.9065 19.693 39.7924 19.8622 39.6747 20.029C39.6062 20.1262 39.5353 20.221 39.4669 20.317C39.4464 20.3446 39.4332 20.3638 39.4212 20.3806C39.4176 20.3854 39.414 20.389 39.4092 20.395C38.7473 21.1966 38.0374 21.925 37.2314 22.5802C37.2038 22.5982 36.9936 22.7614 36.9515 22.7914C36.8314 22.8778 36.7101 22.963 36.5876 23.0458C36.3161 23.2306 36.0374 23.4058 35.7551 23.5738C35.1305 23.9446 34.483 24.2722 33.8224 24.5722C32.9575 24.9646 33.0139 26.137 33.5425 26.7394C34.286 27.5866 35.2182 28.0882 36.2332 28.3414C35.1461 30.4666 34.3941 32.8138 33.9581 35.1166C33.6674 36.6502 33.4788 38.2474 33.6398 39.8074C33.8103 41.467 34.3833 42.9562 35.08 44.4622C35.8308 46.0858 36.6776 47.7238 36.8722 49.5298C36.9527 50.2702 37.45 50.9098 38.2536 50.9098C38.9383 50.9098 39.7155 50.275 39.635 49.5298C39.4404 47.7286 38.8687 46.1074 38.1191 44.4682C37.4993 43.1134 36.8014 41.8066 36.4915 40.3378C36.4146 39.9718 36.4158 39.9694 36.3882 39.6526C36.3581 39.3046 36.3461 38.9554 36.3473 38.6062C36.3497 37.9222 36.4038 37.1938 36.4999 36.5626C36.7401 34.9978 37.1569 33.4582 37.6939 31.969C38.1287 30.7618 38.6621 29.5798 39.3275 28.4662C40.4254 28.3246 41.5053 28.0234 42.4579 27.661C43.1546 27.3958 43.6339 26.731 43.4225 25.963C43.2387 25.2958 42.4243 24.733 41.7228 24.9994C40.3498 25.5214 38.9179 25.9342 37.4476 25.771C38.6693 25.0162 39.8008 24.1162 40.7666 23.0506C41.9882 21.703 42.9192 20.1538 43.7504 18.5458C44.5192 17.0578 45.2495 15.5434 46.2405 14.1838C46.2934 14.1106 46.3486 14.0386 46.4039 13.9654C46.4267 13.9366 46.4567 13.8982 46.4904 13.8586C46.6369 13.681 46.7859 13.5046 46.9396 13.3342C47.264 12.9754 47.6075 12.6346 47.9679 12.313C48.1469 12.1546 48.333 12.0046 48.5156 11.851C48.5325 11.8366 48.5445 11.827 48.5529 11.8198C48.5685 11.809 48.5877 11.7946 48.6129 11.7766C48.7307 11.6914 48.8472 11.605 48.9661 11.521C49.443 11.1862 49.9391 10.8802 50.4484 10.5994C50.7451 10.435 51.0454 10.2802 51.3505 10.1326C51.5307 10.045 51.7121 9.95984 51.8947 9.87824C51.9439 9.85664 52.2178 9.73784 52.243 9.72584C53.0046 9.40904 53.7854 9.13544 54.5722 8.88944C56.6046 8.25464 58.6935 7.81544 60.7933 7.46624C61.1296 7.40984 61.3963 7.18904 61.5717 6.90344C61.5873 6.87944 61.6041 6.85664 61.6185 6.83144C61.7122 6.67184 61.7675 6.48824 61.7879 6.29744C61.8119 6.11624 61.8035 5.93504 61.7578 5.76824C61.741 5.70944 61.7218 5.65304 61.699 5.60024C61.5933 5.32064 61.4011 5.07824 61.1224 4.94384C60.881 4.82864 60.6359 4.72304 60.3885 4.62224C61.8155 4.41464 63.2353 4.14344 64.648 3.86264C67.2102 3.35384 69.7976 2.76344 72.4234 2.76704C74.3502 2.76944 76.1256 3.13184 78.1184 3.76424C80.0199 4.36784 81.7701 5.20064 83.459 6.41384C85.1431 7.62344 86.6158 9.45344 87.2957 11.4274C87.56 12.1942 88.2146 12.5122 88.9954 12.391C90.0885 12.2218 91.2585 12.2914 92.3312 12.5518C93.2237 12.7678 93.9781 13.165 94.5871 13.6774C94.9174 13.9546 95.2297 14.2534 95.5228 14.5702C95.8604 14.935 96.0261 15.1414 96.2364 15.4366C96.7385 16.141 97.1661 16.8958 97.5433 17.6722C98.2556 19.1386 98.8178 20.8318 99.446 22.531C100.085 24.259 100.772 25.999 101.763 27.5614C102.603 28.8862 103.649 30.0538 104.884 30.9922C104.799 31.0162 104.713 31.0354 104.627 31.0546C104.441 31.021 104.242 31.0258 104.039 31.0798C104 31.0774 103.96 31.075 103.921 31.0726C103.913 31.0666 103.675 31.0318 103.647 31.0246C102.854 30.841 102.138 30.409 101.48 29.8606C100.908 29.383 100.087 29.3002 99.5265 29.8606C99.0352 30.3514 98.9511 31.3318 99.5265 31.8118C100.651 32.749 101.981 33.5374 103.404 33.7726C103.727 34.813 103.965 35.8834 104.032 36.9694C104.121 38.4118 103.874 39.7438 103.415 41.1082C102.462 43.939 101.012 46.5538 100.686 49.5658C100.605 50.3074 101.379 50.9458 102.067 50.9458C102.88 50.9458 103.368 50.3098 103.448 49.5658C103.764 46.6534 105.433 44.0314 106.265 41.2594C107.041 38.6746 106.897 36.0142 106.186 33.4594C107.219 33.0382 108.194 32.2834 108.6 31.243C108.812 30.7042 108.465 29.9458 107.966 29.6842V29.6806ZM46.3763 14.0002C46.3655 14.0134 46.3667 14.0122 46.3763 14.0002V14.0002ZM57.2052 3.15224C57.2052 3.15224 57.2052 3.16424 57.21 3.18224C57.1151 3.15704 57.138 3.04784 57.2052 3.15224ZM106.051 30.2218C106.068 30.1858 106.072 30.1726 106.051 30.2218V30.2218Z" fill="#333333"/>
<path d="M63.8167 74.5234C67.8396 76.615 72.9268 76.5274 76.9208 74.4214C78.4944 73.5922 77.0998 71.209 75.5262 72.0382C72.409 73.681 68.2564 73.7242 65.2101 72.1402C63.6353 71.3206 62.2359 73.7026 63.8155 74.5234H63.8167Z" fill="#333333"/>
<path d="M51.1975 99.2626C51.0966 99.3682 50.9681 99.4618 50.8108 99.5398C50.7831 99.5542 50.7543 99.5674 50.7267 99.5806C50.4468 99.7198 50.1645 99.8578 49.8822 99.9922C49.4414 100.205 48.9993 100.413 48.5561 100.62C48.478 100.656 48.3987 100.693 48.3206 100.729C41.2875 103.983 34.0454 106.801 27.0147 109.854C26.9378 109.886 26.8621 109.92 26.7864 109.952C26.4141 110.114 26.0429 110.276 25.6729 110.439C25.2465 110.628 24.82 110.816 24.396 111.007C24.2447 111.074 24.0945 111.141 23.9456 111.21C23.8483 111.253 23.751 111.296 23.6537 111.341C21.6536 112.244 19.6596 113.214 17.7917 114.373C17.2728 114.696 16.7887 115.014 16.331 115.353C15.4686 115.991 14.6974 116.7 13.9538 117.645C13.9526 117.647 13.9502 117.649 13.9502 117.651H13.949C13.949 117.651 13.9466 117.654 13.9466 117.655C13.9466 117.654 13.949 117.654 13.949 117.654C13.9358 117.673 13.8289 117.817 13.8061 117.849C13.7352 117.951 13.6631 118.052 13.5935 118.154C13.4782 118.327 13.3676 118.502 13.2607 118.681C13.0541 119.027 12.8655 119.383 12.6914 119.747C12.4956 120.158 12.4343 120.306 12.2421 120.843C12.0799 121.296 11.937 121.757 11.8085 122.22C11.1694 124.529 10.8631 126.919 10.6169 129.296C10.5628 129.818 10.5148 130.341 10.4727 130.865C10.4331 131.331 10.3982 131.799 10.3658 132.267C10.3346 132.717 10.3069 133.167 10.2805 133.619C10.176 135.413 10.1015 137.209 10.0078 138.999H7.21021C7.29789 136.974 7.39159 134.943 7.53093 132.919C7.55616 132.554 7.58258 132.189 7.61141 131.826C7.61982 131.706 7.62943 131.585 7.63904 131.465C7.67508 131.016 7.71472 130.567 7.75676 130.119C7.76156 130.065 7.76637 130.011 7.77237 129.959C7.95256 128.075 8.1904 126.199 8.51593 124.34C9.19702 120.461 10.5436 116.714 13.5803 114.053C14.5641 113.191 15.6331 112.431 16.7539 111.745C18.8956 110.435 21.226 109.392 23.5083 108.408C23.6056 108.366 23.7029 108.325 23.799 108.283C24.1702 108.123 24.5414 107.964 24.9137 107.807C25.405 107.597 25.8975 107.388 26.3912 107.18C26.8345 106.993 27.2789 106.806 27.7246 106.62C34.7889 103.665 41.9278 100.835 48.7975 97.4626C48.7987 97.4626 48.7999 97.4614 48.8011 97.4602C48.9321 97.3966 49.063 97.3318 49.1939 97.267C49.2684 97.231 49.3429 97.1938 49.4173 97.1566C50.1933 96.7714 50.9237 97.1422 51.2816 97.7146C51.5855 98.1982 51.6228 98.8258 51.1975 99.2626Z" fill="#333333"/>
<path d="M115.844 110.576C108.269 107.325 100.287 104.253 92.6889 100.635C92.2457 100.424 91.8036 100.212 91.364 99.9971C91.0817 99.8591 90.8006 99.7211 90.5195 99.5807C90.4919 99.5675 90.4631 99.5543 90.4355 99.5399C90.2781 99.4619 90.1496 99.3671 90.0487 99.2627C89.6234 98.8259 89.6607 98.1995 89.9646 97.7159C90.3237 97.1423 91.0541 96.7715 91.8301 97.1567C91.9069 97.1951 91.9838 97.2323 92.0607 97.2695C92.1832 97.3307 92.3069 97.3919 92.4307 97.4507C93.0565 97.7567 93.6871 98.0531 94.3202 98.3459C102.479 102.121 110.905 105.278 119.084 109.001C122.793 110.689 126.821 112.596 129.39 115.879C132.149 119.407 132.8 124.013 133.289 128.334C133.665 131.657 133.784 135.013 133.965 138.351C133.977 138.567 133.989 138.783 134 138.999H131.237C131.155 137.477 131.07 135.954 130.981 134.431C130.808 131.477 130.633 128.527 130.156 125.603C129.975 124.489 129.755 123.381 129.457 122.293C129.324 121.805 129.175 121.32 129.004 120.843C128.817 120.318 128.769 120.2 128.582 119.805C128.233 119.063 127.815 118.351 127.325 117.691H127.324C127.324 117.691 127.027 117.325 126.967 117.257C126.83 117.099 126.689 116.946 126.545 116.796C126.264 116.504 125.969 116.227 125.664 115.961C124.351 114.822 122.423 113.715 120.659 112.815C119.081 112.01 117.471 111.275 115.844 110.576Z" fill="#333333"/>
<path d="M96.8861 41.719C95.9455 37.3474 94.396 33.0034 91.9575 29.233C90.7479 27.3634 89.3208 25.6282 87.6644 24.1402C88.5845 22.4794 89.2668 20.6854 89.7497 18.8554C90.2037 17.1358 87.5394 16.4026 87.0854 18.1222C86.6049 19.9426 85.9166 21.6514 84.9965 23.2102C84.9304 23.2558 84.8667 23.3074 84.8055 23.3686C84.6181 23.5558 84.4895 23.8198 84.4343 24.0994C83.4733 25.525 82.2985 26.8078 80.8883 27.9154C80.8583 27.937 80.7393 28.0294 80.7177 28.045C80.6192 28.1182 80.5195 28.1914 80.4186 28.2622C80.2589 28.3762 80.0967 28.489 79.9321 28.5982C79.5225 28.8718 79.1033 29.1298 78.6757 29.3722C77.9153 29.803 76.9735 30.2566 76.3321 30.5146C74.5555 31.2274 72.6972 31.7266 70.8137 32.0614C69.7194 32.2558 68.9662 32.3494 67.8263 32.443C67.514 32.4682 67.2028 32.4898 66.8905 32.5078C67.4467 31.5118 67.9668 30.4966 68.4317 29.4562C69.2233 27.6838 69.956 25.8094 70.0185 23.845C70.0497 22.8502 68.8017 22.0558 67.9404 22.6534C63.6268 25.6438 58.7871 27.6286 54.2717 30.2626C52.2417 31.447 50.2873 32.827 48.6561 34.5286C46.787 36.4786 45.4128 38.7814 44.4182 41.2822C42.9371 45.0094 42.3953 49.0738 42.1503 53.0518C42.1046 53.797 42.8181 54.4318 43.5317 54.4318C44.3173 54.4318 44.8674 53.7982 44.9131 53.0518C45.1245 49.6222 45.5978 46.1878 46.7413 42.9286C47.1726 41.6986 47.575 40.789 48.2897 39.5638C48.59 39.0502 48.9143 38.5498 49.2639 38.0686C49.3372 37.9666 49.4128 37.867 49.4885 37.7662C49.5161 37.7314 49.6062 37.6174 49.6423 37.573C49.8321 37.3402 50.0279 37.111 50.2285 36.8878C50.9684 36.067 51.7852 35.3338 52.6441 34.6414C52.6489 34.6378 52.6513 34.6354 52.6549 34.6318C52.703 34.5958 52.7498 34.5598 52.7979 34.5238C52.9 34.447 53.0033 34.3714 53.1066 34.297C53.3432 34.1254 53.5834 33.9574 53.8273 33.7942C54.2862 33.4846 54.7558 33.1882 55.2303 32.9026C57.252 31.6882 59.3805 30.6598 61.4814 29.5906C63.1968 28.7182 64.8941 27.8134 66.5434 26.827C66.3464 27.361 66.1278 27.8878 65.8887 28.405C65.1151 30.0826 64.2058 31.6966 63.2352 33.2674C62.6827 34.1626 63.3986 35.3482 64.428 35.3434C72.5014 35.3086 81.0324 33.1222 86.1256 26.4826C88.8127 29.041 90.8067 32.263 92.1605 35.6326C92.9701 37.6474 93.5996 39.733 94.0837 41.8498C94.3095 42.835 94.5029 43.8262 94.6663 44.8234C94.8344 45.8458 94.9077 46.3822 95.0182 47.4346C95.214 49.2994 95.3137 51.175 95.2909 53.0506C95.2693 54.8278 98.0321 54.8278 98.0537 53.0506C98.1005 49.2538 97.6801 45.4282 96.8813 41.7178L96.8861 41.719Z" fill="#333333"/>
<path d="M97.4492 50.3938C96.5243 50.227 95.5993 50.059 94.6732 49.8922C94.6035 49.4302 94.1759 49.075 93.7651 48.9214C92.6131 48.4882 91.3278 48.3862 90.147 48.031C90.1326 48.0262 90.1194 48.025 90.1062 48.0202C89.15 47.5174 88.0545 47.2114 87.0719 46.9474C85.2905 46.4674 83.3541 46.3546 81.5151 46.429C78.327 46.5598 74.3414 47.5246 72.8002 50.3578C71.2363 49.8274 69.4428 49.867 67.8813 50.3962C67.438 49.5586 66.7797 48.835 65.9437 48.2554C64.3857 47.1778 62.441 46.7578 60.5911 46.5406C58.7136 46.3198 56.8132 46.3942 54.9466 46.6726C53.8198 46.8406 52.7087 47.1562 51.648 47.569C51.3117 47.6998 50.9765 47.8402 50.6534 47.9998C50.6126 48.0082 50.5717 48.0178 50.5297 48.031C49.3489 48.3862 48.0636 48.4882 46.9116 48.9214C46.5068 49.0738 46.0756 49.4326 46.0047 49.8922C45.0798 50.0602 44.1536 50.227 43.2287 50.395C42.4935 50.5282 42.0791 51.4198 42.2641 52.093C42.4767 52.8658 43.2263 53.1898 43.9638 53.0566C44.89 52.8886 45.8161 52.7218 46.7423 52.5538C46.938 52.7254 47.1651 52.8622 47.3873 52.9942C47.5002 53.0614 47.6107 53.1298 47.7212 53.2006C47.6504 53.1562 47.7849 53.3626 47.7152 53.1574C47.7236 53.1814 47.7333 53.2042 47.7429 53.227C47.7405 53.3602 47.7393 53.4934 47.7405 53.623C47.7837 56.071 48.6378 58.8862 50.3567 60.6958C53.1147 63.5986 57.8211 64.4086 61.5172 63.1246C65.8512 61.6186 68.8062 57.5998 68.5263 52.9582C68.5263 52.9054 68.5215 52.8538 68.5191 52.801C69.6867 52.4038 71.0044 52.2994 72.1588 52.7626C72.1564 52.8274 72.154 52.8922 72.1528 52.9582C71.9101 56.9782 74.1264 60.7498 77.7408 62.5294C81.3289 64.297 85.7626 64.0978 89.0443 61.7362C90.0881 60.985 90.8882 60.1222 91.508 58.9882C92.1062 57.8926 92.5374 56.6842 92.7488 55.4542C92.8714 54.739 92.947 53.983 92.935 53.227C92.9446 53.203 92.9542 53.1802 92.9627 53.155C92.893 53.3602 93.0275 53.155 92.9566 53.1982C93.0672 53.1274 93.1777 53.059 93.2906 52.9918C93.5128 52.8598 93.7422 52.7242 93.9368 52.5514C94.863 52.7194 95.7879 52.8862 96.7141 53.0542C97.4468 53.1874 98.2036 52.8538 98.4138 52.0906C98.5976 51.421 98.1867 50.527 97.4492 50.3926V50.3938ZM65.0152 57.4186C64.5971 58.1098 64.238 58.5358 63.5893 59.1214C63.08 59.581 62.5707 59.9278 61.8548 60.2986C60.5887 60.9526 59.0944 61.2802 57.6097 61.2346C56.0985 61.189 54.5934 60.7186 53.2456 59.8354C52.5105 59.3542 51.9267 58.783 51.4498 57.9658C50.9213 57.0598 50.5777 56.0758 50.3747 55.0486C50.2066 54.1966 50.1597 53.1658 50.3027 52.4026C50.3423 52.1902 50.3903 51.979 50.4528 51.7726C50.4744 51.7006 50.5789 51.421 50.5765 51.4102C50.6546 51.2434 50.7459 51.0874 50.83 50.923C50.836 50.911 50.8408 50.9002 50.8456 50.8906C50.9345 50.8126 51.021 50.7094 51.1039 50.6242C51.1255 50.6026 51.1399 50.587 51.1519 50.5738C51.1591 50.5714 51.1735 50.5642 51.1976 50.5474C51.3441 50.4526 51.4895 50.3602 51.6432 50.2762C52.4721 49.825 53.4835 49.5358 54.4877 49.2826C54.8577 49.189 55.2324 49.1242 55.6096 49.0666C55.6252 49.0642 55.6697 49.0582 55.7009 49.0534C55.7598 49.0462 55.8198 49.039 55.8787 49.0318C56.0865 49.0078 56.2943 48.9874 56.5033 48.9694C57.3418 48.8986 58.1862 48.877 59.0271 48.9058C60.0109 48.9394 60.7244 49.0114 61.5941 49.1902C62.0409 49.2826 62.4842 49.3954 62.919 49.5358C63.3875 49.6882 63.5509 49.7554 63.8836 49.9222C64.0602 50.011 64.2332 50.1058 64.4013 50.209C64.483 50.2594 64.5647 50.3122 64.644 50.3662C64.6656 50.3806 64.7761 50.4622 64.8302 50.5018C64.8794 50.545 64.9779 50.6278 64.9719 50.6218C65.0536 50.6974 65.1341 50.7718 65.2122 50.851C65.265 50.905 65.4716 51.1606 65.4716 51.1486C65.5641 51.283 65.6458 51.4222 65.7275 51.5626C65.7539 51.6082 65.7779 51.6574 65.8007 51.7054C65.7419 51.5818 65.85 51.8254 65.8644 51.8758C65.9209 52.0606 65.9701 52.243 66.0086 52.4314C66.0122 52.4506 66.0158 52.465 66.0182 52.4794C66.0182 52.489 66.0182 52.501 66.0206 52.5166C66.0326 52.663 66.0386 52.8082 66.041 52.9546C66.1407 54.6046 65.8368 56.0614 65.0176 57.4162L65.0152 57.4186ZM89.5584 50.6014C89.5176 50.5726 89.4899 50.5534 89.4719 50.5402C89.5007 50.5606 89.5308 50.5822 89.5584 50.6014ZM89.4575 50.5294C89.4323 50.5114 89.4383 50.515 89.4575 50.5294V50.5294ZM75.2195 51.1318C75.145 51.235 75.1847 51.1786 75.2195 51.1318V51.1318ZM90.4509 53.7022C90.4029 55.5262 89.7566 57.8866 88.3428 59.1406C87.1247 60.2206 85.7037 60.8662 84.0544 61.1482C84.0412 61.1506 83.9595 61.1626 83.9319 61.1686C83.8646 61.177 83.7962 61.1842 83.7289 61.1914C83.5103 61.213 83.2905 61.2262 83.0718 61.2334C82.679 61.2454 82.2862 61.2334 81.8946 61.1986C81.5823 61.171 81.7589 61.195 81.4514 61.1434C81.2808 61.1146 81.1115 61.0822 80.9421 61.0438C80.5217 60.9502 80.1084 60.8302 79.7036 60.6838C78.3499 60.1942 76.8483 59.1166 76.0171 57.9514C75.4561 57.1642 75.1486 56.5342 74.906 55.6858C74.6369 54.745 74.578 53.9962 74.6417 52.9558C74.6417 52.885 74.6753 52.4638 74.6621 52.5058C74.6849 52.3666 74.715 52.2286 74.7522 52.093C74.7714 52.0246 74.8483 51.8074 74.8735 51.7306C74.9024 51.6754 74.9576 51.559 74.9552 51.5638C75.0093 51.469 75.0645 51.3754 75.121 51.2818C75.1522 51.229 75.1895 51.1762 75.2267 51.1258C75.2363 51.1138 75.2447 51.103 75.2507 51.0958C75.3576 50.9698 75.4705 50.8498 75.5895 50.7358C75.6315 50.6962 75.8585 50.503 75.8561 50.497C75.9931 50.3938 76.1372 50.299 76.2826 50.2102C77.4393 49.5022 79.0874 49.1182 80.428 48.9862C81.2616 48.9046 82.1013 48.8794 82.9385 48.901C83.3313 48.9118 83.7241 48.9322 84.1145 48.9646C84.3031 48.9802 84.4917 48.9982 84.6803 49.0186C84.762 49.027 84.8436 49.0366 84.9253 49.0474C84.9566 49.051 84.9794 49.0534 84.9986 49.0558C85.0178 49.0582 85.0406 49.0618 85.0719 49.0666C86.0701 49.2166 87.0443 49.4878 87.9944 49.8238C88.416 49.9726 88.595 50.0398 88.9866 50.2474C89.1296 50.323 89.2641 50.4082 89.4023 50.491C89.4251 50.5042 89.4467 50.5198 89.4683 50.5354C89.502 50.5606 89.5572 50.6014 89.5764 50.6218C89.6557 50.7034 89.7362 50.7886 89.8179 50.8678C89.8227 50.8726 89.8251 50.875 89.8299 50.8786C89.8359 50.8906 89.8419 50.9038 89.8503 50.9206C89.9428 51.0994 90.0437 51.2686 90.1254 51.4534C90.1302 51.469 90.135 51.4858 90.141 51.5062C90.1674 51.595 90.2011 51.6802 90.2275 51.769C90.2827 51.9526 90.3272 52.1386 90.3644 52.327C90.4449 52.7374 90.4641 53.2126 90.4509 53.701V53.7022Z" fill="#333333"/>
<path d="M61.0981 51.8974C59.9425 50.3146 58.1455 50.695 57.2854 52.003C56.3136 53.4586 56.4398 56.0386 57.4127 57.4798C57.7455 57.949 58.2128 58.2358 58.7569 58.333C60.8987 58.7134 61.7828 56.737 61.7732 55.1086C61.7672 54.1186 61.7011 52.7242 61.0981 51.8974Z" fill="#333333"/>
<path d="M83.1296 51.8974C81.974 50.3146 80.177 50.695 79.3169 52.003C78.3451 53.4586 78.4712 56.0386 79.4442 57.4798C79.777 57.949 80.2442 58.2358 80.7884 58.333C82.9302 58.7134 83.8143 56.737 83.8046 55.1086C83.7986 54.1186 83.7326 52.7242 83.1296 51.8974Z" fill="#333333"/>
<path d="M70.3872 67.711C71.4421 67.711 72.2972 67.1351 72.2972 66.4246C72.2972 65.7142 71.4421 65.1382 70.3872 65.1382C69.3324 65.1382 68.4773 65.7142 68.4773 66.4246C68.4773 67.1351 69.3324 67.711 70.3872 67.711Z" fill="#333333"/>
<path d="M23.7931 138.999H1.97417C1.83123 135.933 1.65585 132.855 1.41801 129.758C1.41801 129.758 1.14053 127.82 2.11231 126.679C2.3994 126.341 2.79701 126.072 3.34356 125.945C3.39521 126.11 3.45047 126.278 3.50933 126.447C3.54777 126.557 3.58741 126.667 3.62945 126.777C3.63185 126.783 3.63425 126.789 3.63546 126.795C3.6751 126.899 3.71594 127.003 3.75918 127.106C3.76519 127.122 3.77239 127.137 3.7784 127.153C3.83606 127.292 3.89732 127.43 3.96099 127.569C3.98381 127.62 4.00783 127.67 4.03186 127.719C4.10033 127.863 4.1724 128.007 4.24928 128.149C4.27811 128.205 4.30934 128.261 4.34057 128.316C4.47631 128.559 4.62406 128.799 4.78382 129.03C4.81505 129.078 4.84868 129.126 4.88352 129.173C4.92436 129.23 4.9664 129.287 5.00965 129.343C5.04088 129.386 5.07331 129.427 5.10695 129.469C5.13337 129.504 5.161 129.537 5.18983 129.571C5.23908 129.632 5.28953 129.692 5.34118 129.75C5.37602 129.789 5.41085 129.829 5.44809 129.869C5.48413 129.909 5.52257 129.949 5.5598 129.989C5.60065 130.031 5.64029 130.071 5.68113 130.111C5.71356 130.143 5.74719 130.176 5.78083 130.206C5.81326 130.238 5.8469 130.269 5.88053 130.299C5.91536 130.331 5.9502 130.362 5.98624 130.392C6.18564 130.565 6.39705 130.725 6.62048 130.871C6.81027 130.999 7.00247 131.119 7.19586 131.228C7.2355 131.251 7.27514 131.274 7.31478 131.295C7.37244 131.327 7.4289 131.358 7.48656 131.387C7.53581 131.413 7.58385 131.437 7.6331 131.461C7.63551 131.462 7.63671 131.463 7.63911 131.465C7.70037 131.495 7.76043 131.523 7.8217 131.551C7.8253 131.553 7.8289 131.555 7.83371 131.557C7.87815 131.577 7.9238 131.598 7.96944 131.618C8.07275 131.664 8.17605 131.707 8.28056 131.748C8.3226 131.765 8.36344 131.78 8.40549 131.796C8.57005 131.857 8.73462 131.913 8.90039 131.964C8.94363 131.977 8.98688 131.989 9.03012 132.001C9.08537 132.017 9.14183 132.032 9.19709 132.047C9.25234 132.061 9.3076 132.075 9.36406 132.089C9.46015 132.113 9.55625 132.134 9.65235 132.153C9.72442 132.168 9.7977 132.182 9.86977 132.195C9.92382 132.204 9.97788 132.213 10.0319 132.222C10.0872 132.23 10.1436 132.239 10.1989 132.246C10.2542 132.254 10.3106 132.261 10.3659 132.267C10.5328 132.287 10.6998 132.301 10.8668 132.311C10.9485 132.315 11.0313 132.319 11.1142 132.321H11.1202C11.2019 132.324 11.2824 132.325 11.3641 132.325H11.3665C11.4434 132.325 11.5202 132.324 11.5971 132.321C11.6199 132.321 11.6428 132.32 11.6644 132.32C11.7389 132.318 11.8121 132.314 11.8854 132.309C11.9106 132.309 11.9359 132.306 11.9623 132.305C12.0248 132.301 12.0872 132.296 12.1497 132.29C12.2169 132.284 12.283 132.278 12.3503 132.271C12.4656 132.258 12.5809 132.243 12.695 132.227C12.7695 132.216 12.8452 132.204 12.9197 132.191C13.0037 132.176 13.0878 132.161 13.1719 132.144C13.2524 132.128 13.3329 132.111 13.4122 132.093C13.5059 132.072 13.5995 132.049 13.6932 132.025C13.7677 132.006 13.841 131.985 13.9143 131.965C13.9947 131.942 14.0752 131.918 14.1557 131.893C14.2362 131.868 14.3155 131.843 14.3948 131.815C14.474 131.789 14.5521 131.761 14.6302 131.732C14.7251 131.697 14.8176 131.661 14.9101 131.624C14.9701 131.6 15.029 131.576 15.0867 131.551C15.0903 131.55 15.0927 131.549 15.0951 131.547C15.1695 131.516 15.2428 131.484 15.3149 131.45C15.393 131.415 15.4698 131.379 15.5467 131.342C15.6044 131.313 15.662 131.285 15.7185 131.256C15.7509 131.239 15.7834 131.222 15.8146 131.205C15.865 131.179 15.9143 131.153 15.9635 131.125C16.0392 131.084 16.1137 131.042 16.1858 131C16.2494 130.963 16.3119 130.925 16.3732 130.887C16.3756 130.886 16.3768 130.885 16.3792 130.884C16.444 130.843 16.5077 130.802 16.5714 130.761C16.6326 130.722 16.6939 130.681 16.7527 130.64C16.82 130.595 16.8861 130.548 16.9509 130.5C17.0062 130.459 17.0615 130.418 17.1155 130.377C17.1275 130.368 17.1395 130.359 17.1503 130.35C17.1948 130.316 17.238 130.283 17.2801 130.248L17.3413 130.197C17.3882 130.16 17.4338 130.122 17.4783 130.082C17.5179 130.05 17.5564 130.016 17.5936 129.98C17.602 129.974 17.6104 129.967 17.6176 129.96C17.6404 129.941 17.6621 129.92 17.6837 129.9C17.8831 129.716 18.0669 129.527 18.235 129.333C18.3287 129.224 18.4176 129.115 18.5017 129.003C18.5185 128.981 18.5353 128.959 18.551 128.937C18.581 128.897 18.6098 128.856 18.6374 128.815C18.6783 128.756 18.7167 128.697 18.754 128.639C18.7924 128.577 18.8296 128.514 18.8657 128.447C18.8789 128.42 18.8921 128.395 18.9053 128.367C18.9762 128.228 19.0411 128.078 19.1011 127.92C19.1131 127.89 19.1239 127.86 19.1348 127.83C19.1516 127.784 19.1684 127.739 19.1852 127.692C19.232 127.551 19.2789 127.406 19.3221 127.256C19.3426 127.19 19.3618 127.123 19.3798 127.055C19.3942 127.002 19.4086 126.95 19.423 126.897C19.5396 126.467 19.6465 126.013 19.7606 125.564C19.8146 125.564 19.8675 125.567 19.9179 125.57C20.4237 125.601 20.7972 125.775 21.0711 126.012C21.8027 126.643 21.8387 127.718 21.8387 127.718C22.3564 131.118 22.9414 134.455 23.548 137.701C23.6297 138.135 23.7114 138.569 23.7931 138.999Z" fill="#999999"/>
<path d="M3.34257 125.945C2.77079 124.101 2.66989 122.535 2.66989 122.535C1.95757 113.323 1.42183 103.694 6.22669 99.6502C6.8213 99.1486 7.49878 98.7334 8.26756 98.4154C10.0141 97.693 11.8832 97.2394 13.7859 97.0858C14.9896 96.9886 16.2064 97.0114 17.4148 97.1602C20.735 97.339 24.9885 98.5318 24.0059 102.68C24.0059 102.68 23.7332 103.479 23.4257 103.772C23.714 103.814 24.0023 103.862 24.293 103.915C26.2894 104.791 27.224 107.805 25.4534 109.381C25.4534 109.381 25.0738 109.758 24.7951 109.977C24.9657 110.025 25.1326 110.088 25.296 110.166C27.0498 111.217 27.4149 114.253 25.7573 115.607C25.7573 115.607 25.4257 115.989 25.1014 116.167C25.2311 116.219 25.3465 116.279 25.4462 116.347C27.4041 118.05 26.7579 120.519 24.6149 121.652C23.4666 122.283 22.4143 121.806 21.3068 122.505C20.4779 123.03 20.0887 124.274 19.7596 125.564C19.4665 126.715 19.2203 127.899 18.753 128.639C16.8971 131.576 11.2009 133.975 6.61949 130.871C4.87412 129.735 3.89033 127.713 3.34257 125.945Z" fill="white"/>
<path d="M11.3764 84.1701C13.4605 86.8365 14.2329 90.5037 13.9963 93.8361C13.9338 94.7289 13.8858 95.4105 13.8365 96.0957L13.7861 97.0857C11.8833 97.2393 10.0142 97.6929 8.26767 98.4153C7.49889 98.7333 6.82141 99.1485 6.22681 99.6501C7.23943 94.4397 6.25804 89.827 6.23161 85.6378C6.22561 84.8182 6.23401 83.9314 6.74213 83.2834C7.29589 82.5802 8.33854 82.3629 9.21784 82.6029C10.0959 82.8405 10.8227 83.4621 11.3764 84.1701Z" fill="white"/>
<path d="M3.77853 127.153C3.70646 127.211 3.62598 127.263 3.53469 127.31C3.45541 127.351 3.37613 127.392 3.30045 127.44C3.3521 127.399 3.43979 127.302 3.2548 127.478C3.20916 127.524 3.08303 127.688 3.10345 127.65C3.06141 127.715 3.02417 127.782 2.98934 127.85C2.99294 127.844 2.99534 127.841 2.99654 127.842C2.99654 127.855 2.91126 128.053 2.89564 128.107C2.86561 128.208 2.84399 128.31 2.82237 128.412C2.81155 128.465 2.80074 128.517 2.78873 128.571C2.78873 128.573 2.78753 128.575 2.78873 128.576C2.78513 128.601 2.78273 128.628 2.78152 128.653C2.77071 128.859 2.7587 129.065 2.76471 129.272C2.76831 129.41 2.78873 129.549 2.79113 129.687C2.79113 129.703 2.79113 129.714 2.79113 129.719C2.81276 129.93 2.82957 130.14 2.84519 130.351C3.00615 132.513 3.13829 134.678 3.25 136.844C3.28724 137.563 3.32327 138.281 3.35571 138.999H0.592908C0.489604 136.787 0.370683 134.574 0.222933 132.363C0.185696 131.811 0.147257 131.259 0.107617 130.706C0.0956045 130.549 0.0787875 130.391 0.0727814 130.232C0.0727814 130.232 0.0691777 130.157 0.0667753 130.091V130.087C0.0583668 130.001 0.0403485 129.801 0.0307388 129.717C-0.00529769 129.363 -0.0101025 129.008 0.0187266 128.653C0.129239 127.319 0.606121 125.99 1.69923 125.199C1.83617 125.099 1.98272 125.009 2.14007 124.927C2.45119 124.766 2.7551 124.73 3.03018 124.781C4.07163 124.974 4.70707 126.422 3.77853 127.153Z" fill="#333333"/>
<path d="M22.3914 138.999C21.9649 136.749 21.5565 134.496 21.1745 132.237C20.9391 130.843 20.7625 129.433 20.5247 128.039C20.5115 127.953 20.4959 127.868 20.4802 127.784C20.4983 127.928 20.4034 127.505 20.3745 127.395C20.3697 127.38 20.3637 127.362 20.3565 127.344H20.3553C20.3553 127.344 20.3553 127.34 20.3553 127.339C20.3217 127.265 20.276 127.195 20.3061 127.254C20.282 127.213 20.2604 127.171 20.24 127.13L20.1896 127.076C20.1751 127.063 20.1619 127.051 20.1511 127.041C20.1379 127.033 20.1259 127.026 20.1127 127.017C20.0586 127.01 20.0262 127.005 20.0094 127.003C20.0394 127.005 20.1031 127.01 20.1151 127.007C20.1115 127.003 20.1103 127.001 20.1103 127.001C20.0959 126.993 20.0574 126.984 19.9793 126.967C19.9409 126.959 19.9109 126.951 19.8904 126.945C19.8904 126.945 19.8896 126.945 19.888 126.945C19.8604 126.947 19.8196 126.947 19.7607 126.944C19.6406 126.941 19.5277 126.924 19.4244 126.897C18.0874 126.551 18.0958 124.44 19.452 124.205C19.5481 124.188 19.6514 124.181 19.7607 124.184C19.8965 124.189 20.0298 124.2 20.1607 124.217C20.6364 124.28 21.076 124.428 21.4652 124.65C22.24 125.091 22.8142 125.828 23.0749 126.781C23.1433 127.031 23.171 127.286 23.2034 127.542C23.207 127.563 23.2082 127.585 23.2106 127.605C23.2106 127.609 23.2118 127.611 23.2118 127.615C23.2226 127.679 23.243 127.817 23.243 127.817C23.4244 128.93 23.595 130.046 23.7824 131.16C24.222 133.779 24.7013 136.392 25.201 138.999H22.3926H22.3914Z" fill="#333333"/>
<path d="M28.1871 112.772C28.091 111.659 27.667 110.565 26.9331 109.761C27.1745 109.439 27.3775 109.088 27.5252 108.684C27.8051 107.919 27.8171 107.09 27.6742 106.296C27.44 104.995 26.5595 103.575 25.351 102.884C25.7547 101.31 25.4375 99.6034 24.3348 98.3278C23.1276 96.9322 21.1924 96.283 19.4218 95.9998C18.0416 95.779 16.6506 95.659 15.2596 95.6638C15.3689 94.159 15.4891 92.653 15.3485 91.1482C15.1059 88.5454 14.3479 85.9174 12.7995 83.7778C11.9983 82.6714 11.0133 81.7006 9.67157 81.2962C8.37786 80.9062 6.8331 81.1954 5.87453 82.1794C4.85229 83.2294 4.82586 84.7342 4.85589 86.1058C4.88352 87.3766 4.98562 88.6438 5.08052 89.9098C5.30515 92.9182 5.46491 95.947 4.95559 98.9314C2.13754 101.525 1.3027 105.681 0.98197 109.333C0.595179 113.733 0.907495 118.223 1.29429 122.612C1.6042 126.126 2.86187 130.013 5.92137 132.059C9.0109 134.101 12.8956 134.133 16.1858 132.555C17.56 131.897 18.7768 130.925 19.6861 129.703C20.5306 128.569 20.7756 127.13 21.124 125.792C21.2069 125.475 21.2933 125.159 21.3954 124.848C21.5372 124.415 21.5108 124.447 21.7126 124.087C21.7594 124.004 21.8099 123.921 21.8627 123.842C21.8675 123.847 21.9612 123.741 22.0201 123.681C22.1174 123.626 22.1654 123.593 22.2543 123.558C22.4429 123.483 22.6483 123.459 22.8477 123.437C23.9072 123.313 24.8513 123.188 25.7571 122.569C26.4718 122.081 27.1108 121.446 27.5036 120.666C28.2628 119.16 28.0754 117.481 27.124 116.15C27.8844 115.203 28.2964 114.045 28.1859 112.766L28.1871 112.772ZM7.8265 84.1342C7.98867 83.929 8.28296 83.8846 8.53762 83.8894C9.26075 83.9038 9.95626 84.5566 10.4139 85.1734C11.686 86.8882 12.3887 89.0374 12.5857 91.1506C12.7311 92.719 12.5953 94.2886 12.4824 95.8558C12.2662 95.8846 12.0512 95.917 11.8362 95.953C10.5232 96.175 9.19349 96.517 7.95263 97.0462C8.08236 95.4262 8.08236 93.7978 7.99467 92.1646C7.87215 89.8954 7.59347 87.6262 7.61148 85.351C7.61389 84.9766 7.57665 84.4498 7.8253 84.133L7.8265 84.1342ZM22.0429 123.665C22.0429 123.665 22.0525 123.656 22.0549 123.653C22.139 123.579 22.0861 123.626 22.0429 123.665ZM25.2357 118.847C25.2105 118.999 25.1685 119.157 25.1108 119.303C25.118 119.27 24.9955 119.505 24.9739 119.541C24.8802 119.699 24.9426 119.617 24.8213 119.759C24.6087 120.008 24.3961 120.179 24.1462 120.33C23.4627 120.743 22.6675 120.653 21.906 120.804C20.2615 121.131 19.3654 122.361 18.8272 123.842C18.402 125.011 18.223 126.252 17.8146 127.425C17.7978 127.473 17.7798 127.52 17.7618 127.568C17.7606 127.571 17.7594 127.573 17.7582 127.575C17.6969 127.7 17.6332 127.823 17.56 127.941C17.5023 128.035 17.4386 128.126 17.3738 128.215C17.3894 128.187 17.2104 128.409 17.1732 128.45C16.7575 128.912 16.3816 129.23 15.9563 129.513C13.3569 131.25 10.0343 131.475 7.31478 129.678C7.04331 129.497 6.86313 129.35 6.54841 129.026C6.20246 128.669 6.13399 128.579 5.88053 128.193C5.65951 127.859 5.46251 127.509 5.28473 127.151C5.21145 127.003 5.14178 126.853 5.07572 126.703C5.0625 126.671 5.03608 126.608 5.03007 126.594C4.98082 126.468 4.93277 126.342 4.88592 126.213C4.64088 125.538 4.44868 124.843 4.29853 124.14C4.23967 123.865 4.18802 123.589 4.14237 123.312C4.12555 123.207 4.11114 123.102 4.09432 122.997C4.09312 122.983 4.09192 122.969 4.08952 122.951C3.71354 119.348 3.52014 115.67 3.59942 112.049C3.64146 110.108 3.7724 108.284 4.16039 106.464C4.52676 104.748 4.95559 103.427 5.92017 102.013C6.15201 101.673 6.12198 101.707 6.43669 101.36C6.61087 101.167 6.79586 100.983 6.98925 100.808C7.11178 100.733 7.22229 100.639 7.31238 100.531C7.31959 100.525 7.32559 100.519 7.3328 100.514C7.34241 100.508 7.35442 100.5 7.37244 100.487C7.44452 100.436 7.51659 100.385 7.58866 100.335C7.75443 100.224 7.925 100.119 8.10038 100.021C8.47156 99.8122 8.84153 99.6526 9.23433 99.505C11.5395 98.6446 13.9755 98.2786 16.4308 98.443C16.9834 98.4802 17.5359 98.5342 18.0873 98.5858C18.2014 98.5966 18.3167 98.6098 18.4308 98.6218C18.4705 98.6266 18.4789 98.6266 18.4753 98.6254C18.4921 98.6278 18.5149 98.6314 18.5474 98.6362C18.7792 98.671 19.0086 98.7106 19.2381 98.7574C19.6909 98.8498 20.1402 98.9662 20.5786 99.1186C20.6639 99.1486 20.7492 99.1798 20.8345 99.211C20.8777 99.2278 20.9029 99.2362 20.9186 99.241C20.9354 99.2494 20.9606 99.2614 20.9978 99.2794C21.1744 99.3634 21.3486 99.4522 21.5168 99.5518C21.59 99.595 21.6621 99.6394 21.7342 99.6862C21.7594 99.703 21.8976 99.8038 21.9516 99.8422C21.9876 99.8734 22.0333 99.9142 22.0453 99.925C22.1174 99.997 22.1931 100.064 22.2615 100.139C22.2579 100.135 22.3384 100.233 22.3852 100.287C22.4201 100.341 22.4729 100.419 22.4825 100.434C22.5246 100.503 22.5618 100.574 22.6003 100.645C22.6111 100.667 22.6207 100.683 22.6279 100.698C22.6327 100.716 22.6387 100.739 22.6483 100.771C22.7961 101.264 22.8177 101.763 22.6711 102.259C22.3144 102.23 21.96 102.209 21.6213 102.182C20.6026 102.103 19.5792 102.089 18.5594 102.133C16.3948 102.227 14.2434 102.57 12.1293 103.027C11.4001 103.185 10.9749 104.035 11.1647 104.725C11.3713 105.477 12.1329 105.847 12.8644 105.689C16.1461 104.978 19.5023 104.623 22.8489 105.067C23.0976 105.099 23.548 105.115 23.727 105.162C24.0153 105.236 24.0874 105.357 24.2555 105.518C24.5955 105.843 24.8057 106.212 24.9198 106.61C25.0543 107.081 25.0495 107.327 24.933 107.748C24.8898 107.901 24.8177 108.049 24.6808 108.212C24.6291 108.273 24.5234 108.374 24.4081 108.481C22.9354 108.263 21.3282 108.542 19.8771 108.659C17.9588 108.811 16.05 109.049 14.1485 109.346C13.411 109.463 13.0025 110.383 13.1839 111.044C13.4001 111.83 14.1437 112.124 14.8836 112.008C16.39 111.771 17.9011 111.585 19.4206 111.456C20.7216 111.345 22.0453 111.193 23.351 111.183C23.721 111.181 24.0898 111.187 24.4429 111.307C24.473 111.318 24.6579 111.402 24.6988 111.414C24.7444 111.461 24.9198 111.62 24.9631 111.668C25.0471 111.763 25.1516 111.92 25.2658 112.177C25.2201 112.081 25.3402 112.412 25.3426 112.424C25.3763 112.541 25.4051 112.662 25.4267 112.783C25.4195 112.779 25.4459 113.054 25.4459 113.059C25.4483 113.178 25.4459 113.298 25.4363 113.418C25.4291 113.432 25.3931 113.655 25.3847 113.691C25.3811 113.706 25.2946 113.972 25.3102 113.955C25.1829 114.24 25.0195 114.444 24.8009 114.65C24.2844 114.539 23.7438 114.498 23.2093 114.486C21.6177 114.449 20.0116 114.674 18.4453 114.941C17.226 115.148 15.996 115.389 14.8128 115.759C13.1227 116.289 13.8434 118.955 15.5467 118.421C16.4128 118.149 17.3053 117.956 18.1954 117.782C19.4999 117.527 20.4092 117.383 21.6897 117.291C22.2579 117.251 22.8297 117.229 23.3991 117.253C23.5228 117.258 23.6453 117.266 23.7678 117.275C23.8255 117.278 23.9048 117.288 23.9468 117.293C24.1366 117.325 24.3228 117.365 24.5078 117.417C24.5354 117.425 24.5618 117.433 24.5859 117.441C24.6063 117.453 24.6243 117.465 24.6387 117.476C24.8321 117.651 25.0255 117.917 25.106 118.089C25.1144 118.107 25.1865 118.329 25.2105 118.425C25.2201 118.464 25.2261 118.484 25.2297 118.495C25.2321 118.543 25.2333 118.591 25.2357 118.639C25.2393 118.711 25.2369 118.784 25.2321 118.856C25.2333 118.827 25.2646 118.681 25.2357 118.848V118.847ZM24.6495 117.464C24.6916 117.48 24.7024 117.486 24.6495 117.464V117.464Z" fill="#333333"/>
</svg>
