<svg width="182" height="24" viewBox="0 0 182 24" fill="none" xmlns="http://www.w3.org/2000/svg">
    <g clip-path="url(#clip0_318_345)">
        <path
            d="M26.2947 18.7655V16.436L31.7731 18.4083L15.9473 24.0008L0.181396 18.4233L5.64481 16.4841V18.7745L15.9533 22.4458L26.2947 18.7655Z"
            fill="#1C2B57" />
        <path
            d="M15.1937 20.5008V2.17434L7.37085 4.95707L15.9502 0.000976562L24.5416 5.01411L16.7427 2.23737L16.7007 2.21636V20.5098L15.9532 20.774L15.1937 20.5008Z"
            fill="#1C2B57" />
        <path
            d="M13.6238 4.37451V19.8312L7.30786 17.5497V15.9918L12.0989 17.6848L12.1319 17.6968V4.90885L13.6238 4.37451Z"
            fill="#1C2B57" />
        <path d="M10.559 5.46729V15.3705L9.06104 14.8451V5.99862L10.559 5.46729Z" fill="#1C2B57" />
        <path
            d="M24.6048 15.9918V17.5497L18.2888 19.8312V4.37451L19.7808 4.90885V17.6968L24.6048 15.9918Z"
            fill="#1C2B57" />
        <path d="M22.8487 5.99862V14.8451L21.3538 15.3705V5.46729L22.8487 5.99862Z" fill="#1C2B57" />
        <path
            d="M37.0742 17.9036C36.9511 17.9036 36.9121 17.8825 36.9121 17.7625V17.4563C36.9121 17.3332 36.9541 17.2942 37.0742 17.2942L38.1309 17.2732C38.6202 17.2522 38.6382 17.1321 38.6382 15.5861V6.50544C38.6382 4.95947 38.6172 4.8394 38.1309 4.81838L37.0742 4.79737C36.9511 4.79737 36.9121 4.75534 36.9121 4.63527V4.32908C36.9121 4.206 36.9541 4.18799 37.0742 4.18799H42.6607C42.7838 4.18799 42.8228 4.209 42.8228 4.32908V4.63527C42.8228 4.75834 42.7808 4.79737 42.6607 4.79737L41.3189 4.81838C40.8296 4.8394 40.8115 4.95947 40.8115 6.50544V17.1921H44.1046C45.7917 17.1921 46.4821 15.9133 46.5842 13.5358C46.5842 13.3947 46.6052 13.3527 46.7252 13.3527H47.0494C47.1905 13.3527 47.2115 13.3947 47.2115 13.5358L47.0074 17.7415C47.0074 17.8645 46.9864 17.9036 46.8243 17.9036H37.0712H37.0742Z"
            fill="#2F2725" />
        <path
            d="M49.3489 17.9036C49.2258 17.9036 49.1868 17.8825 49.1868 17.7625V17.4563C49.1868 17.3332 49.2288 17.2942 49.3489 17.2942L50.4055 17.2732C50.8948 17.2522 50.9128 17.1321 50.9128 15.5861V6.50544C50.9128 4.95947 50.8918 4.8394 50.4055 4.81838L49.3489 4.79737C49.2258 4.79737 49.1868 4.75534 49.1868 4.63527V4.32908C49.1868 4.206 49.2288 4.18799 49.3489 4.18799H54.6532C54.7763 4.18799 54.8153 4.209 54.8153 4.32908V4.63527C54.8153 4.75834 54.7733 4.79737 54.6532 4.79737L53.5965 4.81838C53.1102 4.8394 53.0892 4.95947 53.0892 6.50544V15.5861C53.0892 17.1321 53.1102 17.2522 53.5965 17.2732L54.6532 17.2942C54.7763 17.2942 54.8153 17.3362 54.8153 17.4563V17.7625C54.8153 17.8855 54.7733 17.9036 54.6532 17.9036H49.3489Z"
            fill="#2F2725" />
        <path
            d="M69.5846 4.81845C69.0563 4.86048 68.8311 5.14266 68.4049 6.11827C68.2007 6.54453 67.6724 7.9254 67.3902 8.71789L63.9981 18.0027C63.9561 18.1048 63.9171 18.1648 63.755 18.1648H63.2056C63.0645 18.1648 63.0225 18.1438 62.9835 18.0027L58.8379 7.27399C57.9223 4.91752 57.8623 4.83647 57.1719 4.81545L56.9287 4.79444C56.8056 4.77343 56.7666 4.75241 56.7666 4.63234V4.32615C56.7666 4.20307 56.8086 4.18506 56.9287 4.18506H62.1099C62.233 4.18506 62.272 4.20607 62.272 4.32615V4.63234C62.272 4.75542 62.23 4.79444 62.1099 4.79444L61.4195 4.81545C60.9512 4.81545 60.7291 4.8965 60.7291 5.30176C60.7291 5.66799 60.8912 6.25635 61.2364 7.27399L64.1002 15.5442H64.1212L66.4777 8.81996C66.7839 7.9254 67.1291 6.84772 67.1291 6.0162C67.1291 5.24472 66.7628 4.83647 66.0514 4.81845L65.481 4.79744C65.358 4.79744 65.3189 4.75542 65.3189 4.63534V4.32915C65.3189 4.20607 65.361 4.18806 65.481 4.18806H69.8908C70.0139 4.18806 70.0529 4.20907 70.0529 4.32915V4.63534C70.0529 4.75842 70.0109 4.77643 69.8908 4.79744L69.5846 4.81845Z"
            fill="#2F2725" />
        <path
            d="M72.1811 17.9036C72.0581 17.9036 72.019 17.8825 72.019 17.7625V17.4563C72.019 17.3332 72.0611 17.2942 72.1811 17.2942L73.2378 17.2732C73.7271 17.2522 73.7451 17.1321 73.7451 15.5861V6.50544C73.7451 4.95947 73.7031 4.8394 73.2378 4.81838L72.1811 4.79737C72.0581 4.79737 72.019 4.75534 72.019 4.63527V4.32908C72.019 4.206 72.0611 4.18799 72.1811 4.18799H81.3849C81.547 4.18799 81.568 4.23001 81.568 4.35009V7.8863C81.568 8.02739 81.547 8.06941 81.4059 8.06941H81.0997C80.9586 8.06941 80.9376 8.02739 80.9376 7.8863L80.9166 7.66416C80.8746 5.85703 80.2262 4.90243 78.5992 4.90243H75.9155V10.3869H77.4795C78.5781 10.3869 78.9414 9.79849 78.9624 8.92495L78.9834 8.72082C78.9834 8.59774 79.0044 8.55872 79.1455 8.55872H79.4097C79.5507 8.55872 79.5718 8.60075 79.5718 8.72082V12.8244C79.5718 12.9655 79.5507 13.0075 79.4097 13.0075H79.1455C79.0044 13.0075 78.9834 12.9655 78.9834 12.8244L78.9624 12.5392C78.9414 11.7047 78.5751 11.0563 77.4795 11.0563H75.9155V17.1921H79.4307C81.1988 17.1921 81.7061 15.8923 81.8502 14.5114L81.8922 14.2052C81.8922 14.0642 81.9342 14.0221 82.0333 14.0221H82.3575C82.4986 14.0221 82.5196 14.0642 82.5196 14.2052L82.3155 17.7415C82.3155 17.8645 82.2945 17.9036 82.1324 17.9036H72.1751H72.1811Z"
            fill="#2F2725" />
        <path
            d="M94.0228 17.9036C93.8997 17.9036 93.8607 17.8825 93.8607 17.7625V17.4563C93.8607 17.3332 93.9027 17.2942 94.0228 17.2942L95.1004 17.2732C95.5898 17.2522 95.6078 17.1321 95.6078 15.5861V4.89943H93.8186C92.1946 4.89943 91.5012 5.89606 91.4832 7.70319V8.31257C91.4832 8.43564 91.4412 8.47467 91.3211 8.47467H91.0149C90.8738 8.47467 90.8528 8.43264 90.8528 8.31257V4.35009C90.8528 4.22701 90.8738 4.18799 91.0359 4.18799H102.311C102.473 4.18799 102.494 4.23001 102.494 4.35009V8.31257C102.494 8.43564 102.473 8.47467 102.332 8.47467H102.026C101.903 8.47467 101.864 8.43264 101.864 8.31257V7.70319C101.843 5.89606 101.152 4.89943 99.5282 4.89943H97.7601V15.5861C97.7601 17.1321 97.7811 17.2522 98.2674 17.2732L99.3241 17.2942C99.4472 17.2942 99.5072 17.3362 99.5072 17.4563V17.7625C99.5072 17.8855 99.4472 17.9036 99.3241 17.9036H94.0198H94.0228Z"
            fill="#2F2725" />
        <path
            d="M113.022 17.9036C112.899 17.9036 112.839 17.8825 112.839 17.7625V17.4563C112.839 17.3332 112.899 17.2942 113.022 17.2942L114.057 17.2732C114.547 17.2522 114.565 17.1321 114.565 15.5861V10.9542H108.51V15.5861C108.51 17.1321 108.531 17.2522 109.038 17.2732L110.074 17.2942C110.197 17.2942 110.236 17.3362 110.236 17.4563V17.7625C110.236 17.8855 110.194 17.9036 110.074 17.9036H104.791C104.667 17.9036 104.607 17.8825 104.607 17.7625V17.4563C104.607 17.3332 104.667 17.2942 104.791 17.2942L105.826 17.2732C106.315 17.2522 106.334 17.1321 106.334 15.5861V6.50544C106.334 4.95947 106.312 4.8394 105.826 4.81838L104.791 4.79737C104.667 4.79737 104.607 4.75534 104.607 4.63527V4.32908C104.607 4.206 104.667 4.18799 104.791 4.18799H110.074C110.197 4.18799 110.236 4.209 110.236 4.32908V4.63527C110.236 4.75834 110.194 4.79737 110.074 4.79737L109.038 4.81838C108.531 4.8394 108.51 4.95947 108.51 6.50544V10.2248H114.565V6.50544C114.565 4.95947 114.544 4.8394 114.057 4.81838L113.022 4.79737C112.899 4.79737 112.839 4.75534 112.839 4.63527V4.32908C112.839 4.206 112.899 4.18799 113.022 4.18799H118.305C118.428 4.18799 118.467 4.209 118.467 4.32908V4.63527C118.467 4.75834 118.425 4.79737 118.305 4.79737L117.269 4.81838C116.762 4.8394 116.741 4.95947 116.741 6.50544V15.5861C116.741 17.1321 116.762 17.2522 117.269 17.2732L118.305 17.2942C118.428 17.2942 118.467 17.3362 118.467 17.4563V17.7625C118.467 17.8855 118.425 17.9036 118.305 17.9036H113.022Z"
            fill="#2F2725" />
        <path
            d="M120.788 17.9036C120.665 17.9036 120.625 17.8825 120.625 17.7625V17.4563C120.625 17.3332 120.668 17.2942 120.788 17.2942L121.844 17.2732C122.334 17.2522 122.352 17.1321 122.352 15.5861V6.50544C122.352 4.95947 122.31 4.8394 121.844 4.81838L120.788 4.79737C120.665 4.79737 120.625 4.75534 120.625 4.63527V4.32908C120.625 4.206 120.668 4.18799 120.788 4.18799H129.991C130.153 4.18799 130.174 4.23001 130.174 4.35009V7.8863C130.174 8.02739 130.153 8.06941 130.012 8.06941H129.706C129.565 8.06941 129.544 8.02739 129.544 7.8863L129.523 7.66416C129.481 5.85703 128.833 4.90243 127.206 4.90243H124.522V10.3869H126.086C127.185 10.3869 127.548 9.79849 127.569 8.92495L127.59 8.72082C127.59 8.59774 127.611 8.55872 127.752 8.55872H128.016C128.157 8.55872 128.178 8.60075 128.178 8.72082V12.8244C128.178 12.9655 128.157 13.0075 128.016 13.0075H127.752C127.611 13.0075 127.59 12.9655 127.59 12.8244L127.569 12.5392C127.548 11.7047 127.182 11.0563 126.086 11.0563H124.522V17.1921H128.037C129.805 17.1921 130.313 15.8923 130.457 14.5114L130.499 14.2052C130.499 14.0642 130.541 14.0221 130.64 14.0221H130.964C131.105 14.0221 131.126 14.0642 131.126 14.2052L130.922 17.7415C130.922 17.8645 130.901 17.9036 130.739 17.9036H120.782H120.788Z"
            fill="#2F2725" />
        <path
            d="M139.681 17.9036C139.558 17.9036 139.519 17.8825 139.519 17.7625V17.4563C139.519 17.3332 139.561 17.2942 139.681 17.2942L140.738 17.2732C141.227 17.2522 141.245 17.1321 141.245 15.5861V6.50544C141.245 4.95947 141.224 4.8394 140.738 4.81838L139.681 4.79737C139.558 4.79737 139.519 4.75534 139.519 4.63527V4.32908C139.519 4.206 139.561 4.18799 139.681 4.18799H145.268C145.391 4.18799 145.43 4.209 145.43 4.32908V4.63527C145.43 4.75834 145.388 4.79737 145.268 4.79737L143.926 4.81838C143.437 4.8394 143.419 4.95947 143.419 6.50544V17.1921H146.712C148.399 17.1921 149.089 15.9133 149.191 13.5358C149.191 13.3947 149.212 13.3527 149.332 13.3527H149.657C149.798 13.3527 149.819 13.3947 149.819 13.5358L149.615 17.7415C149.615 17.8645 149.594 17.9036 149.431 17.9036H139.678H139.681Z"
            fill="#2F2725" />
        <path
            d="M151.956 17.9036C151.833 17.9036 151.794 17.8825 151.794 17.7625V17.4563C151.794 17.3332 151.836 17.2942 151.956 17.2942L153.013 17.2732C153.502 17.2522 153.52 17.1321 153.52 15.5861V6.50544C153.52 4.95947 153.499 4.8394 153.013 4.81838L151.956 4.79737C151.833 4.79737 151.794 4.75534 151.794 4.63527V4.32908C151.794 4.206 151.836 4.18799 151.956 4.18799H157.26C157.383 4.18799 157.422 4.209 157.422 4.32908V4.63527C157.422 4.75834 157.38 4.79737 157.26 4.79737L156.204 4.81838C155.714 4.8394 155.696 4.95947 155.696 6.50544V15.5861C155.696 17.1321 155.717 17.2522 156.204 17.2732L157.26 17.2942C157.383 17.2942 157.422 17.3362 157.422 17.4563V17.7625C157.422 17.8855 157.38 17.9036 157.26 17.9036H151.956Z"
            fill="#2F2725" />
        <path
            d="M159.71 17.9036C159.587 17.9036 159.548 17.8825 159.548 17.7625V17.4563C159.548 17.3332 159.59 17.2942 159.71 17.2942L160.767 17.2732C161.256 17.2522 161.274 17.1321 161.274 15.5861V6.50544C161.274 4.95947 161.253 4.8394 160.767 4.81838L159.71 4.79737C159.587 4.79737 159.548 4.75534 159.548 4.63527V4.32908C159.548 4.206 159.59 4.18799 159.71 4.18799H168.914C169.076 4.18799 169.097 4.23001 169.097 4.35009V8.31257C169.097 8.43564 169.076 8.47467 168.935 8.47467H168.629C168.487 8.47467 168.466 8.43264 168.466 8.31257L168.445 7.70319C168.424 5.89606 167.755 4.89943 166.128 4.89943H163.444V10.7921H165.008C166.107 10.7921 166.47 10.2037 166.491 9.3302L166.512 9.12607C166.512 9.003 166.533 8.96397 166.674 8.96397H166.938C167.08 8.96397 167.101 9.006 167.101 9.12607V13.4338C167.101 13.5568 167.08 13.5959 166.938 13.5959H166.674C166.533 13.5959 166.512 13.5538 166.512 13.4338L166.491 12.9445C166.491 12.0919 166.104 11.4615 165.008 11.4615H163.444V15.5861C163.444 17.1321 163.465 17.2522 163.952 17.2732L165.392 17.2942C165.516 17.2942 165.555 17.3362 165.555 17.4563V17.7625C165.555 17.8855 165.513 17.9036 165.392 17.9036H159.704H159.71Z"
            fill="#2F2725" />
        <path
            d="M171.474 17.9036C171.351 17.9036 171.312 17.8825 171.312 17.7625V17.4563C171.312 17.3332 171.354 17.2942 171.474 17.2942L172.531 17.2732C173.02 17.2522 173.038 17.1321 173.038 15.5861V6.50544C173.038 4.95947 172.996 4.8394 172.531 4.81838L171.474 4.79737C171.351 4.79737 171.312 4.75534 171.312 4.63527V4.32908C171.312 4.206 171.354 4.18799 171.474 4.18799H180.678C180.84 4.18799 180.861 4.23001 180.861 4.35009V7.8863C180.861 8.02739 180.84 8.06941 180.699 8.06941H180.393C180.252 8.06941 180.231 8.02739 180.231 7.8863L180.21 7.66416C180.168 5.85703 179.519 4.90243 177.892 4.90243H175.209V10.3869H176.773C177.871 10.3869 178.235 9.79849 178.256 8.92495L178.277 8.72082C178.277 8.59774 178.298 8.55872 178.439 8.55872H178.703C178.844 8.55872 178.865 8.60075 178.865 8.72082V12.8244C178.865 12.9655 178.844 13.0075 178.703 13.0075H178.439C178.298 13.0075 178.277 12.9655 178.277 12.8244L178.256 12.5392C178.235 11.7047 177.868 11.0563 176.773 11.0563H175.209V17.1921H178.724C180.492 17.1921 180.999 15.8923 181.143 14.5114L181.185 14.2052C181.185 14.0642 181.227 14.0221 181.327 14.0221H181.651C181.792 14.0221 181.813 14.0642 181.813 14.2052L181.609 17.7415C181.609 17.8645 181.588 17.9036 181.426 17.9036H171.468H171.474Z"
            fill="#2F2725" />
    </g>
    <defs>
        <clipPath id="clip0_318_345">
            <rect width="181.638" height="24" fill="white" transform="translate(0.181152)" />
        </clipPath>
    </defs>
</svg>