<svg width="139" height="140" viewBox="0 0 139 140" fill="none" xmlns="http://www.w3.org/2000/svg">
<path d="M106.769 49.8888C108.384 50.3952 109.709 52.1223 109.847 54.9179C110.722 61.6718 106.886 69.256 100.11 71.2816C100.11 71.2816 99.5543 71.4799 99.2633 71.4992L99.2548 71.4968C91.0626 96.3149 58.575 96.4563 50.2373 71.6889H50.2349C50.1185 71.701 49.3485 71.4859 49.3485 71.4859C42.3579 69.4977 38.2254 61.9062 39.1506 54.9167C39.2913 52.0571 40.6761 50.3154 42.3397 49.8549C44.218 49.3352 46.4577 50.4496 47.6739 53.4349C48.998 31.3664 60.5067 32.7007 73.0169 24.0179C72.9624 26.8993 70.5178 31.3978 68.7717 34.2091C77.1858 34.1874 85.7939 31.8922 90.4308 24.6065C99.5349 31.9417 101.421 46.0924 101.321 53.4349C102.563 50.3903 104.867 49.2929 106.768 49.8888H106.769Z" fill="white"/>
<path d="M109.139 32.6935C109.927 34.8461 110.4 37.3214 110.049 39.5211C109.501 42.9657 107.12 46.4176 106.769 49.89C104.868 49.2941 102.564 50.3916 101.322 53.4361C101.423 46.0936 99.5362 31.9429 90.4321 24.6077C85.7952 31.8934 77.187 34.1886 68.7729 34.2103C70.519 31.399 72.9636 26.9005 73.0182 24.0191C60.5079 32.7019 48.9993 31.3676 47.6752 53.4361C46.4589 50.4508 44.2205 49.3364 42.341 49.8561C41.9918 46.3898 39.8394 43.9278 39.221 40.9968C38.3674 36.9539 40.4554 30.5941 42.5993 27.3682C40.63 27.4697 39.3144 26.8159 38.5747 25.9505C51.359 20.2046 42.5217 9.81397 64.7265 6.17839C63.5576 5.60187 60.343 4.73528 60.1866 3.64267C66.7055 3.6052 73.1625 0.857972 78.5148 1.48767C83.8684 2.11737 91.1124 4.948 93.1968 11.1386C95.4195 10.7688 97.9586 11.2341 99.2355 12.0741C106.168 16.6416 104.117 27.0443 112.014 31.0957C111.908 31.4027 110.861 32.6065 109.137 32.6935H109.139Z" fill="#333333"/>
<path d="M96.0926 99.2362C95.9726 100.583 95.8525 101.921 95.7349 103.254C95.5457 103.482 95.2402 103.703 95.2402 103.703C86.1094 110.267 70.0039 113.476 55.4929 104.549C55.4929 104.549 54.5871 104.06 54.364 103.842C54.2294 102.316 54.0911 100.782 53.9541 99.2386C54.0802 99.177 54.2015 99.1166 54.3203 99.0573C57.718 97.3181 59.7163 95.5922 59.9042 92.7338C60.1104 89.9769 60.171 87.2731 59.8958 85.3345C68.9307 91.9892 81.3767 91.7958 90.2274 84.7906L90.1498 85.3345C89.8757 87.2731 89.9351 89.9769 90.1425 92.7338C90.3304 95.5922 92.3276 97.3181 95.7264 99.0573C95.8453 99.1166 95.9677 99.177 96.0914 99.2374L96.0926 99.2362Z" fill="white"/>
<path d="M137.605 140H92.5068C93.5339 128.292 94.5185 116.967 95.5589 105.236C95.6171 104.576 95.6753 103.915 95.7347 103.253C95.7748 102.794 95.816 102.335 95.8572 101.876C95.8912 101.49 95.9251 101.104 95.9603 100.717C95.97 100.608 95.9797 100.498 95.9894 100.389C96.0233 100.006 96.0585 99.6218 96.0925 99.2374C96.3604 99.368 96.643 99.5045 96.9376 99.6447C97.0977 99.7209 97.2626 99.7982 97.4299 99.8768C105.098 103.479 120.216 109.583 123.448 111.082C133.88 115.913 135.876 118.514 137.092 131.241C137.275 134.125 137.446 137.048 137.605 140Z" fill="#999999"/>
<path d="M56.8826 132.495C57.1009 134.984 57.3192 137.484 57.5398 140H12.4414C12.6003 137.048 12.7712 134.125 12.9543 131.241C14.1705 118.514 16.1665 115.913 26.5983 111.082C29.2963 109.831 40.2702 105.372 48.2854 101.838C48.9111 101.563 49.5174 101.292 50.1006 101.03C50.7251 100.749 51.3217 100.479 51.8856 100.218C52.1354 100.102 52.3803 99.988 52.6168 99.8768C52.7841 99.7982 52.949 99.7209 53.1091 99.6447C53.4037 99.5045 53.6863 99.368 53.9542 99.2374C53.9882 99.6218 54.0221 100.006 54.0573 100.389C54.067 100.497 54.0755 100.604 54.0864 100.712C54.1361 101.276 54.1858 101.84 54.2368 102.402C54.2792 102.883 54.3217 103.363 54.3641 103.841C54.4174 104.447 54.472 105.052 54.5254 105.655C54.991 110.914 55.4469 116.092 55.9004 121.262C55.9053 121.322 55.9101 121.382 55.9162 121.441C55.9526 121.857 55.9889 122.272 56.0253 122.687L56.0435 122.905C56.0787 123.303 56.1138 123.699 56.1478 124.097C56.1563 124.182 56.1636 124.268 56.1708 124.354C56.2278 125.009 56.286 125.664 56.343 126.319C56.4315 127.338 56.5213 128.358 56.611 129.378C56.7007 130.417 56.7917 131.455 56.8826 132.495Z" fill="#999999"/>
<path d="M95.735 103.253C95.6755 103.915 95.6174 104.576 95.5591 105.236C94.5187 116.967 93.5341 128.292 92.5071 140H57.5398C57.3191 137.484 57.1008 134.984 56.8826 132.496C56.7916 131.455 56.7007 130.417 56.6109 129.378C56.5212 128.358 56.4315 127.338 56.3429 126.319C56.286 125.664 56.2278 125.009 56.1708 124.354C56.1635 124.268 56.1562 124.183 56.1477 124.097C56.1138 123.699 56.0786 123.303 56.0434 122.905L56.0252 122.687C55.9889 122.272 55.9525 121.857 55.9161 121.441C55.9101 121.382 55.9052 121.322 55.9003 121.262C55.4468 116.092 54.9909 110.914 54.5253 105.655C54.4719 105.052 54.4174 104.447 54.364 103.841C54.5871 104.059 55.4929 104.548 55.4929 104.548C55.6093 104.62 55.7245 104.69 55.8409 104.76C59.1671 106.759 62.5744 108.126 65.9575 108.965C66.16 109.015 66.3638 109.065 66.5663 109.111C67.0028 109.211 67.4381 109.303 67.8734 109.386C68.1511 109.44 68.4288 109.489 68.7065 109.535C69.1042 109.602 69.5019 109.662 69.8984 109.714C70.6757 109.818 71.4505 109.895 72.2205 109.947C72.8499 109.991 73.4768 110.016 74.0988 110.027C81.8618 110.155 89.0294 107.81 94.2399 104.39C94.5818 104.165 94.9153 103.935 95.2402 103.702C95.2402 103.702 95.547 103.482 95.735 103.253Z" fill="white"/>
<path d="M58.5522 85.7031C58.7196 86.9407 58.7062 88.4854 58.6662 89.8318C58.625 91.2205 58.6686 92.6395 58.2879 93.7925C58.2782 93.8215 58.1569 94.1454 58.2103 94.0185C58.2636 93.8916 58.1206 94.2034 58.106 94.2312C57.9884 94.4597 57.8538 94.6772 57.7071 94.8875C57.5834 95.0652 57.5494 95.099 57.3312 95.3311C57.1578 95.5148 56.9747 95.6901 56.7855 95.8581C55.9149 96.6268 54.7265 97.2843 53.617 97.8559C52.0225 98.6778 53.4315 101.077 55.0248 100.256C57.4803 98.9909 59.9588 97.3737 60.9325 94.6639C61.46 93.1979 61.4042 91.4804 61.4527 89.9442C61.5061 88.2751 61.4661 86.6192 61.2417 84.9634C61.1411 84.2189 60.1819 83.8128 59.5259 83.9929C58.7196 84.2141 58.4516 84.9562 58.5522 85.7031Z" fill="#333333"/>
<path d="M52.5596 99.2363C52.516 98.7408 52.6991 98.3842 52.9913 98.1642C52.9925 98.1642 52.9937 98.163 52.9949 98.1618C53.1113 98.0748 53.2471 98.0095 53.3914 97.9672C53.4144 97.96 53.4386 97.9527 53.4629 97.9467C54.063 97.8017 54.8026 98.0253 55.153 98.6139C55.2573 98.7891 55.3264 98.9958 55.3482 99.2363C55.3701 99.4829 55.3919 99.7306 55.4137 99.9772C55.4161 100.001 55.4186 100.024 55.421 100.049C55.5107 101.052 55.5992 102.055 55.6889 103.058C55.7398 103.625 55.7896 104.193 55.8405 104.76C55.8526 104.898 55.8647 105.034 55.8769 105.172C55.9144 105.601 55.9532 106.031 55.9908 106.46C56.4103 111.203 56.8274 115.945 57.2433 120.687C57.2748 121.041 57.3051 121.395 57.3366 121.751C57.3488 121.889 57.3609 122.026 57.373 122.165C57.4021 122.5 57.4312 122.835 57.4603 123.171L57.5003 123.624C57.5015 123.637 57.5027 123.651 57.5039 123.665C57.5306 123.972 57.5585 124.279 57.5852 124.587C57.6422 125.239 57.6991 125.892 57.7561 126.544C57.8446 127.555 57.9331 128.565 58.0216 129.576C58.326 133.05 58.6291 136.525 58.9346 140H56.146C56.0126 138.482 55.8793 136.964 55.7459 135.446C55.655 134.398 55.5628 133.35 55.4707 132.303C55.3798 131.26 55.2888 130.219 55.1979 129.175C55.0476 127.453 54.896 125.73 54.7457 124.007C54.7287 123.818 54.7117 123.629 54.6947 123.439C54.6681 123.131 54.6414 122.822 54.6135 122.513C54.6062 122.417 54.5977 122.321 54.5892 122.225C54.5541 121.818 54.5177 121.414 54.4813 121.007C53.9952 115.443 53.5053 109.878 53.0119 104.314C52.9888 104.061 52.967 103.809 52.944 103.556L52.7476 101.344C52.7039 100.855 52.6603 100.366 52.6166 99.8769C52.5972 99.663 52.579 99.4502 52.5596 99.2363Z" fill="#333333"/>
<path d="M129.772 124.699C127.96 129.72 126.509 134.858 125.074 140H122.179C123.68 134.612 125.183 129.223 127.083 123.959C127.339 123.251 128.025 122.777 128.799 122.988C129.485 123.177 130.027 123.992 129.772 124.699Z" fill="#333333"/>
<path d="M96.4297 97.856C95.2656 97.2565 94.0518 96.5821 93.146 95.7541C92.3348 95.012 91.8546 94.3159 91.6243 93.3139C91.5394 92.9465 91.5624 93.0589 91.5357 92.7325C91.4969 92.2636 91.469 91.7934 91.4436 91.3233C91.3951 90.4591 91.3635 89.5925 91.3599 88.7271C91.3538 87.51 91.4108 86.282 91.5721 85.1592C91.6776 84.4171 91.389 83.6666 90.5984 83.449C89.9448 83.2701 88.9893 83.6714 88.8826 84.4195C88.6728 85.8904 88.56 87.3481 88.5722 88.8347C88.5855 90.5763 88.531 92.4944 88.9699 94.1926C89.7363 97.1562 92.4561 98.9341 95.0231 100.256C96.6152 101.077 98.0279 98.679 96.4309 97.856H96.4297Z" fill="#333333"/>
<path d="M91.1113 140C92.1019 128.721 93.084 117.44 94.0818 106.159C94.1351 105.57 94.1873 104.98 94.2394 104.39C94.2916 103.795 94.3449 103.199 94.3982 102.605C94.3982 102.601 94.3982 102.596 94.3995 102.593C94.4746 101.744 94.5498 100.897 94.625 100.048C94.6274 100.024 94.6298 100.001 94.6322 99.9771C94.6541 99.7306 94.6759 99.4828 94.6977 99.2363C94.7195 98.9957 94.7887 98.7891 94.8929 98.6138C95.2433 98.0228 95.9853 97.8004 96.5879 97.949C96.6134 97.9551 96.6388 97.9623 96.6631 97.9696C96.7989 98.0107 96.925 98.0711 97.0365 98.1521C97.3384 98.3697 97.5312 98.731 97.4863 99.2363C97.4669 99.4502 97.4487 99.6629 97.4293 99.8768C97.3845 100.371 97.3408 100.865 97.2972 101.36C97.1917 102.541 97.0862 103.723 96.9819 104.904C95.9453 116.602 94.9269 128.302 93.9011 140H91.1113Z" fill="#333333"/>
<path d="M53.1161 104.489C53.8037 105.4 55.1521 105.988 56.1294 106.535C57.73 107.433 59.3985 108.208 61.1083 108.877C64.2768 110.118 67.6029 110.885 70.9872 111.231C77.0016 111.846 83.2355 110.976 88.8437 108.722C90.3073 108.133 91.7394 107.472 93.1145 106.7C94.3283 106.018 95.7712 105.268 96.7207 104.235C97.2288 103.682 97.27 102.817 96.7207 102.27C96.2053 101.756 95.2595 101.714 94.749 102.27C94.6302 102.399 94.5065 102.51 94.3743 102.626C94.7393 102.305 94.3731 102.618 94.2955 102.674C94.0506 102.846 93.802 103.014 93.551 103.18C93.0368 103.517 92.513 103.84 91.9795 104.146C90.8894 104.772 89.7629 105.333 88.6085 105.832C86.2803 106.839 83.5678 107.622 80.9728 108.092C75.2252 109.134 69.1744 108.691 63.6014 106.832C61.911 106.269 60.274 105.574 58.6916 104.757C57.8404 104.317 57.0243 103.827 56.1949 103.347C56.047 103.261 55.8954 103.181 55.7474 103.094C55.642 103.033 55.5377 102.967 55.4334 102.904C55.0914 102.699 55.3812 102.898 55.5231 103.086C55.0708 102.487 54.319 102.177 53.6157 102.587C53.024 102.932 52.6602 103.885 53.1149 104.488L53.1161 104.489Z" fill="#333333"/>
<path d="M110.999 53.1073C110.458 50.742 108.744 48.6632 106.23 48.3755C103.197 48.0286 101.034 50.5402 99.9778 53.0638C99.6879 53.7576 100.291 54.5927 100.951 54.774C101.754 54.994 102.376 54.4985 102.667 53.8035C102.824 53.4288 103.116 52.92 103.397 52.5272C103.418 52.5006 103.499 52.393 103.52 52.3688C103.594 52.283 103.669 52.1984 103.746 52.1162C103.837 52.022 103.931 51.9301 104.028 51.8419C104.057 51.8153 104.188 51.7101 104.215 51.6848C104.35 51.5881 104.491 51.4974 104.638 51.4164C104.698 51.3838 104.759 51.3524 104.821 51.3222C104.834 51.3197 104.992 51.2533 105.031 51.2424C105.175 51.2037 105.319 51.1675 105.465 51.136C105.348 51.1699 105.81 51.1239 105.919 51.1239C105.955 51.1239 106.016 51.1348 106.065 51.1433C106.039 51.1372 106.006 51.13 105.962 51.1191C106.03 51.1348 106.099 51.1409 106.166 51.1614C106.249 51.1868 106.554 51.2944 106.529 51.2714C106.686 51.3524 106.831 51.4479 106.988 51.53C106.996 51.5349 107.007 51.5409 107.018 51.5494C107.117 51.6328 107.214 51.7198 107.305 51.8117C107.36 51.8673 107.411 51.9241 107.464 51.9809C107.487 52.0062 107.504 52.0232 107.518 52.0365C107.525 52.0473 107.533 52.0582 107.543 52.0727C107.664 52.2444 107.775 52.4208 107.874 52.6057C107.924 52.6988 107.971 52.7931 108.016 52.8886C108.028 52.9188 108.057 52.9889 108.064 53.007C108.172 53.3043 108.26 53.6077 108.328 53.9171C108.425 54.3631 108.454 54.8284 108.508 55.3929C108.565 55.9827 108.586 56.5761 108.574 57.1683C108.548 58.377 108.417 59.3125 108.113 60.4993C107.552 62.687 106.51 64.7876 105.035 66.4519C104.179 67.4188 103.304 68.1742 102.245 68.8148C101.964 68.9852 101.64 69.1629 101.331 69.3164C101.486 68.6854 101.626 68.0509 101.748 67.414C101.891 66.6779 101.541 65.914 100.774 65.7037C100.092 65.5164 99.2029 65.9334 99.0586 66.6743C98.7822 68.1053 98.4281 69.5206 97.9806 70.9081C97.5356 72.2896 97.1185 73.3399 96.5643 74.5026C96.009 75.6641 95.3796 76.7906 94.6739 77.8687C94.3344 78.3884 93.9767 78.896 93.602 79.3916C93.5692 79.4351 93.5365 79.4786 93.5026 79.5209C93.4965 79.5281 93.4916 79.5342 93.4832 79.5451C93.3946 79.6562 93.3061 79.7674 93.2164 79.8774C93.0127 80.1276 92.8041 80.373 92.5919 80.6159C91.811 81.5043 90.9707 82.3394 90.0758 83.1129C89.8709 83.2894 89.6635 83.4635 89.4525 83.6339C89.3482 83.7185 89.2415 83.8019 89.136 83.8853C89.1324 83.8877 89.13 83.8901 89.1275 83.8925C89.0572 83.9457 88.9869 83.9989 88.9153 84.0521C88.457 84.3929 87.9877 84.718 87.5063 85.0262C86.5593 85.6342 85.571 86.1781 84.55 86.653C84.3475 86.7473 84.1426 86.838 83.9377 86.9274C83.9134 86.9371 83.7716 86.9975 83.7085 87.0229C83.5545 87.0857 83.3993 87.1462 83.2429 87.2054C82.7263 87.4024 82.2025 87.5825 81.6726 87.7444C80.6382 88.0611 79.5833 88.3113 78.5162 88.4914C78.3901 88.5131 78.264 88.5337 78.1367 88.553C78.0882 88.5603 77.8675 88.5905 77.8299 88.5965C77.6032 88.6243 77.3764 88.6509 77.1484 88.6739C76.604 88.7271 76.0571 88.7633 75.5102 88.7802C74.4165 88.8153 73.3203 88.7803 72.2314 88.6715C72.1041 88.6594 71.9768 88.6461 71.8506 88.6316C71.8106 88.6268 71.6494 88.6062 71.5754 88.5977C71.3377 88.5639 71.1013 88.5289 70.8648 88.489C70.3228 88.3971 69.7844 88.2871 69.2509 88.1602C68.1765 87.904 67.1191 87.5764 66.0884 87.18C65.9672 87.1341 65.8471 87.0857 65.7271 87.0374C65.6713 87.0156 65.6155 86.9915 65.5598 86.9697C65.2991 86.8573 65.0408 86.7425 64.7837 86.6216C64.2756 86.3835 63.7773 86.1273 63.2862 85.8553C62.2894 85.303 61.3424 84.6769 60.4269 84.0013C60.3881 83.9735 60.3638 83.9554 60.3481 83.9433C60.3384 83.9348 60.3226 83.9227 60.2971 83.9034C60.1916 83.82 60.0849 83.7366 59.9807 83.652C59.7393 83.4574 59.5029 83.258 59.2689 83.0549C58.8263 82.6694 58.397 82.2681 57.9811 81.8523C57.5737 81.4438 57.1784 81.022 56.7988 80.5881C56.6 80.3597 56.4047 80.1288 56.2132 79.8944C56.1234 79.7844 56.0349 79.6732 55.9464 79.562C55.9391 79.5523 55.9246 79.5342 55.91 79.516C55.87 79.4641 55.83 79.4109 55.79 79.3577C55.0321 78.3509 54.3458 77.2909 53.7322 76.1923C53.4133 75.6206 53.1138 75.0392 52.8337 74.4482C52.6906 74.1461 52.5536 73.8415 52.419 73.5357C52.402 73.4982 52.3862 73.4596 52.3693 73.4209C52.3571 73.3907 52.3292 73.3242 52.322 73.3073C52.2528 73.1393 52.185 72.9701 52.1183 72.8009C51.6017 71.4834 51.1749 70.131 50.8281 68.7592C50.6462 68.0364 50.4873 67.3088 50.3467 66.5776C50.206 65.8403 49.316 65.4197 48.6309 65.607C47.856 65.8198 47.5153 66.5764 47.6572 67.3173C47.8027 68.0787 47.9724 68.8353 48.1652 69.5847C48.0428 69.5291 47.9179 69.4686 47.7869 69.4022C46.721 68.8655 45.8165 68.2419 44.9786 67.4683C43.2737 65.8935 41.9811 63.8702 41.2414 61.7164C40.435 59.3669 40.3307 57.2312 40.5514 54.7462C40.6375 53.7817 40.8424 52.9744 41.3808 52.1767C41.4051 52.1416 41.6549 51.8358 41.4536 52.0727C41.5033 52.0135 41.5542 51.9519 41.6088 51.8975C41.6912 51.8177 41.7701 51.7355 41.8537 51.657C41.8562 51.6545 41.9265 51.5989 41.9762 51.5566C42.0271 51.5216 42.095 51.4745 42.0975 51.4732C42.1896 51.4189 42.2818 51.3657 42.3764 51.3137C42.3824 51.3101 42.4406 51.2859 42.4915 51.2629C42.5667 51.24 42.7062 51.194 42.7268 51.188C42.8274 51.1614 42.9293 51.1445 43.0311 51.1203C42.9887 51.13 42.956 51.1372 42.9305 51.1433C42.9766 51.1348 43.0372 51.1239 43.0724 51.1239C43.1912 51.1239 43.692 51.1747 43.5065 51.1312C43.7235 51.1759 43.9321 51.2327 44.1431 51.3065C44.1455 51.3077 44.1467 51.3089 44.1492 51.3101C44.2838 51.3874 44.4244 51.4527 44.5578 51.5349C44.6257 51.5772 44.6924 51.6219 44.7579 51.6678C44.7712 51.6775 44.7821 51.6848 44.7918 51.6932C44.85 51.7416 44.907 51.7899 44.964 51.8407C45.1617 52.0195 45.3472 52.2141 45.5169 52.4208C45.54 52.4498 45.5582 52.4704 45.5727 52.4873C45.5861 52.509 45.6079 52.5429 45.6443 52.5949C45.7291 52.7193 45.8104 52.8438 45.888 52.9732C46.042 53.2282 46.2384 53.5944 46.3245 53.8023C46.6143 54.4948 47.2485 54.9904 48.0403 54.7728C48.6963 54.5927 49.3063 53.76 49.014 53.0626C48.0149 50.6743 46.1742 48.4577 43.3864 48.3429C40.8715 48.2389 38.9629 50.1727 38.1942 52.4027C37.7467 53.7008 37.6558 55.1971 37.6267 56.5616C37.5951 58.0301 37.771 59.5179 38.1129 60.9465C38.7932 63.7905 40.2095 66.47 42.1957 68.6226C43.2882 69.8071 44.5917 70.8392 46.0105 71.6103C46.9648 72.1289 48.0791 72.6582 49.1984 72.9205C50.4837 76.4292 52.3426 79.7167 54.8223 82.5546C58.026 86.2204 62.253 88.9628 66.9094 90.4059C71.3923 91.7958 76.2463 91.9336 80.8116 90.8591C85.5274 89.7496 89.8988 87.2888 93.3304 83.8865C96.494 80.7501 98.8137 76.8655 100.309 72.6897C102.647 72.1083 104.869 70.6168 106.505 68.9513C108.494 66.9257 109.916 64.3573 110.687 61.6355C111.455 58.9245 111.622 55.8654 110.992 53.1061L110.999 53.1073ZM107.041 51.5699C107.085 51.6026 107.12 51.6328 107.041 51.5699V51.5699ZM44.1067 51.2835C44.0145 51.2303 44.0546 51.2557 44.1067 51.2835V51.2835Z" fill="#333333"/>
<path d="M106.065 51.1457C106.131 51.1589 106.168 51.1685 106.065 51.1457V51.1457Z" fill="#333333"/>
<path d="M42.936 51.1445C42.8364 51.1661 42.8724 51.1565 42.936 51.1445V51.1445Z" fill="#333333"/>
<path d="M112.72 29.8943C111.038 29.0156 109.785 27.8154 108.83 26.2937C107.792 24.6403 107.265 23.2033 106.611 21.4072C105.316 17.8575 104.023 14.0684 100.959 11.6209C98.9883 10.0472 96.5595 9.50819 94.1004 9.66047C92.3094 5.72636 88.6741 3.1157 84.6604 1.57227C82.6863 0.81325 80.6177 0.339464 78.5187 0.0977371C75.7661 -0.218926 72.959 0.291119 70.2622 0.809624C66.9252 1.45141 63.6051 2.21648 60.1905 2.25153C59.2398 2.2612 58.6626 3.12779 58.8457 4.0113C58.9961 4.73649 59.5454 5.2695 60.1711 5.67439C55.9282 6.70898 51.7375 8.42404 48.8977 11.7442C47.7045 13.1389 46.8072 14.7077 45.9729 16.3334C45.5909 17.0767 45.2151 17.8236 44.8028 18.5512C44.5894 18.9283 44.3662 19.2994 44.1286 19.6619C44.0158 19.8348 43.9006 20.0052 43.7818 20.1732C43.7127 20.2711 43.6411 20.3666 43.572 20.4633C43.5514 20.4911 43.5381 20.5104 43.5259 20.5273C43.5223 20.5322 43.5187 20.5358 43.5138 20.5418C42.8457 21.3492 42.129 22.0828 41.3154 22.7428C41.2875 22.7609 41.0753 22.9253 41.0328 22.9555C40.9116 23.0425 40.7891 23.1283 40.6654 23.2117C40.3914 23.3978 40.1101 23.5743 39.8251 23.7435C39.1946 24.117 38.541 24.4469 37.8741 24.7491C37.001 25.1443 37.058 26.3252 37.5915 26.9319C38.3421 27.7852 39.2831 28.2904 40.3077 28.5454C39.2249 30.6593 38.4719 32.9908 38.0281 35.2787C37.7286 36.827 37.5321 38.4381 37.6825 40.0142C37.8425 41.6954 38.4149 43.205 39.1194 44.7291C39.9052 46.4284 40.7055 48.0758 40.9686 49.9516C41.0729 50.6961 42.026 51.1022 42.6844 50.9221C43.4883 50.7022 43.7636 49.9589 43.6581 49.2119C43.4204 47.5174 42.7571 45.951 42.0369 44.41C41.4282 43.1083 40.7964 41.8284 40.526 40.4058C40.4823 40.1749 40.469 40.0517 40.4472 39.6975C40.4241 39.3422 40.4193 38.9856 40.4266 38.6303C40.4423 37.9136 40.5078 37.2283 40.6206 36.5551C40.874 35.0406 41.2875 33.5528 41.8138 32.1109C42.2466 30.9277 42.7765 29.7637 43.4326 28.6687C44.5409 28.5261 45.631 28.2227 46.5925 27.8577C47.2958 27.5906 47.7797 26.921 47.5663 26.1475C47.3807 25.4755 46.5586 24.9086 45.8504 25.177C44.4645 25.7027 43.0191 26.1185 41.5349 25.9541C42.7681 25.1939 43.9103 24.2874 44.8852 23.2141C46.1184 21.8568 47.0582 20.2965 47.8973 18.6769C48.6733 17.1782 49.4106 15.6529 50.411 14.2835C50.4643 14.2098 50.5201 14.1373 50.5759 14.0635C50.5989 14.0345 50.6292 13.9959 50.6632 13.956C50.8111 13.7771 50.9615 13.5994 51.1167 13.4278C51.4441 13.0664 51.7909 12.7232 52.1547 12.3992C52.3354 12.2397 52.5233 12.0886 52.7076 11.9339C52.7246 11.9194 52.7367 11.9097 52.7452 11.9025C52.761 11.8916 52.7804 11.8771 52.8058 11.859C52.9247 11.7732 53.0423 11.6861 53.1623 11.6015C53.6437 11.2643 54.1445 10.9561 54.6587 10.6733C54.9582 10.5077 55.2613 10.3518 55.5693 10.2032C55.7512 10.1149 55.9343 10.0291 56.1186 9.94692C56.1683 9.92517 56.4448 9.80551 56.4703 9.79342C57.239 9.47434 58.0272 9.19877 58.8215 8.951C60.8732 8.31163 62.9818 7.86927 65.1014 7.51756C65.441 7.46075 65.7102 7.23836 65.8872 6.95071C65.903 6.92654 65.9199 6.90357 65.9345 6.87819C66.0291 6.71744 66.0848 6.53252 66.1055 6.34035C66.1297 6.15784 66.1212 5.97534 66.0751 5.80734C66.0582 5.74812 66.0388 5.69131 66.0157 5.63813C65.909 5.35652 65.715 5.11237 65.4337 4.977C65.19 4.86098 64.9426 4.75462 64.6928 4.65309C66.1333 4.444 67.5666 4.17084 68.9926 3.88802C71.5791 3.37556 74.191 2.78091 76.8417 2.78454C78.7867 2.78695 80.5789 3.15196 82.5906 3.78891C84.5101 4.39686 86.2768 5.23565 87.9817 6.45758C89.6817 7.67589 91.1684 9.51906 91.8547 11.5073C92.1215 12.2796 92.7823 12.5999 93.5705 12.4778C94.674 12.3074 95.855 12.3775 96.9379 12.6398C97.8388 12.8573 98.6003 13.2574 99.2151 13.7735C99.5485 14.0527 99.8638 14.3536 100.16 14.6727C100.5 15.0401 100.668 15.248 100.88 15.5453C101.387 16.2548 101.819 17.015 102.199 17.797C102.918 19.274 103.486 20.9794 104.12 22.6908C104.765 24.4312 105.459 26.1838 106.459 27.7574C107.307 29.0917 108.363 30.2677 109.609 31.2129C109.523 31.2371 109.437 31.2564 109.35 31.2757C109.162 31.2419 108.962 31.2467 108.757 31.3011C108.717 31.2987 108.677 31.2963 108.637 31.2939C108.63 31.2878 108.39 31.2528 108.36 31.2455C107.56 31.0606 106.837 30.6255 106.173 30.0731C105.596 29.5921 104.768 29.5087 104.201 30.0731C103.705 30.5675 103.62 31.5549 104.201 32.0384C105.336 32.9823 106.679 33.7764 108.115 34.0133C108.442 35.0612 108.682 36.1393 108.75 37.2331C108.839 38.6859 108.59 40.0275 108.126 41.4017C107.165 44.2529 105.701 46.8865 105.371 49.9202C105.29 50.6671 106.071 51.3101 106.766 51.3101C107.587 51.3101 108.079 50.6695 108.16 49.9202C108.479 46.9868 110.164 44.3459 111.004 41.554C111.787 38.9506 111.642 36.271 110.924 33.6978C111.967 33.2736 112.951 32.5134 113.361 31.4655C113.575 30.9228 113.224 30.159 112.721 29.8955L112.72 29.8943ZM50.5468 14.101C50.5359 14.1143 50.5371 14.1131 50.5468 14.101V14.101ZM61.4782 3.17493C61.4782 3.17493 61.4782 3.18701 61.4831 3.20514C61.3873 3.17976 61.4103 3.06978 61.4782 3.17493ZM110.787 30.4394C110.804 30.4031 110.807 30.3898 110.787 30.4394V30.4394Z" fill="#333333"/>
<path d="M55.4139 99.9771C55.312 100.083 55.1823 100.178 55.0234 100.256C54.9955 100.271 54.9664 100.284 54.9386 100.297C54.656 100.438 54.3711 100.577 54.0861 100.712C53.6411 100.926 53.1949 101.136 52.7474 101.344C52.6686 101.38 52.5886 101.418 52.5098 101.454C52.0599 101.662 51.6088 101.867 51.1577 102.072C50.5611 102.342 49.9633 102.61 49.3643 102.874C48.7653 103.139 48.1651 103.402 47.5636 103.662C40.8968 106.553 34.1318 109.199 27.6093 112.142C25.5904 113.052 23.5775 114.029 21.6919 115.196C20.1786 116.134 18.9636 117.037 17.8141 118.498H17.8129C17.8129 118.498 17.8104 118.501 17.8104 118.502C17.8104 118.501 17.8129 118.501 17.8129 118.501C17.7995 118.52 17.6916 118.665 17.6686 118.698C17.597 118.8 17.5243 118.902 17.4539 119.005C17.3375 119.179 17.226 119.355 17.118 119.535C16.9095 119.883 16.7191 120.242 16.5433 120.609C16.3456 121.023 16.2838 121.172 16.0898 121.713C15.9261 122.169 15.7818 122.633 15.652 123.1C15.0069 125.425 14.6977 127.833 14.4491 130.227C14.1133 133.468 14.0053 136.745 13.8344 140H11.0103C11.2225 135.058 11.4747 130.092 12.3283 125.235C13.0159 121.328 14.3752 117.554 17.4406 114.874C20.4126 112.275 24.1559 110.607 27.756 109.062C34.8145 106.031 42.0112 103.246 49.0042 100.048C49.6214 99.7668 50.2362 99.4816 50.8497 99.1915C51.4536 98.9075 52.0562 98.6198 52.6565 98.3273L52.9911 98.1641C52.9911 98.1641 52.9936 98.1629 52.9948 98.1617C53.127 98.0977 53.2591 98.0324 53.3913 97.9671C53.4665 97.9309 53.5417 97.8934 53.6168 97.8559C54.4002 97.468 55.1374 97.8414 55.4988 98.418C55.8056 98.905 55.8431 99.5372 55.4139 99.9771Z" fill="#333333"/>
<path d="M120.672 111.372C113.025 108.098 104.968 105.004 97.298 101.36C96.8505 101.147 96.4043 100.933 95.9605 100.717C95.6755 100.578 95.3918 100.439 95.108 100.297C95.0802 100.284 95.051 100.271 95.0232 100.256C94.8643 100.178 94.7346 100.082 94.6327 99.9771C94.2034 99.5371 94.241 98.9062 94.5478 98.4191C94.9104 97.8414 95.6476 97.4679 96.431 97.8559C96.5086 97.8946 96.5862 97.9321 96.6638 97.9695C96.7875 98.0312 96.9124 98.0928 97.0373 98.152C97.669 98.4602 98.3056 98.7588 98.9446 99.0537C107.181 102.856 115.687 106.036 123.943 109.785C127.687 111.486 131.754 113.406 134.346 116.713C137.131 120.266 137.789 124.905 138.282 129.258C138.662 132.604 138.782 135.985 138.965 139.347C138.977 139.565 138.989 139.782 139 140H136.211C136.129 138.466 136.042 136.932 135.953 135.399C135.778 132.423 135.601 129.452 135.12 126.507C134.937 125.385 134.715 124.269 134.414 123.173C134.279 122.681 134.129 122.193 133.957 121.713C133.768 121.184 133.719 121.065 133.531 120.668C133.178 119.92 132.756 119.203 132.262 118.538H132.26C132.26 118.538 131.961 118.169 131.9 118.101C131.762 117.942 131.62 117.788 131.475 117.636C131.191 117.343 130.893 117.064 130.585 116.795C129.259 115.648 127.313 114.534 125.533 113.627C123.94 112.816 122.315 112.076 120.672 111.372Z" fill="#333333"/>
<path d="M101.535 42.0194C100.585 37.6163 99.0211 33.241 96.5595 29.4435C95.3384 27.5604 93.8979 25.8128 92.2257 24.314C93.1546 22.6413 93.8433 20.8344 94.3308 18.9912C94.7891 17.2592 92.0996 16.5208 91.6413 18.2527C91.1562 20.0862 90.4614 21.8073 89.5326 23.3774C89.4659 23.4233 89.4016 23.4753 89.3398 23.5369C89.1506 23.7254 89.0209 23.9913 88.9651 24.273C87.995 25.7088 86.8091 27.0008 85.3855 28.1164C85.3552 28.1382 85.2352 28.2312 85.2134 28.247C85.1139 28.3207 85.0133 28.3944 84.9114 28.4657C84.7501 28.5805 84.5865 28.6941 84.4203 28.8041C84.0068 29.0797 83.5836 29.3396 83.152 29.5837C82.3844 30.0176 81.4337 30.4745 80.7862 30.7343C78.9928 31.4523 77.1169 31.955 75.2156 32.2923C74.1109 32.4881 73.3506 32.5823 72.1999 32.6766C71.8846 32.702 71.5706 32.7237 71.2553 32.7419C71.8167 31.7387 72.3418 30.7162 72.8111 29.6683C73.6101 27.8832 74.3498 25.9953 74.4129 24.0167C74.4444 23.0148 73.1845 22.2146 72.3151 22.8165C67.9607 25.8285 63.0752 27.8276 58.5171 30.4805C56.4678 31.6734 54.495 33.0634 52.8483 34.7772C50.9615 36.7413 49.5743 39.0606 48.5703 41.5794C47.0752 45.3335 46.5283 49.4271 46.2809 53.4337C46.2348 54.1843 46.9551 54.8237 47.6754 54.8237C48.4684 54.8237 49.0238 54.1855 49.0699 53.4337C49.2833 49.9795 49.761 46.5203 50.9154 43.2377C51.3507 41.9988 51.7569 41.0827 52.4784 39.8487C52.7816 39.3314 53.109 38.8274 53.4618 38.3427C53.5358 38.24 53.6122 38.1396 53.6886 38.0381C53.7165 38.0031 53.8074 37.8882 53.8438 37.8435C54.0354 37.6091 54.233 37.3782 54.4355 37.1534C55.1825 36.3267 56.007 35.5882 56.874 34.8908C56.8789 34.8872 56.8813 34.8848 56.885 34.8812C56.9335 34.8449 56.9808 34.8086 57.0293 34.7724C57.1323 34.695 57.2366 34.6189 57.3409 34.5439C57.5798 34.3711 57.8223 34.2019 58.0684 34.0375C58.5316 33.7257 59.0058 33.4272 59.4847 33.1395C61.5255 31.9164 63.6742 30.8806 65.795 29.8037C67.5266 28.925 69.24 28.0137 70.9049 27.0202C70.706 27.558 70.4853 28.0886 70.244 28.6095C69.4631 30.2992 68.5452 31.9248 67.5654 33.5069C67.0076 34.4086 67.7303 35.6027 68.7695 35.5979C76.9193 35.5628 85.5311 33.3607 90.6724 26.6733C93.385 29.2501 95.3979 32.4953 96.7644 35.8892C97.5817 37.9185 98.2171 40.0191 98.7058 42.1511C98.9338 43.1434 99.129 44.1417 99.2939 45.1461C99.4637 46.1759 99.5376 46.7161 99.6492 47.7761C99.8468 49.6543 99.9475 51.5434 99.9244 53.4325C99.9026 55.2225 102.692 55.2225 102.713 53.4325C102.761 49.6084 102.336 45.7553 101.53 42.0182L101.535 42.0194Z" fill="#333333"/>
<path d="M102.103 50.7566C101.17 50.5886 100.236 50.4194 99.3012 50.2514C99.2309 49.7861 98.7992 49.4283 98.3845 49.2736C97.2216 48.8373 95.9241 48.7346 94.7322 48.3768C94.7176 48.372 94.7043 48.3708 94.6909 48.3659C93.7257 47.8595 92.6199 47.5513 91.628 47.2854C89.8297 46.802 87.875 46.6883 86.0185 46.7633C82.8003 46.895 78.777 47.8668 77.2212 50.7203C75.6425 50.1861 73.8321 50.226 72.2557 50.759C71.8083 49.9154 71.1438 49.1866 70.2998 48.6028C68.7271 47.5175 66.7639 47.0944 64.8965 46.8757C63.0013 46.6533 61.083 46.7282 59.1986 47.0086C58.0612 47.1778 56.9395 47.4957 55.8688 47.9115C55.5293 48.0432 55.191 48.1846 54.8648 48.3454C54.8236 48.3538 54.7824 48.3635 54.7399 48.3768C53.548 48.7346 52.2505 48.8373 51.0876 49.2736C50.679 49.4271 50.2437 49.7885 50.1721 50.2514C49.2384 50.4206 48.3035 50.5886 47.3698 50.7578C46.6277 50.892 46.2094 51.79 46.3961 52.468C46.6108 53.2464 47.3674 53.5727 48.1119 53.4386C49.0468 53.2694 49.9817 53.1014 50.9166 52.9322C51.1143 53.105 51.3435 53.2428 51.5678 53.3757C51.6818 53.4434 51.7933 53.5123 51.9049 53.5836C51.8334 53.5389 51.9692 53.7468 51.8988 53.5401C51.9073 53.5643 51.917 53.5872 51.9267 53.6102C51.9243 53.7444 51.9231 53.8785 51.9243 54.0091C51.968 56.4747 52.8301 59.3101 54.5653 61.1328C57.3494 64.0565 62.1003 64.8723 65.8314 63.579C70.2064 62.0622 73.1894 58.0145 72.9069 53.3395C72.9069 53.2863 72.902 53.2343 72.8996 53.1811C74.0782 52.7811 75.4084 52.6759 76.5737 53.1425C76.5713 53.2077 76.5689 53.273 76.5677 53.3395C76.3227 57.3884 78.5599 61.1872 82.2086 62.9796C85.8306 64.7599 90.3062 64.5592 93.619 62.1806C94.6728 61.424 95.4803 60.555 96.106 59.4129C96.7099 58.3094 97.1452 57.0923 97.3586 55.8534C97.4823 55.1331 97.5587 54.3716 97.5466 53.6102C97.5563 53.586 97.566 53.5631 97.5745 53.5377C97.5041 53.7444 97.64 53.5377 97.5684 53.5812C97.68 53.5099 97.7915 53.441 97.9055 53.3733C98.1298 53.2404 98.3614 53.1038 98.5579 52.9297C99.4928 53.0989 100.426 53.2669 101.361 53.4362C102.101 53.5703 102.865 53.2343 103.077 52.4656C103.263 51.7912 102.848 50.8908 102.103 50.7554V50.7566ZM69.3625 57.832C68.9405 58.5281 68.5779 58.9572 67.9231 59.547C67.409 60.0099 66.8949 60.3592 66.1722 60.7327C64.8941 61.3914 63.3856 61.7214 61.8869 61.6754C60.3615 61.6295 58.8421 61.1557 57.4816 60.2662C56.7395 59.7815 56.1502 59.2062 55.6688 58.3831C55.1352 57.4706 54.7884 56.4795 54.5835 55.4449C54.4137 54.5868 54.3664 53.5486 54.5107 52.7799C54.5508 52.5659 54.5993 52.3532 54.6623 52.1453C54.6841 52.0728 54.7896 51.7912 54.7872 51.7803C54.866 51.6123 54.9582 51.4552 55.0431 51.2896C55.0491 51.2775 55.054 51.2667 55.0588 51.257C55.1486 51.1784 55.2359 51.0745 55.3195 50.9887C55.3414 50.9669 55.3559 50.9512 55.368 50.9379C55.3753 50.9355 55.3899 50.9282 55.4141 50.9113C55.562 50.8158 55.7088 50.7228 55.864 50.6382C56.7007 50.1837 57.7217 49.8924 58.7354 49.6374C59.1089 49.5431 59.4872 49.4779 59.8679 49.4199C59.8837 49.4174 59.9286 49.4114 59.9601 49.4066C60.0195 49.3993 60.0801 49.3921 60.1396 49.3848C60.3493 49.3606 60.5591 49.3401 60.7701 49.322C61.6165 49.2506 62.4689 49.2289 63.3177 49.2579C64.3109 49.2917 65.0311 49.3643 65.909 49.5443C66.3601 49.6374 66.8076 49.751 67.2465 49.8924C67.7194 50.0459 67.8843 50.1136 68.2202 50.2816C68.3985 50.3711 68.5731 50.4665 68.7428 50.5705C68.8253 50.6212 68.9078 50.6744 68.9878 50.7288C69.0096 50.7433 69.1212 50.8255 69.1757 50.8654C69.2255 50.9089 69.3249 50.9923 69.3188 50.9863C69.4013 51.0624 69.4825 51.1373 69.5613 51.2171C69.6147 51.2715 69.8233 51.5289 69.8233 51.5168C69.9166 51.6522 69.9991 51.7924 70.0815 51.9338C70.1082 51.9798 70.1325 52.0293 70.1555 52.0777C70.0961 51.9532 70.2052 52.1985 70.2198 52.2493C70.2768 52.4354 70.3265 52.6191 70.3653 52.8089C70.3689 52.8282 70.3726 52.8427 70.375 52.8572C70.375 52.8669 70.375 52.879 70.3774 52.8947C70.3895 53.0421 70.3956 53.1884 70.398 53.3358C70.4987 54.9977 70.1919 56.465 69.3649 57.8296L69.3625 57.832ZM94.138 50.9657C94.0968 50.9367 94.0689 50.9174 94.0507 50.9041C94.0798 50.9246 94.1101 50.9464 94.138 50.9657ZM94.0361 50.8932C94.0107 50.8751 94.0167 50.8787 94.0361 50.8932V50.8932ZM79.6634 51.4999C79.5882 51.6039 79.6282 51.5471 79.6634 51.4999V51.4999ZM95.039 54.0888C94.9905 55.9259 94.3381 58.3033 92.9109 59.5664C91.6813 60.6541 90.2468 61.3044 88.5819 61.5884C88.5686 61.5908 88.4861 61.6029 88.4583 61.609C88.3904 61.6174 88.3212 61.6247 88.2533 61.6319C88.0326 61.6537 87.8107 61.667 87.5901 61.6742C87.1935 61.6863 86.797 61.6742 86.4017 61.6392C86.0864 61.6114 86.2647 61.6356 85.9543 61.5836C85.7821 61.5546 85.6111 61.5219 85.4401 61.4833C85.0157 61.389 84.5986 61.2681 84.19 61.1207C82.8234 60.6276 81.3077 59.5422 80.4686 58.3686C79.9023 57.5757 79.5919 56.9412 79.3469 56.0867C79.0753 55.1391 79.0159 54.3849 79.0801 53.337C79.0801 53.2657 79.1141 52.8415 79.1007 52.8838C79.1238 52.7436 79.1541 52.6046 79.1917 52.468C79.2111 52.3991 79.2887 52.1804 79.3142 52.103C79.3433 52.0474 79.399 51.9302 79.3966 51.935C79.4512 51.8396 79.507 51.7453 79.564 51.651C79.5955 51.5978 79.6331 51.5446 79.6707 51.4939C79.6804 51.4818 79.6889 51.4709 79.6949 51.4637C79.8028 51.3368 79.9168 51.2159 80.0369 51.1011C80.0793 51.0612 80.3085 50.8666 80.3061 50.8606C80.4443 50.7566 80.5898 50.6611 80.7365 50.5717C81.9042 49.8586 83.5679 49.4718 84.9212 49.3389C85.7627 49.2567 86.6103 49.2313 87.4555 49.2531C87.852 49.2639 88.2485 49.2845 88.6426 49.3171C88.8329 49.3328 89.0233 49.351 89.2137 49.3715C89.2962 49.38 89.3786 49.3896 89.4611 49.4005C89.4926 49.4041 89.5156 49.4066 89.535 49.409C89.5544 49.4114 89.5775 49.415 89.609 49.4199C90.6167 49.5709 91.6001 49.8441 92.5592 50.1825C92.9848 50.3324 93.1655 50.4001 93.5608 50.6092C93.7051 50.6853 93.8409 50.7711 93.9804 50.8545C94.0034 50.8678 94.0252 50.8835 94.0471 50.8992C94.081 50.9246 94.1368 50.9657 94.1562 50.9863C94.2362 51.0684 94.3175 51.1543 94.3999 51.234C94.4048 51.2389 94.4072 51.2413 94.4121 51.2449C94.4181 51.257 94.4242 51.2703 94.4327 51.2872C94.526 51.4673 94.6279 51.6377 94.7104 51.8238C94.7152 51.8395 94.7201 51.8565 94.7261 51.877C94.7528 51.9665 94.7867 52.0523 94.8134 52.1417C94.8692 52.3266 94.9141 52.514 94.9517 52.7037C95.0329 53.1171 95.0523 53.5957 95.039 54.0876V54.0888Z" fill="#333333"/>
<path d="M65.4075 52.271C64.2411 50.6769 62.4273 51.06 61.5592 52.3774C60.5784 53.8435 60.7057 56.4421 61.6878 57.8936C62.0236 58.3662 62.4952 58.6551 63.0445 58.753C65.2062 59.1361 66.0986 57.1455 66.0889 55.5054C66.0828 54.5082 66.0161 53.1038 65.4075 52.271Z" fill="#333333"/>
<path d="M87.6477 52.271C86.4814 50.6769 84.6676 51.06 83.7995 52.3774C82.8186 53.8435 82.9459 56.4421 83.928 57.8936C84.2638 58.3662 84.7355 58.6551 85.2847 58.753C87.4465 59.1361 88.3388 57.1455 88.3291 55.5054C88.3231 54.5082 88.2564 53.1038 87.6477 52.271Z" fill="#333333"/>
<path d="M74.7849 68.1984C75.8496 68.1984 76.7127 67.6183 76.7127 66.9027C76.7127 66.1871 75.8496 65.6071 74.7849 65.6071C73.7203 65.6071 72.8572 66.1871 72.8572 66.9027C72.8572 67.6183 73.7203 68.1984 74.7849 68.1984Z" fill="#333333"/>
<path d="M21.0798 123.943C23.1133 124.874 24.669 126.665 25.9519 128.548C27.2737 130.488 28.3371 132.486 28.9713 134.657C29.4733 136.37 32.1652 135.642 31.6608 133.918C30.9417 131.46 29.7134 129.101 28.2583 126.999C26.7741 124.853 24.9128 122.655 22.4864 121.544C21.8025 121.231 20.9852 121.351 20.579 122.043C20.2273 122.642 20.391 123.63 21.0798 123.944V123.943Z" fill="#333333"/>
<path d="M60.9263 45.864C62.4018 46.0767 63.8531 45.951 65.3044 45.6187C67.0527 45.2174 66.3131 42.5366 64.5636 42.9379C63.6409 43.1494 62.597 43.3174 61.6671 43.1833C60.9227 43.0757 60.1685 43.367 59.9515 44.1538C59.7721 44.8065 60.1758 45.7552 60.9251 45.864H60.9263Z" fill="#333333"/>
<path d="M86.9917 43.1832C86.0617 43.3174 85.0178 43.1494 84.0952 42.9379C83.3616 42.7699 82.5857 43.1627 82.3796 43.9084C82.1868 44.6094 82.616 45.4494 83.3531 45.6186C84.8044 45.951 86.2557 46.0779 87.7312 45.864C88.4769 45.7564 88.8867 44.8125 88.7048 44.1538C88.4854 43.3561 87.7373 43.0757 86.9892 43.1832H86.9917Z" fill="#333333"/>
<path d="M80.403 73.8005C76.9156 72.2812 72.8365 72.338 69.3648 73.8706C68.6761 74.1752 68.5148 75.1759 68.864 75.7718C69.2788 76.4788 70.0803 76.5755 70.7714 76.2709C72.1223 75.6751 73.6368 75.4539 75.104 75.4696C76.4027 75.4829 77.9257 75.7343 78.994 76.2008C79.6839 76.5018 80.4903 76.4027 80.9014 75.7017C81.247 75.1131 81.0942 74.1026 80.4006 73.8005H80.403Z" fill="#333333"/>
<path d="M22.758 63.3457C22.3724 63.4557 21.9819 63.5488 21.5854 63.6116C21.5781 63.6116 21.5709 63.6128 21.5612 63.614C21.4751 63.6225 21.3902 63.631 21.3041 63.637C21.1174 63.6503 20.9306 63.6576 20.7439 63.6563C20.5644 63.6563 20.3874 63.6431 20.2079 63.6322C20.1546 63.6285 20.1218 63.6273 20.1012 63.6273C20.0818 63.6225 20.0539 63.6165 20.0127 63.6068C19.7096 63.5427 19.4173 63.4702 19.1227 63.3747C19.0608 63.3542 19.0232 63.3433 18.999 63.3373C18.9844 63.3288 18.9626 63.3167 18.9287 63.2998C18.8086 63.2394 18.6873 63.1814 18.5709 63.1149C18.4557 63.0496 18.3442 62.9807 18.2338 62.9082C18.1768 62.8695 18.1211 62.8296 18.0653 62.7898C18.0604 62.7849 18.0568 62.7825 18.0508 62.7765C17.864 62.6048 17.676 62.4393 17.5063 62.2507C17.4808 62.2229 17.4214 62.1431 17.3753 62.0815C17.5099 62.0404 17.6433 61.9969 17.7743 61.951C19.5131 61.3382 21.4047 60.2746 22.0705 58.4507C22.4427 57.4319 22.1808 56.2293 21.4011 55.4654C20.5681 54.6496 19.2851 54.6726 18.2035 54.8164C16.6842 55.0182 15.3018 55.776 14.4894 57.1031C13.9886 57.9214 13.7764 58.8593 13.7788 59.8032C13.6709 59.8008 13.5605 59.796 13.4478 59.7899C11.9939 59.7077 10.0465 59.0841 9.16007 57.7425C8.72112 57.0765 8.53074 56.3489 8.51134 55.5911C10.7098 55.6685 12.9688 55.3313 15.0508 54.6423C17.2989 53.8978 19.5083 52.7206 20.9755 50.8194C21.6752 49.9129 22.3227 48.7454 22.2754 47.5682C22.216 46.1251 21.1986 45.0361 19.9011 44.5248C17.402 43.5398 14.4942 44.0426 12.1915 45.2923C9.52991 46.7378 7.14111 49.4633 6.16983 52.5043C6.04858 52.474 5.92853 52.4426 5.8097 52.4088C5.62418 52.3556 5.44228 52.294 5.2604 52.2299C5.24463 52.2239 5.14641 52.1876 5.09427 52.1683C5.03486 52.1405 4.86025 52.0619 4.82387 52.045C4.58863 51.9289 4.18848 51.6908 4.04176 51.5917C4.02114 51.5748 3.91321 51.4914 3.89502 51.4745C3.81621 51.4044 3.73618 51.3343 3.661 51.2606C3.60159 51.2013 3.54216 51.1409 3.48638 51.0793C3.47305 51.0648 3.39059 50.9644 3.35058 50.9173C3.30935 50.8496 3.17961 50.6538 3.15051 50.6019C3.10807 50.5281 3.07047 50.4532 3.03167 50.3783C3.02439 50.3638 3.01834 50.3529 3.01349 50.3444C2.94437 50.1643 2.88738 49.9782 2.84372 49.7897C2.82796 49.7208 2.81462 49.6507 2.80129 49.5806C2.79644 49.5395 2.78309 49.4452 2.77945 49.3993C2.56361 45.9329 5.24707 42.6514 8.08815 40.8059C11.2542 38.7488 15.3188 37.7057 19.0681 38.5215C20.0842 38.7427 21.0507 39.1367 21.8655 39.793C22.4512 40.2644 23.2661 40.3635 23.8372 39.793C24.3259 39.3059 24.4265 38.3016 23.8372 37.8278C19.6489 34.4545 13.4235 35.1132 8.80479 37.2355C4.61289 39.1621 0.801723 43.0092 0.0923615 47.7084C-0.227761 49.8344 0.257273 52.0486 1.97187 53.482C3.06077 54.3921 4.3546 54.9372 5.71512 55.2467C5.70784 55.9368 5.78182 56.6281 5.95522 57.3122C6.91316 61.0759 10.7486 62.6556 14.3996 62.5577C15.5116 64.888 18.0022 66.3758 20.6263 66.4374C21.5939 66.4604 22.5749 66.296 23.5025 66.0301C25.2244 65.537 24.492 62.8538 22.7616 63.3494L22.758 63.3457ZM19.4767 47.5597C19.4598 47.5162 19.4622 47.4908 19.4767 47.5597V47.5597ZM11.8993 48.859C13.3289 47.6117 15.1745 46.762 17.0758 46.7898C17.533 46.7971 17.9695 46.8539 18.4133 46.9639C18.6013 47.011 18.8147 47.0581 18.9905 47.1379C19.0972 47.1863 19.1881 47.2527 19.2876 47.3119C19.193 47.2564 19.3943 47.4413 19.3725 47.3905C19.4113 47.4485 19.4464 47.509 19.4792 47.5694C19.484 47.5911 19.4889 47.6202 19.4949 47.6588C19.4501 47.3808 19.4282 48.0117 19.484 47.7604C19.3919 48.1713 19.2791 48.361 19.0184 48.7792C18.6825 49.3183 18.0192 49.9927 17.4772 50.3795C16.7581 50.8919 15.9093 51.3536 15.1321 51.6606C13.3265 52.3761 11.47 52.7484 9.58933 52.8064C9.41108 52.8125 9.23283 52.8137 9.05458 52.8137C9.6257 51.3222 10.637 49.9589 11.8993 48.8578V48.859ZM18.7225 58.3819C18.5443 58.5317 18.674 58.4181 18.7225 58.3819V58.3819ZM19.5653 57.531C19.6016 57.56 19.8066 57.5141 19.5653 57.531V57.531ZM19.4658 57.4331C19.4658 57.4331 19.4573 57.4246 19.4525 57.4198C19.4586 57.3618 19.4743 57.3618 19.4658 57.4331ZM19.3894 57.3557C19.3894 57.3557 19.381 57.3473 19.3822 57.3485C19.3846 57.3509 19.387 57.3533 19.3894 57.3557ZM16.7315 58.817C16.7375 58.7976 16.7424 58.7807 16.746 58.7674C16.7557 58.7529 16.7666 58.736 16.7799 58.7118C16.8333 58.6212 16.8855 58.5281 16.9388 58.4375C16.9534 58.4133 16.9728 58.3867 16.9934 58.3625C16.9825 58.3734 16.9703 58.3843 16.957 58.3976C17.0346 58.3238 17.0989 58.2356 17.1765 58.1607C17.2577 58.0809 17.5136 57.9177 17.3838 57.9939C17.516 57.9141 17.6482 57.838 17.784 57.7642C17.8301 57.7449 17.9077 57.7111 17.9744 57.6905C18.1308 57.641 18.2908 57.6047 18.4509 57.5697C18.4945 57.56 18.5394 57.5527 18.5843 57.5455C18.5903 57.5455 18.5952 57.5455 18.6013 57.5455C18.7504 57.5431 18.9008 57.5249 19.0499 57.5225C19.1821 57.5201 19.3191 57.537 19.4513 57.5358C19.4513 57.5358 19.4476 57.5406 19.4452 57.5455C19.381 57.6434 19.3252 57.7461 19.2633 57.8452C19.2476 57.8549 19.1118 58.0229 19.0633 58.0712C18.9565 58.1788 18.8438 58.2779 18.7286 58.3746C18.7262 58.3758 18.7249 58.377 18.7237 58.3794C18.6582 58.4266 18.5928 58.4725 18.5249 58.5172C18.3466 58.6369 18.1611 58.7469 17.9719 58.8484C17.516 59.095 17.0867 59.2714 16.5714 59.4213C16.5956 59.3222 16.6102 59.2219 16.6357 59.1228C16.6623 59.0188 16.6975 58.9185 16.7302 58.817H16.7315ZM17.3644 62.0839C17.3741 62.0984 17.3862 62.1153 17.3996 62.1359C17.3875 62.119 17.3753 62.1008 17.3632 62.0839H17.3644ZM18.0677 62.7898C18.1611 62.8574 18.1708 62.8828 18.0677 62.7898V62.7898Z" fill="#333333"/>
<path d="M16.9932 58.3619C17.0712 58.2695 17.1576 58.2023 16.9932 58.3619V58.3619Z" fill="#333333"/>
<path d="M76.1162 100.299L74.8589 101.388C74.7838 101.28 74.7025 101.175 74.6177 101.072C75.4349 99.7389 75.5719 99.0053 75.5719 99.0053C75.9683 97.7713 75.6543 96.6787 74.996 95.7625L74.9875 95.076C75.0105 94.3134 74.9862 93.5036 74.9062 92.695C75.407 92.2913 76.3211 92.1414 76.3211 92.1414C77.9761 92.0242 80.0312 92.1233 80.7526 93.6136C81.337 94.8198 80.6374 96.2738 79.6966 97.2286C78.7557 98.1846 78.1422 98.8699 76.1162 100.299Z" fill="white"/>
<path d="M74.9064 92.695C74.9864 93.5036 75.0106 94.3134 74.9876 95.0761L74.9961 95.7626C75.6545 96.6787 75.9686 97.7713 75.5721 99.0053C75.5721 99.0053 75.4351 99.739 74.6178 101.072C74.7027 101.175 74.7839 101.28 74.8591 101.388C75.7564 102.654 75.9649 104.194 74.2904 105.943C74.2904 105.943 74.009 106.194 73.6962 106.258C74.02 106.934 74.0248 107.688 73.4792 108.522C72.4388 110.249 69.5819 112.108 67.6199 110.828L66.9118 110.44C65.9781 112.978 65.0141 114.946 63.1904 117.332C61.2951 119.812 58.4492 122.083 55.6178 122.801C51.9352 121.857 47.4268 119.498 44.5117 115.081C47.291 108.441 49.4979 102.142 52.5621 95.157C53.9262 92.0484 55.7924 88.9785 58.6662 87.1595C60.5554 85.9641 62.7878 85.4541 64.9704 84.9646C66.3734 84.6491 67.8273 84.3337 69.2363 84.6165C71.2504 85.0202 72.8583 86.6132 73.792 88.437C74.4031 89.6311 74.7548 91.1613 74.9064 92.695Z" fill="white"/>
<path d="M59.2601 123.301C59.14 123.517 59.0127 123.761 58.8805 124.031C58.7811 124.232 58.6792 124.446 58.575 124.674C58.3215 125.222 58.0487 125.848 57.7565 126.544C57.4024 127.391 57.0192 128.341 56.6106 129.378C56.2505 130.291 55.8709 131.269 55.4708 132.303C54.5722 134.632 53.5755 137.243 52.4963 140H25.2847C26.5251 138.31 27.802 136.621 29.0813 134.931C29.7543 134.043 30.4285 133.155 31.099 132.268C35.565 126.354 39.8721 120.459 42.6331 114.657C42.7774 114.353 42.9181 114.048 43.0539 113.745C43.1594 113.51 43.2612 113.277 43.3607 113.044C43.4492 113.227 43.5401 113.409 43.6323 113.588C43.6602 113.64 43.6881 113.693 43.716 113.745C43.87 114.031 44.0288 114.309 44.1949 114.581C44.298 114.75 44.4047 114.917 44.5126 115.081C44.7709 115.473 45.0425 115.848 45.3251 116.208C47.9127 119.511 51.4147 121.488 54.5261 122.486C54.5552 122.495 54.5843 122.504 54.6134 122.513C54.9542 122.621 55.2901 122.716 55.6187 122.801C55.7618 122.837 55.9024 122.872 56.0431 122.905C56.5342 123.019 57.0095 123.107 57.4606 123.171C57.5528 123.184 57.6425 123.195 57.7322 123.207C57.9238 123.23 58.1106 123.249 58.2924 123.263C58.3434 123.268 58.3943 123.271 58.444 123.274C58.7302 123.294 59.003 123.304 59.2601 123.301Z" fill="#999999"/>
<path d="M82.2269 93.5786C81.7818 92.0158 80.3352 91.0864 78.7916 90.8446C77.9125 90.7068 76.9194 90.6355 75.9881 90.7914C75.6546 89.1102 75.0399 87.5088 73.9 86.0729C72.7857 84.6685 71.1838 83.5348 69.3844 83.2363C67.2029 82.8761 64.9633 83.5022 62.857 84.0315C60.9423 84.5126 59.0192 85.1725 57.4065 86.3364C55.8507 87.458 54.5811 88.8637 53.5128 90.4494C52.4591 92.0146 51.6721 93.7188 50.9276 95.4459C50.0533 97.4716 49.213 99.5106 48.3957 101.558C46.6411 105.951 44.9775 110.381 43.1525 114.747C42.8627 115.44 43.4654 116.276 44.1262 116.457C44.929 116.677 45.551 116.182 45.842 115.486C47.3347 111.916 48.7207 108.302 50.1346 104.7C51.5157 101.182 52.8302 97.5695 54.552 94.1986C56.0217 91.3196 58.0637 88.6304 61.1897 87.4472C62.9116 86.7957 64.7632 86.3823 66.5712 86.0463C68.1281 85.7575 69.6269 85.8783 70.8661 86.919C72.6305 88.4008 73.2416 90.4651 73.4647 92.6141C72.833 92.2273 72.1745 91.878 71.5318 91.5275C69.9143 90.644 68.27 89.8076 66.6767 88.8806C65.1233 87.9765 63.718 90.3781 65.2688 91.2809C66.6706 92.0956 68.1099 92.8413 69.5372 93.61C70.6952 94.2336 72.0545 94.8573 73.0233 95.6864C73.4829 96.0792 73.8042 96.4261 74.0916 96.9362C74.2759 97.2649 74.3923 97.7399 74.3584 98.1001C74.3341 98.3575 74.288 98.5823 74.2262 98.7914C73.1143 97.9212 71.8968 97.2129 70.6927 96.4793C68.9769 95.4338 67.2429 94.421 65.4277 93.5556C64.7487 93.2317 63.9217 93.3683 63.5203 94.0548C63.1638 94.6615 63.3384 95.6308 64.0211 95.956C65.6278 96.721 67.1738 97.6009 68.6956 98.5207C69.7784 99.1746 70.8868 99.8067 71.9272 100.528C72.3734 100.838 72.6171 101.018 73.0779 101.46C73.3932 101.762 73.5435 101.921 73.6987 102.149C73.706 102.161 73.7145 102.172 73.7218 102.184C73.7933 102.292 73.8661 102.416 73.9582 102.578C73.9825 102.62 73.997 102.645 74.0079 102.66C74.0128 102.676 74.0189 102.695 74.0286 102.723C74.071 102.846 74.1001 102.971 74.1353 103.095C74.1438 103.127 74.151 103.15 74.1571 103.165C74.1547 103.181 74.151 103.204 74.1498 103.239C74.1474 103.286 74.1377 103.503 74.1486 103.486C74.1013 103.759 74.0104 103.999 73.877 104.227C72.993 103.355 71.8884 102.713 70.7946 102.136C68.6556 101.006 66.5384 99.849 64.3606 98.7914C63.684 98.4627 62.8534 98.6077 62.4532 99.2906C62.0943 99.9009 62.2738 100.862 62.954 101.192C65.0518 102.211 67.0962 103.314 69.1515 104.412C69.8403 104.779 70.529 105.143 71.1741 105.584C71.6931 105.939 72.1466 106.342 72.434 106.841C72.4437 106.861 72.4522 106.876 72.4571 106.886C72.474 106.936 72.4934 106.987 72.5068 107.039C72.514 107.072 72.5189 107.096 72.5225 107.115C72.525 107.176 72.525 107.235 72.5225 107.295C72.531 107.042 72.4692 107.456 72.4328 107.573C72.4377 107.541 72.2376 107.884 72.2012 107.94C71.8689 108.444 71.2566 109.001 70.6418 109.362C70.2853 109.571 70.061 109.678 69.673 109.78C69.4195 109.848 69.4304 109.849 69.257 109.858C69.1891 109.861 68.8011 109.826 68.8326 109.841C68.7635 109.825 68.6932 109.802 68.6229 109.774C68.7126 109.519 68.8023 109.263 68.8884 109.006C69.1297 108.295 68.6107 107.486 67.9147 107.295C67.152 107.086 66.4414 107.553 66.1989 108.266C65.2689 111.011 64.1872 113.595 62.4811 115.964C60.7653 118.346 58.362 120.543 55.4894 121.393C53.7723 121.901 54.5035 124.584 56.2303 124.074C59.6958 123.049 62.5345 120.544 64.648 117.697C65.8836 116.031 66.8307 114.239 67.6249 112.366C68.4701 112.687 69.3747 112.697 70.2562 112.499C71.9781 112.111 73.5387 110.891 74.5269 109.462C75.0714 108.676 75.3297 107.796 75.2702 106.93C75.2727 106.928 75.2751 106.927 75.2775 106.924C76.4731 105.638 77.2613 104.004 76.7945 102.229C76.7472 102.047 76.6878 101.872 76.6187 101.699C76.6296 101.69 76.6417 101.68 76.6526 101.67C76.7751 101.565 76.8939 101.456 77.0188 101.354C77.0576 101.327 77.1146 101.288 77.197 101.229C77.3935 101.091 77.5851 100.946 77.7754 100.801C78.7698 100.048 79.6792 99.2386 80.5498 98.3466C81.7612 97.1054 82.7337 95.3565 82.2269 93.5761V93.5786ZM78.9614 95.9729C78.4157 96.6485 77.7851 97.2444 77.1194 97.8064C77.0915 96.9349 76.826 96.1107 76.3858 95.3637C76.3761 94.7618 76.3579 94.1599 76.3228 93.5629C76.3361 93.5592 76.3494 93.5556 76.3628 93.552C76.4161 93.5387 76.4719 93.5278 76.5265 93.5169C76.6162 93.5121 76.706 93.5073 76.7969 93.5036C77.522 93.4758 78.0519 93.4795 78.6679 93.6535C79.1105 93.778 79.4512 93.9279 79.558 94.4016C79.6634 94.8682 79.3179 95.5305 78.9614 95.9729Z" fill="#333333"/>
<path d="M60.4646 124.002C60.3081 124.284 60.1614 124.572 60.0208 124.862C59.8498 125.215 59.6861 125.572 59.526 125.931C59.4278 126.153 59.332 126.374 59.2362 126.595C59.2265 126.618 59.2083 126.66 59.1901 126.704C59.1829 126.718 59.1768 126.733 59.172 126.747C59.172 126.751 59.1695 126.754 59.1671 126.758C59.1635 126.765 59.161 126.773 59.1574 126.78C59.1598 126.776 59.161 126.771 59.1635 126.768C59.1598 126.777 59.1562 126.785 59.1525 126.793C59.1489 126.8 59.1465 126.808 59.1441 126.814C59.1428 126.816 59.1416 126.82 59.1404 126.822C59.1368 126.831 59.1331 126.839 59.1307 126.844C59.1283 126.851 59.1271 126.854 59.1271 126.854C59.1089 126.896 59.0907 126.939 59.0725 126.982C58.7136 127.842 58.3656 128.708 58.0224 129.575C57.9448 129.77 57.8684 129.966 57.792 130.16C57.4865 130.938 57.1833 131.716 56.8826 132.495C56.5031 133.478 56.1247 134.462 55.7464 135.446C55.4069 136.332 55.0661 137.218 54.723 138.104C54.478 138.736 54.2319 139.369 53.9857 140H51.0064C51.717 138.186 52.4215 136.363 53.1248 134.536C53.8123 132.748 54.495 130.957 55.1983 129.175C55.4263 128.595 55.6579 128.017 55.8907 127.441C56.0411 127.069 56.1914 126.694 56.343 126.319C56.5891 125.717 56.8389 125.116 57.1057 124.521C56.7929 124.474 56.4812 124.418 56.1708 124.354C55.9974 124.319 55.8228 124.28 55.6506 124.24C55.3475 124.17 55.0455 124.092 54.746 124.007C50.2498 122.742 46.1755 119.936 43.5332 116.103C43.5211 116.086 43.509 116.069 43.4981 116.052C43.4969 116.056 43.4944 116.059 43.4932 116.063C42.2552 118.56 40.8074 120.952 39.2734 123.276C36.8774 126.906 34.2703 130.385 31.6414 133.85C31.1916 134.445 30.7405 135.038 30.2894 135.633C29.1884 137.083 28.0886 138.536 27.0069 140H23.5571C25.1832 137.763 26.8602 135.559 28.5336 133.356C29.1811 132.505 29.8262 131.655 30.4689 130.802C30.812 130.348 31.1552 129.891 31.4959 129.434C35.5023 124.065 39.5087 118.527 42.157 112.343C42.4953 111.55 43.6679 111.47 44.2851 111.987C44.4015 112.085 44.4972 112.204 44.5652 112.343C44.7555 112.734 44.9568 113.117 45.1727 113.488C45.454 113.978 45.7571 114.449 46.0857 114.903C46.4653 115.428 46.8788 115.93 47.3274 116.408C48.3011 117.444 49.2579 118.244 50.4001 118.99C50.9458 119.347 51.5096 119.675 52.088 119.975C52.6131 120.248 53.2339 120.534 53.5783 120.671C53.8766 120.791 54.1773 120.903 54.4817 121.007C54.8527 121.137 55.2274 121.254 55.6057 121.359C55.7088 121.387 55.8131 121.415 55.9162 121.441C56.2108 121.519 56.5079 121.589 56.8062 121.65C56.9832 121.688 57.1603 121.722 57.3373 121.751C57.4076 121.764 57.478 121.776 57.5483 121.787C57.615 121.798 57.735 121.814 57.7799 121.821C57.7835 121.822 57.7872 121.823 57.792 121.822C57.792 121.822 57.7928 121.822 57.7944 121.823H57.7981C57.8624 121.832 57.9266 121.839 57.9909 121.845C57.9969 121.846 58.003 121.846 58.0091 121.846C58.425 121.891 58.8421 121.911 59.2605 121.911C59.5879 121.91 59.874 122.019 60.0996 122.197C60.6173 122.6 60.8174 123.365 60.4646 124.002Z" fill="#333333"/>
</svg>
