<svg width="128" height="172" viewBox="0 0 128 172" fill="none" xmlns="http://www.w3.org/2000/svg">
<g clip-path="url(#clip0_240_1098)">
<path d="M43.3326 43.1686C44.8548 42.9881 46.5458 43.9976 47.5035 46.3503C48.5932 37.9638 51.5915 29.4403 58.9838 22.7172C63.5819 18.697 67.3896 19.5328 70.3594 20.587C77.0538 22.8719 79.931 30.0251 85.1808 34.2366C87.2036 35.8757 89.9992 37.6897 92.6737 38.265V38.2678C93.4084 40.9475 93.9729 44.3707 93.8967 46.3503C94.8517 44.0044 96.5359 42.9949 98.0541 43.1659C99.6893 43.349 101.134 44.9026 101.269 47.6339C102.025 53.4777 98.7084 60.0406 92.8479 61.7937C92.8479 61.7937 92.3677 61.966 92.116 61.9823L92.1065 61.9795C90.3774 67.2291 87.39 71.2018 83.7605 73.8951C76.0267 79.6386 65.3722 79.5775 57.7132 73.6835C54.2578 71.0255 51.4119 67.1802 49.7196 62.1464H49.7169C49.6162 62.1559 48.951 61.9714 48.951 61.9714C42.9068 60.2509 39.333 53.6826 40.133 47.6339C40.2676 44.9107 41.7028 43.3585 43.3326 43.1686Z" fill="white"/>
<path d="M83.8256 80.3563C83.8392 80.5707 83.8977 81.1758 83.9453 81.5272C83.1536 83.4729 81.8843 85.595 75.1409 91.276L75.1436 91.2787C73.3166 92.6817 71.4379 96.0235 70.6666 99.1198C69.8939 96.0249 67.9268 92.3207 66.2576 91.2774H66.259C59.7631 85.9545 58.3374 83.7416 57.543 81.8149C57.611 81.4119 57.6559 80.663 57.6763 80.3563C57.8423 78.1271 57.8994 75.3998 57.713 73.6835C65.372 79.5775 76.0265 79.6386 83.7603 73.8951V73.8979C83.578 75.5898 83.6583 78.1257 83.8256 80.3563Z" fill="white"/>
<path d="M70.6257 172L70.6666 100.311V99.1198C70.7604 98.7426 70.872 98.3613 70.9958 97.98C71.0964 97.6748 71.2053 97.3695 71.3223 97.0669C72.065 95.1551 73.1302 93.3316 74.2498 92.1118C74.5464 91.7889 74.8457 91.508 75.1436 91.2787C75.1504 91.2733 75.1558 91.2692 75.1626 91.2638C75.266 91.1932 75.3694 91.2136 75.3694 91.2136C75.8006 91.2855 76.2006 91.4388 76.572 91.6613C79.2737 93.2692 80.5212 98.4549 82.0135 102.017C82.0897 102.197 82.1659 102.373 82.2421 102.544C82.3699 102.827 82.4992 103.095 82.6311 103.348C82.7019 103.259 82.8529 103.017 83.061 102.65C83.1549 102.487 83.2583 102.299 83.3725 102.088C84.9506 99.1632 88.3597 91.9191 88.4318 86.8962C88.4345 86.8338 88.4345 86.77 88.4345 86.7076C88.4345 86.2829 88.4073 85.8745 88.3543 85.4878C88.6889 85.6588 89.0535 85.8473 89.4412 86.0454C89.5065 86.0794 89.5732 86.1133 89.6398 86.1472C90.9689 86.827 92.547 87.618 94.1155 88.2991C100.156 90.7984 109.466 94.8336 112.489 96.2352C121.508 100.416 123.402 102.666 124.453 113.678C125.648 132.519 126.278 153.275 126.777 172H70.6257Z" fill="white"/>
<path d="M83.9453 81.5272C84.3099 80.6304 84.5724 79.7701 85.2213 78.6169L88.1053 84.8229L88.3543 85.4878C89.1936 91.5121 83.2188 102.616 82.6311 103.348C80.611 99.4902 79.354 91.8811 75.3694 91.2136C75.3694 91.2136 75.266 91.1932 75.1626 91.2638C75.1558 91.2692 75.1504 91.2733 75.1436 91.2787L75.1409 91.276C81.8843 85.595 83.1535 83.4729 83.9453 81.5272Z" fill="white"/>
<path d="M66.2372 91.2638C66.1338 91.1932 66.0304 91.2136 66.0304 91.2136C62.0458 91.8811 60.7875 99.4902 58.7686 103.348C58.181 102.616 52.2061 91.5121 53.0455 85.4878L53.2931 84.8229L56.1771 78.6169C56.8845 79.8746 57.1267 80.804 57.5429 81.8135C58.3374 83.7416 59.7631 85.9545 66.2589 91.276H66.2576L66.2372 91.2638Z" fill="white"/>
<path d="M41.8455 27.8528C39.9001 27.9043 38.5112 26.8067 38.4119 26.519C45.2396 23.0144 43.8507 14.4108 49.8459 10.4584C50.9492 9.7311 53.1462 9.32948 55.0671 9.64969C56.8709 4.29161 63.1355 1.84391 67.7649 1.29847C72.3943 0.753024 77.6753 3.33098 83.3127 3.36355C83.1781 4.30789 80.6994 4.8574 79.6887 5.35536C98.8919 8.50318 90.9472 17.3944 102.003 22.3658C101.372 23.1039 100.292 23.9262 98.5926 23.9546C100.346 26.7348 101.247 30.7876 100.703 34.2095C100.226 37.1999 98.3491 40.1524 98.0539 43.1659C96.5357 42.9949 94.8515 44.0044 93.8965 46.3503C93.9727 44.3707 93.4082 40.9475 92.6722 38.2677V38.265C89.999 37.6897 87.2034 35.8757 85.1806 34.2366C79.9308 30.0251 77.0536 22.8719 70.3592 20.587C67.3894 19.5328 63.5817 18.697 58.9836 22.7172C51.5913 29.4403 48.593 37.9638 47.5033 46.3503C46.5456 43.9976 44.8547 42.9881 43.3324 43.1686C43.0263 40.17 41.3707 37.1864 40.8987 34.2095C40.5722 32.162 41.0701 29.8378 41.8455 27.884V27.8528Z" fill="#333333"/>
<path d="M70.6665 99.1198V100.311L70.6257 172H35.3387C35.3387 171.771 35.3414 171.545 35.3414 171.324C35.34 167.342 35.1836 162.694 34.872 157.814C34.8204 157.003 34.7646 156.186 34.7047 155.364C34.4109 156.038 34.0599 156.748 33.6531 157.474C30.7637 162.658 25.1453 168.661 18.1951 168.49C10.7456 167.82 7.03177 163.201 5.91489 155.387C4.28787 141.832 4.59259 125.163 3.65665 111.293C3.6172 110.707 3.57503 110.126 3.53149 109.551C3.79269 109.83 4.09333 110.094 4.42799 110.338C4.55722 110.434 4.69326 110.528 4.83338 110.617C5.11362 110.799 5.41427 110.972 5.73124 111.132C6.08766 111.314 6.46585 111.482 6.86036 111.636C9.72941 112.761 13.5262 113.185 16.8524 112.81C17.2415 112.768 17.6251 112.714 17.9992 112.647C18.289 111.986 18.893 111.489 18.893 111.489C19.078 111.356 19.2548 111.22 19.4235 111.081C22.9075 108.238 22.8857 104.504 23.151 100.612C23.1659 100.386 23.1823 100.159 23.2013 99.9325C23.2163 99.7371 23.2326 99.5417 23.2516 99.345C23.6529 99.0668 24.0828 98.7941 24.5413 98.5228C25.2514 98.1008 26.035 97.6802 26.8988 97.2473C27.5559 96.919 28.2592 96.5839 29.0129 96.2338C32.0343 94.8336 41.3448 90.7984 47.3849 88.2991C49.1194 87.5461 50.5029 86.8433 51.7544 86.1798C51.8265 86.1404 51.8986 86.1024 51.9694 86.0644C52.3367 85.8691 52.6931 85.6764 53.0454 85.4878C52.9924 85.8745 52.9665 86.2829 52.9652 86.7076C52.9652 86.7754 52.9652 86.8446 52.9679 86.9125C53.0482 91.9327 56.4491 99.1618 58.0258 102.086C58.1401 102.297 58.2448 102.486 58.3387 102.65C58.5468 103.017 58.6978 103.259 58.7686 103.348C58.9005 103.095 59.0298 102.827 59.1563 102.544C59.2338 102.372 59.31 102.196 59.3848 102.015C60.8758 98.4563 62.1246 93.2787 64.8209 91.6654C65.195 91.4415 65.5963 91.2868 66.0303 91.2136C66.0303 91.2136 66.1337 91.1932 66.2371 91.2638C66.2439 91.2678 66.2507 91.2719 66.2575 91.2773C66.5581 91.4659 66.8669 91.7387 67.1785 92.0806C68.2233 93.2257 69.2789 95.1294 70.0149 97.0669C70.1305 97.3708 70.2393 97.6761 70.3373 97.9787C70.4624 98.364 70.574 98.7466 70.6665 99.1198Z" fill="white"/>
<path d="M25.0148 111.928C26.5085 116.611 27.7574 121.365 29.1069 126.089C29.5381 127.598 31.9011 126.956 31.4685 125.439C30.119 120.715 28.8688 115.961 27.3765 111.278C26.9003 109.786 24.536 110.423 25.0148 111.928Z" fill="#333333"/>
<path d="M36.5074 172H34.0737C34.1023 169.832 34.0873 167.662 34.0179 165.49C33.9567 163.562 33.8778 161.631 33.7771 159.699C33.7404 158.958 33.6982 158.216 33.6533 157.474C33.6057 156.676 33.554 155.877 33.4983 155.079C32.9487 147.218 32.01 139.364 30.4592 131.664C30.149 130.127 32.5106 129.476 32.8208 131.016C34.0928 137.329 34.8967 143.739 35.4967 150.148C36.1769 157.426 36.5659 164.71 36.5074 172Z" fill="#333333"/>
<path d="M115.947 107.373C113.814 113.293 112.255 119.396 110.529 125.441C110.096 126.955 112.458 127.601 112.89 126.091C114.618 120.046 116.176 113.944 118.309 108.023C118.532 107.403 118.057 106.687 117.453 106.521C116.774 106.335 116.172 106.751 115.947 107.375V107.373Z" fill="#333333"/>
<path d="M112.169 131.458C110.918 137.672 110.13 143.976 109.549 150.284C108.883 157.52 108.532 164.755 108.567 172H106.092C106.071 169.695 106.092 167.387 106.169 165.079C106.543 153.625 107.543 142.055 109.808 130.81C110.118 129.267 112.478 129.924 112.169 131.458Z" fill="#333333"/>
<path d="M56.4884 73.6835C56.6258 75.0322 56.6217 76.3931 56.5836 77.7472C56.5496 78.971 56.5374 80.3224 56.3619 81.4906C56.2639 82.1419 56.5251 82.8027 57.2176 82.9926C57.7957 83.1514 58.6256 82.7959 58.7235 82.1392C59.1357 79.3998 59.2187 76.4392 58.9371 73.6835C58.8704 73.0268 58.4229 72.4623 57.7128 72.4623C57.1019 72.4623 56.4204 73.0227 56.4884 73.6835Z" fill="#333333"/>
<path d="M85.1696 81.3929C84.9968 80.108 84.9356 78.8082 84.8989 77.5124C84.8649 76.3021 84.9846 75.1027 84.9846 73.8978C84.9846 72.3266 82.5359 72.3239 82.5359 73.8978C82.5359 75.1027 82.4162 76.3021 82.4502 77.5124C82.4869 78.8082 82.5481 80.108 82.7209 81.3929C82.8093 82.0469 83.2202 82.614 83.9452 82.614C84.5384 82.614 85.258 82.051 85.1696 81.3929Z" fill="#333333"/>
<path d="M71.8882 104.03C71.8854 107.334 71.8841 110.639 71.8814 113.943C71.88 118.536 71.8773 123.127 71.8746 127.72C71.8718 133.153 71.8677 138.586 71.865 144.018C71.8623 149.844 71.8582 155.669 71.8555 161.495C71.8555 164.997 71.8514 168.498 71.8501 172H69.4014C69.4041 167.053 69.4054 162.105 69.4095 157.158C69.4122 151.387 69.415 145.617 69.4191 139.846C69.4218 134.579 69.4245 129.31 69.4272 124.043C69.4299 119.726 69.4327 115.41 69.4354 111.092C69.4367 108.174 69.4381 105.255 69.4395 102.337C69.4395 101.319 69.4395 100.3 69.4422 99.2812V99.1198C69.4422 98.9583 69.468 98.8131 69.5143 98.6842C69.653 98.3016 69.9754 98.0655 70.3373 97.9787C70.5522 97.9271 70.7808 97.9271 70.9957 97.98C71.3508 98.0655 71.6664 98.2921 71.8092 98.6612C71.812 98.6639 71.812 98.6679 71.812 98.6707C71.8637 98.8023 71.8909 98.9529 71.8909 99.1198C71.8909 99.174 71.8895 99.2256 71.8895 99.2785V99.3246C71.9208 100.892 71.8895 102.463 71.8895 104.03H71.8882Z" fill="#333333"/>
<path d="M71.8476 98.7955C71.3116 96.7087 70.4423 94.6395 69.2683 92.8268C68.7799 92.0738 68.2262 91.3045 67.5365 90.7183C67.3937 90.5962 67.2522 90.4904 67.1107 90.3981C64.6239 88.3561 62.0256 86.2449 60.038 83.6914C60.0476 83.7009 59.8095 83.3779 59.7496 83.2924C59.6299 83.1201 59.5129 82.9451 59.4028 82.766C59.2096 82.4566 59.0341 82.1364 58.8749 81.8081C58.8083 81.671 58.7484 81.5327 58.6858 81.3943C58.8423 81.7389 58.6559 81.3183 58.6069 81.1907C58.4954 80.9058 58.3933 80.6182 58.2859 80.3319C57.9866 79.5327 57.6533 78.7444 57.237 77.9981C56.818 77.2492 55.5148 77.1555 55.123 77.9981C54.0211 80.3671 52.7818 82.7117 51.8662 85.1608C51.8159 85.2965 51.8009 85.4362 51.8132 85.5746C51.4608 88.4714 52.3356 91.5311 53.2647 94.2433C54.1966 96.9611 55.3597 99.6177 56.6888 102.166C57.0547 102.869 57.4166 103.581 57.905 104.208C58.3811 104.82 59.4993 104.599 59.8286 103.961C61.1563 101.39 61.831 98.5431 63.0676 95.9326C63.6063 94.7956 64.1954 93.6518 65.1749 92.8879C65.1653 92.8987 65.3408 92.7766 65.3708 92.759C65.4782 92.6939 65.5871 92.6301 65.7 92.5745C65.8333 92.5093 65.7435 92.5392 65.8455 92.5134C66.1231 92.8133 66.8128 93.55 66.9393 93.7332C68.1269 95.455 68.9703 97.4224 69.4886 99.4427C69.8791 100.964 72.2407 100.319 71.8503 98.7928L71.8476 98.7955ZM59.6844 97.767C59.3293 98.7154 59.0028 99.6788 58.6396 100.622C58.2083 99.7832 57.8002 98.9325 57.4111 98.0736C56.2113 95.4292 55.1652 92.6708 54.5571 89.8255C54.2741 88.4999 54.1027 87.158 54.2374 85.7863C54.2918 85.6438 54.3476 85.5013 54.3979 85.3575C54.402 85.3467 54.4047 85.3385 54.4074 85.329C54.4809 85.1839 54.5421 85.0305 54.6101 84.884C54.9393 84.1771 55.2672 83.4702 55.5964 82.7633C55.78 82.3671 55.9651 81.9709 56.1487 81.5761C56.312 82.0048 56.4793 82.4322 56.6711 82.8501C57.5213 84.7049 58.9375 86.2747 60.3741 87.698C61.4828 88.7971 62.6527 89.8364 63.8444 90.8459C61.6447 92.3709 60.5713 95.398 59.6857 97.7656L59.6844 97.767ZM65.7272 92.3872C65.7272 92.3872 65.7394 92.4021 65.7571 92.4211C65.734 92.4171 65.7204 92.4076 65.7272 92.3872Z" fill="#333333"/>
<path d="M89.5885 85.5746C89.5994 85.4376 89.5858 85.2992 89.5354 85.1649C88.6213 82.7158 87.3806 80.3712 86.2787 78.0022C85.8869 77.1596 84.5823 77.2533 84.1646 78.0022C83.7892 78.6738 83.4804 79.3753 83.1988 80.0904C83.0886 80.3699 82.9838 80.6507 82.875 80.9302C82.8287 81.0496 82.7798 81.1677 82.7321 81.2871C82.7308 81.2911 82.7294 81.2925 82.7281 81.2966C82.6886 81.378 82.6546 81.4608 82.6165 81.5422C82.2995 82.2151 81.9091 82.8488 81.467 83.4471C81.4235 83.5068 81.3786 83.5665 81.3337 83.6249C81.3133 83.6493 81.2004 83.7904 81.1745 83.823C80.9854 84.055 80.7909 84.2829 80.5923 84.5068C80.161 84.9926 79.7121 85.462 79.2523 85.922C77.7259 87.4498 76.0962 88.8731 74.446 90.2679C73.7822 90.6654 73.2067 91.4266 72.7755 91.9775C71.2178 93.9706 70.1146 96.3519 69.4861 98.7955C69.0943 100.319 71.4559 100.969 71.8477 99.4454C72.4776 96.995 73.6407 94.2868 75.5629 92.5256C75.6078 92.5405 75.6445 92.5514 75.6418 92.5487C75.835 92.6355 76.02 92.7481 76.1914 92.8689C76.3506 92.9802 76.8702 93.4971 77.043 93.7196C77.7599 94.6368 78.2742 95.7372 78.7231 96.8023C79.7189 99.1686 80.3936 101.677 81.5745 103.965C81.9037 104.603 83.0219 104.824 83.498 104.212C84.6176 102.772 85.359 100.953 86.1059 99.307C87.4146 96.4224 88.5995 93.4238 89.2416 90.3154C89.5613 88.7699 89.7817 87.1526 89.5912 85.576L89.5885 85.5746ZM75.2718 92.4741C75.3017 92.47 75.333 92.4646 75.3629 92.4591C75.3725 92.4619 75.382 92.4646 75.3915 92.4673C75.3425 92.4768 75.3017 92.4768 75.2718 92.4741ZM85.7767 93.5975C84.9482 96.0154 83.9211 98.3667 82.7525 100.639C81.8642 98.3993 81.1963 96.0411 80.0481 93.9042C79.4291 92.7522 78.6306 91.6003 77.5436 90.8364C79.5475 89.1186 81.52 87.3195 83.1416 85.2517C84.049 84.0943 84.6965 82.8868 85.2421 81.549C85.4298 81.9546 85.6189 82.359 85.8066 82.7647C86.1358 83.4716 86.4637 84.1785 86.7929 84.8854C86.8596 85.0292 86.9194 85.1812 86.9915 85.3223C87.0446 85.4756 87.1044 85.6262 87.1616 85.7768C87.4282 88.4226 86.6324 91.1023 85.7767 93.5975Z" fill="#333333"/>
<path d="M98.0565 41.9447C95.4541 41.7032 93.6271 43.8619 92.7156 46.026C92.4598 46.6339 92.9918 47.3693 93.5713 47.528C94.2773 47.7221 94.8201 47.2852 95.0772 46.6746C95.3629 45.9962 95.9098 45.216 96.4118 44.8469C96.6838 44.6475 96.9178 44.5335 97.0947 44.4765C97.5001 44.3476 97.4375 44.3544 97.8837 44.3707C98.2442 44.3829 98.7462 44.6326 99.1244 45.0315C99.5379 45.467 99.8141 46.1739 99.9556 46.8727C100.708 50.5972 99.5774 54.8372 97.0389 57.6662C96.1941 58.6078 95.1112 59.5087 93.9127 60.1125C94.0501 59.563 94.1739 59.0108 94.2814 58.4545C94.4066 57.8073 94.0991 57.137 93.4257 56.9525C92.8258 56.7883 92.0463 57.1547 91.9198 57.8059C91.0614 62.2265 89.2534 66.5303 86.3354 69.8572C83.7697 72.7812 80.5197 74.9127 76.9079 76.0212C73.3777 77.1053 69.6516 77.2207 66.135 76.3754C62.4157 75.4812 59.1073 73.617 56.4083 70.9074C52.8794 67.3634 50.7831 62.6715 49.8335 57.7177C49.7097 57.0692 48.9289 56.7001 48.3276 56.8643C47.6474 57.0502 47.3481 57.7164 47.4719 58.3663C47.5957 59.0122 47.7399 59.6526 47.9032 60.2889C47.8174 60.2496 47.7317 60.2102 47.6474 60.1682C46.7795 59.7353 45.9728 59.194 45.2558 58.5413C43.803 57.2184 42.6806 55.5292 42.0195 53.6785C41.3257 51.7342 41.142 49.7681 41.3447 47.7221C41.4264 46.8985 41.5529 46.1196 41.9787 45.425C42.2752 44.9419 42.7255 44.5634 43.1568 44.4426C43.7159 44.2866 44.1811 44.3504 44.7634 44.6963C45.4028 45.0749 45.9945 45.8917 46.3224 46.6705C46.5781 47.2784 47.1318 47.7139 47.8283 47.524C48.4024 47.3666 48.9411 46.6339 48.684 46.022C47.8229 43.9786 46.2584 42.0505 43.8683 41.9284C41.6971 41.8172 40.0224 43.4236 39.3273 45.353C38.9151 46.4955 38.8307 47.8062 38.8022 49.0124C38.7709 50.2878 38.9205 51.5808 39.2144 52.821C39.8048 55.3202 41.055 57.6811 42.8099 59.5603C43.7513 60.5684 44.8709 61.4476 46.0857 62.1057C46.9142 62.5548 47.8583 62.9876 48.8146 63.2169C49.926 66.2535 51.5286 69.0987 53.6739 71.556C56.4559 74.7418 60.1276 77.123 64.1747 78.3713C72.1507 80.8298 81.0462 78.5978 86.968 72.7513C89.7282 70.0268 91.7266 66.6646 93.0271 63.0419C93.9468 62.8099 94.8691 62.3581 95.6608 61.9076C96.7151 61.3079 97.6905 60.5345 98.5258 59.658C100.24 57.8575 101.463 55.5889 102.091 53.19C103.044 49.5592 103.195 42.4196 98.0578 41.942L98.0565 41.9447Z" fill="#333333"/>
<path d="M62.839 46.2486C61.8309 44.8687 60.2611 45.1998 59.5101 46.3408C58.6612 47.6095 58.7714 49.8577 59.6217 51.1141C59.9114 51.5225 60.3209 51.7735 60.7957 51.8577C62.6649 52.1887 63.4376 50.4669 63.4294 49.0477C63.424 48.1848 63.3668 46.969 62.8403 46.2486H62.839Z" fill="#333333"/>
<path d="M82.0721 46.2486C81.0641 44.8687 79.4942 45.1998 78.7433 46.3408C77.8944 47.6095 78.0046 49.8577 78.8548 51.1141C79.1446 51.5225 79.5541 51.7735 80.0288 51.8577C81.898 52.1887 82.6707 50.4669 82.6625 49.0477C82.6571 48.1848 82.6 46.969 82.0735 46.2486H82.0721Z" fill="#333333"/>
<path d="M70.7469 59.1261C71.668 59.1261 72.4148 58.6244 72.4148 58.0054C72.4148 57.3864 71.668 56.8847 70.7469 56.8847C69.8258 56.8847 69.0791 57.3864 69.0791 58.0054C69.0791 58.6244 69.8258 59.1261 70.7469 59.1261Z" fill="#333333"/>
<path d="M65.002 65.0799C68.5336 66.9021 72.9521 66.8261 76.4605 64.9917C77.8563 64.2617 76.6197 62.1532 75.2253 62.8832C72.5236 64.2956 68.9648 64.3784 66.2386 62.9714C64.8415 62.2495 63.6008 64.3567 65.0034 65.0799H65.002Z" fill="#333333"/>
<path d="M91.4916 38.592C92.1677 41.0872 92.7499 43.7506 92.6724 46.3503C92.6261 47.9229 95.0748 47.9215 95.1211 46.3503C95.204 43.5458 94.5824 40.6354 93.8518 37.9435C93.441 36.4279 91.078 37.071 91.4902 38.5934L91.4916 38.592Z" fill="#333333"/>
<path d="M102.622 21.3116C100.788 20.4771 99.4018 19.5884 98.134 18.1108C98.0836 18.0525 97.8428 17.7486 97.836 17.7459C97.7503 17.6305 97.6646 17.5152 97.583 17.3972C97.3613 17.0783 97.1531 16.7486 96.9572 16.4121C96.5913 15.7866 96.2662 15.1381 95.9451 14.4881C95.2935 13.1693 94.6378 11.86 93.7386 10.6877C92.589 9.1884 91.1361 7.98219 89.4724 7.07855C87.6481 6.08807 85.6701 5.41237 83.6499 4.91306C84.0526 4.59963 84.3778 4.20209 84.4934 3.68921C84.6689 2.91311 84.1356 2.15329 83.3126 2.14379C78.3526 2.08273 73.6416 -0.161446 68.6789 0.0108699C64.897 0.141125 60.8866 1.54136 57.8979 3.85338C56.3321 5.06367 55.0887 6.57516 54.2792 8.35396C52.5134 8.23998 50.628 8.48964 49.156 9.45569C47.7086 10.4041 46.5414 11.7175 45.6408 13.1829C43.9716 15.8952 43.2438 19.0593 41.614 21.7905C40.674 23.3631 39.4265 24.6127 37.7954 25.4675C37.1656 25.7972 37.0962 26.5584 37.356 27.1378C37.7723 28.0618 39.2089 28.6303 40.0986 28.865C40.1353 28.8745 40.1734 28.8813 40.2101 28.8908C39.5748 31.0251 39.3857 33.2475 39.9 35.4524C40.4985 38.0222 41.8235 40.4319 42.1133 43.075C42.1854 43.7303 42.6248 44.2961 43.3377 44.2961C43.9444 44.2961 44.6341 43.7344 44.562 43.075C44.2722 40.4183 43.1445 38.0358 42.4371 35.4863C41.8154 33.2475 42.033 31.1133 42.7527 28.9708C43.7118 28.8053 44.6382 28.4281 45.4762 27.8854C46.793 27.0333 45.5673 24.918 44.2396 25.7769C43.1812 26.4621 41.999 26.8393 40.7488 26.5096C40.7284 26.5041 40.7107 26.4987 40.6903 26.4933C42.7146 24.8949 44.06 22.6711 45.0912 20.256C46.2557 17.5288 47.1671 14.4841 49.3778 12.3837C49.9586 11.8328 50.5953 11.3417 51.3666 11.1002C52.44 10.7637 53.6276 10.6606 54.7418 10.8288C55.3947 10.9278 56.0586 10.6646 56.2477 9.97536C57.4027 6.65522 60.5819 4.56164 63.7802 3.46262C65.3582 2.91989 67.0451 2.50878 68.6789 2.45315C70.8787 2.37716 73.0444 2.89276 75.1761 3.369C76.5419 3.67428 77.9132 3.9755 79.294 4.20209C79.2192 4.23465 79.1457 4.26857 79.0723 4.30249C78.8219 4.42054 78.6505 4.64034 78.5567 4.89406C78.5526 4.90356 78.5485 4.91442 78.5444 4.92391V4.92934C78.5308 4.96191 78.5186 4.99583 78.509 5.0311C78.4682 5.17764 78.4614 5.3391 78.4832 5.49921C78.5009 5.66745 78.5499 5.83163 78.6328 5.97138C78.6465 5.99445 78.6614 6.0148 78.675 6.03515C78.8301 6.28752 79.0668 6.4829 79.3647 6.53175C82.2093 7.00392 85.1355 7.6267 87.7311 8.92246C89.3758 9.74198 90.5512 10.5995 91.7034 12.0269C91.6939 12.0187 91.9116 12.3037 91.951 12.3593C92.0544 12.5058 92.1564 12.6551 92.2544 12.8057C92.4639 13.1272 92.6598 13.4583 92.8461 13.7934C93.1808 14.3972 93.4842 15.0173 93.7903 15.636C94.4813 17.0362 95.2159 18.3836 96.2049 19.6006C97.1735 20.7919 98.3788 21.7593 99.6957 22.5409C99.6045 22.5721 99.5107 22.6006 99.41 22.6277C98.2727 22.9248 96.9695 22.587 95.8784 22.108C95.2731 21.8421 94.5643 21.9317 94.2038 22.5463C93.8991 23.0646 94.0351 23.9506 94.6432 24.2165C95.6635 24.6643 96.7559 24.9831 97.8388 25.0849C99.2454 27.6045 99.8535 30.6044 99.5746 33.4673C99.4195 35.0657 98.7938 36.5867 98.2169 38.0697C97.5857 39.6924 97.0253 41.2921 96.8321 43.0316C96.76 43.6883 97.447 44.2527 98.0564 44.2527C98.7788 44.2527 99.2073 43.6896 99.2808 43.0316C99.4712 41.307 100.217 39.6694 100.833 38.0642C101.461 36.4293 101.946 34.7916 102.059 33.0345C102.236 30.2707 101.667 27.3644 100.463 24.8325C101.349 24.5476 102.17 24.0347 102.872 23.2301C103.339 22.6942 103.392 21.6616 102.625 21.3129L102.622 21.3116ZM39.4959 25.9221C39.4837 25.9112 39.4769 25.9044 39.4782 25.9031C39.4687 25.9085 39.3925 25.8149 39.3803 25.8054C39.4415 25.8542 39.4769 25.8936 39.4959 25.9221ZM82.1454 3.03115C82.1454 3.03115 82.1454 3.02979 82.1454 3.02844C82.1454 3.02844 82.1454 3.02979 82.1454 3.03115Z" fill="#333333"/>
<path d="M84.6161 22.0225C86.4948 26.747 89.2999 31.0251 92.9172 34.6098C94.0368 35.7196 95.7685 33.9924 94.6489 32.8825C91.3473 29.6099 88.6959 25.6955 86.9777 21.3726C86.7342 20.7594 86.1588 20.332 85.4718 20.5192C84.8868 20.6793 84.3712 21.4052 84.6161 22.0212V22.0225Z" fill="#333333"/>
<path d="M48.729 46.3503C49.3357 41.7412 50.5573 37.1497 52.6727 32.9938C53.8018 30.7754 55.1663 28.6682 56.7756 26.7646C58.4503 24.7837 60.3371 22.8014 62.7164 21.6806C66.1269 20.0741 70.2108 21.3319 73.156 23.397C76.6277 25.8311 78.9186 29.5977 81.755 32.6722C83.4773 34.5392 85.4757 36.1647 87.6591 37.4672C90.0656 38.9014 92.8122 39.9882 95.6527 39.5445C96.3071 39.4428 96.6689 38.6259 96.5084 38.0425C96.3166 37.3465 95.6582 37.0873 95.0025 37.1891C92.7129 37.5459 90.2901 36.2434 88.4277 35.0711C86.5137 33.8662 84.8145 32.409 83.2963 30.7374C80.3225 27.4634 77.8902 23.6439 74.1641 21.1311C70.8842 18.9181 66.3296 17.6889 62.5097 19.1352C59.8637 20.1379 57.7551 22.0334 55.8737 24.0931C54.0848 26.0523 52.5108 28.2191 51.2144 30.5325C48.4759 35.4171 47.0081 40.8308 46.2803 46.3503C46.1946 47.0057 46.9047 47.5715 47.5046 47.5715C48.2379 47.5715 48.6419 47.007 48.729 46.3503Z" fill="#333333"/>
<path d="M23.8706 100.399C27.0784 98.2039 30.7923 96.7426 34.3402 95.1877C38.3356 93.4374 42.3447 91.7142 46.37 90.0331C48.8691 88.9898 51.281 87.8242 53.6644 86.5407C55.052 85.7931 53.8168 83.6846 52.4278 84.4322C48.3589 86.6235 44.1077 88.3398 39.8633 90.1553C36.276 91.6898 32.6887 93.2285 29.1353 94.839C26.9043 95.8512 24.6597 96.9027 22.634 98.2894C21.343 99.1727 22.566 101.291 23.8693 100.398L23.8706 100.399Z" fill="#333333"/>
<path d="M113.187 97.9108C105.453 94.1782 97.3489 91.2611 89.6382 87.4932C89.2342 87.2964 88.8329 87.097 88.4316 86.8962C88.199 86.7781 87.9677 86.6601 87.7364 86.5421C87.4399 86.3901 87.2617 86.1771 87.1787 85.941C87.1474 85.8555 87.1283 85.7673 87.1229 85.6778C87.1175 85.6072 87.1188 85.5353 87.127 85.4634C87.1773 85.0211 87.482 84.5896 87.9065 84.3956C88.2112 84.2545 88.5771 84.2368 88.9553 84.4254C88.9608 84.4281 88.9662 84.4308 88.9717 84.4336C89.0887 84.4933 89.2056 84.553 89.3226 84.614C90.4232 85.1784 91.5224 85.7429 92.6379 86.2802C94.9859 87.4118 97.4224 88.3629 99.8221 89.3819C102.173 90.3819 104.52 91.3913 106.862 92.4103C110.36 93.9327 113.951 95.3817 117.265 97.2799C120.05 98.8755 122.421 100.954 123.701 103.947C125.453 108.044 125.629 112.731 125.888 117.113C126.581 128.816 127.045 140.533 127.427 152.25C127.641 158.832 127.826 165.417 128 172H125.554C125.346 164.227 125.125 156.454 124.859 148.683C124.463 137.123 123.977 125.564 123.251 114.02C123.117 111.912 122.828 109.772 122.349 107.714C121.972 106.097 121.565 104.843 120.719 103.489C120.077 102.462 118.975 101.352 117.989 100.638C116.495 99.5594 114.842 98.71 113.187 97.9108Z" fill="#333333"/>
<path d="M12.6895 45.4602C13.9111 39.2976 18.3106 38.4943 18.3106 38.4943C18.3106 38.4943 13.9125 37.6911 12.6895 31.5284C11.4678 37.6911 7.06836 38.4943 7.06836 38.4943C7.06836 38.4943 11.4665 39.2976 12.6895 45.4602Z" fill="#FFDC00"/>
<path d="M18.6359 37.3166C18.4141 37.2746 18.2033 37.1904 17.9897 37.1185C17.972 37.1131 17.957 37.1077 17.9461 37.1036C17.9312 37.0955 17.9135 37.086 17.889 37.0737C17.7639 37.0086 17.636 36.9503 17.5122 36.8824C17.2306 36.7291 16.9585 36.5554 16.7014 36.3628C16.7286 36.3791 16.4266 36.1294 16.3722 36.0792C16.2144 35.9354 16.062 35.7848 15.9164 35.6274C15.6131 35.3017 15.4281 35.0562 15.1832 34.6681C14.5098 33.6044 14.1248 32.4321 13.8704 31.2055C13.6296 30.0413 11.7496 30.04 11.5088 31.2055C11.2612 32.4049 10.8871 33.5555 10.2382 34.6016C9.98245 35.0127 9.77975 35.2868 9.46278 35.6274C9.31722 35.7848 9.16486 35.9354 9.00705 36.0792C8.94584 36.1348 8.65607 36.375 8.68192 36.3601C8.42345 36.5541 8.15001 36.7291 7.86705 36.8838C7.74325 36.9516 7.61538 37.01 7.49022 37.0751C7.46982 37.086 7.45349 37.0941 7.44125 37.1009C7.43445 37.1036 7.42901 37.105 7.41948 37.1077C7.19502 37.1823 6.97736 37.2732 6.74337 37.318C5.5748 37.5378 5.5748 39.4536 6.74337 39.6734C6.96647 39.7155 7.17597 39.7996 7.38955 39.8715C7.40724 39.8769 7.4222 39.8824 7.43309 39.8864C7.44805 39.8946 7.46574 39.9041 7.49022 39.9163C7.61538 39.9814 7.74325 40.0398 7.86705 40.1076C8.14865 40.2609 8.42073 40.4346 8.67784 40.6273C8.65063 40.611 8.95264 40.8606 9.00705 40.9108C9.16486 41.0547 9.31722 41.2053 9.46278 41.3627C9.76615 41.6883 9.95116 41.9339 10.196 42.3219C10.8694 43.3857 11.2544 44.558 11.5088 45.7845C11.6462 46.4507 12.1672 46.7058 12.6883 46.657C13.2093 46.7085 13.733 46.4534 13.8704 45.7845C14.118 44.5851 14.4921 43.4345 15.141 42.3884C15.3968 41.9773 15.5995 41.7032 15.9164 41.3627C16.062 41.2053 16.2144 41.0547 16.3722 40.9108C16.4334 40.8552 16.7218 40.615 16.6973 40.63C16.9558 40.4359 17.2292 40.2609 17.5122 40.1062C17.636 40.0384 17.7639 39.9801 17.889 39.9149C17.9094 39.9041 17.9257 39.8959 17.938 39.8891C17.9448 39.8864 17.9502 39.8851 17.9597 39.8824C18.1842 39.8077 18.4019 39.7168 18.6359 39.6721C19.8044 39.4523 19.8044 37.5364 18.6359 37.3166ZM15.0934 38.8023C14.0745 39.6069 13.2855 40.6313 12.691 41.7643C12.0965 40.6313 11.3061 39.6069 10.2885 38.8023C10.1566 38.6979 10.0205 38.5947 9.88042 38.4943C10.0205 38.3926 10.1566 38.2895 10.2885 38.1863C11.3075 37.3817 12.0965 36.3573 12.691 35.2244C13.2855 36.3573 14.0758 37.3817 15.0934 38.1863C15.2254 38.2908 15.3614 38.3939 15.5015 38.4943C15.3614 38.5961 15.2254 38.6992 15.0934 38.8023Z" fill="white"/>
<path d="M23.3484 56.555C24.1932 52.2918 27.2364 51.7369 27.2364 51.7369C27.2364 51.7369 24.1946 51.182 23.3484 46.9188C22.5036 51.182 19.4604 51.7369 19.4604 51.7369C19.4604 51.7369 22.5023 52.2918 23.3484 56.555Z" fill="#FFDC00"/>
<path d="M27.5614 50.5592C27.4132 50.5307 27.273 50.4778 27.1316 50.4276C27.0581 50.3869 26.9806 50.3543 26.9057 50.3136C26.7221 50.2145 26.5439 50.1019 26.3752 49.9798C26.348 49.954 26.2092 49.8428 26.2038 49.836C26.0949 49.7342 25.9875 49.6338 25.8841 49.5253C25.6814 49.3123 25.5794 49.182 25.412 48.9201C24.9536 48.2024 24.7033 47.4222 24.5291 46.5945C24.2843 45.4304 22.4124 45.429 22.1675 46.5945C21.9934 47.4236 21.7431 48.2037 21.2846 48.9201C21.1309 49.1603 21.0316 49.2892 20.8575 49.4778C20.7418 49.604 20.6167 49.7193 20.4929 49.8373C20.4711 49.8577 20.3555 49.9513 20.3228 49.9798C20.165 50.0938 20.0004 50.1996 19.8304 50.2932C19.7433 50.3407 19.6535 50.3828 19.5651 50.4289C19.4236 50.4791 19.2835 50.532 19.1352 50.5605C17.9666 50.783 17.9666 52.6934 19.1352 52.916C19.2835 52.9445 19.4236 52.9974 19.5651 53.0476C19.6386 53.0883 19.7161 53.1208 19.7909 53.1615C19.9746 53.2606 20.1528 53.3732 20.3215 53.4953C20.3487 53.5211 20.4874 53.6324 20.4942 53.6391C20.6031 53.7409 20.7105 53.8413 20.8139 53.9499C21.0166 54.1629 21.1187 54.2931 21.286 54.555C21.7444 55.2728 21.9947 56.0529 22.1689 56.8806C22.309 57.5441 22.8287 57.7992 23.3483 57.753C23.8694 57.8019 24.3904 57.5481 24.5305 56.8806C24.7046 56.0516 24.9549 55.2714 25.4134 54.555C25.5671 54.3148 25.6664 54.1859 25.8406 53.9973C25.9562 53.8712 26.0813 53.7558 26.2051 53.6378C26.2269 53.6174 26.3425 53.5238 26.3752 53.4953C26.533 53.3814 26.6976 53.2755 26.8676 53.1819C26.9547 53.1344 27.0445 53.0923 27.1329 53.0462C27.2744 52.9974 27.4145 52.9431 27.5628 52.9146C28.7314 52.6921 28.7314 50.7817 27.5628 50.5592H27.5614ZM24.6162 51.7369C24.1265 52.1751 23.7034 52.7029 23.3483 53.2742C22.9933 52.7029 22.5702 52.1751 22.0805 51.7369C22.5702 51.2986 22.9933 50.7708 23.3483 50.1996C23.7034 50.7708 24.1265 51.2986 24.6162 51.7369Z" fill="white"/>
<path d="M59.6243 42.3775C60.0514 42.3545 60.4772 42.3246 60.9044 42.3518C60.9316 42.3531 61.2186 42.3884 61.0826 42.3694C60.9466 42.3504 61.2853 42.4074 61.3139 42.4128C61.688 42.4847 62.058 42.5743 62.4294 42.6625C63.9612 43.0288 64.6142 40.6747 63.081 40.307C61.9124 40.0275 60.8228 39.8688 59.6243 39.9339C58.0571 40.0194 58.0476 42.463 59.6243 42.3762V42.3775Z" fill="#333333"/>
<path d="M82.064 39.8946C80.8641 39.8606 79.7772 40.0384 78.6181 40.3491C77.0972 40.7548 77.7421 43.1116 79.2698 42.7045C79.6126 42.6123 79.9554 42.5214 80.3023 42.4427C80.4179 42.4169 80.5336 42.3925 80.6506 42.3694C80.6778 42.364 81.0668 42.3192 80.7852 42.345C81.2124 42.3056 81.6382 42.3246 82.0667 42.3368C83.6434 42.3816 83.6421 39.9393 82.0667 39.8946H82.064Z" fill="#333333"/>
<path d="M24.117 92.4197C24.4299 92.0697 24.6313 91.6884 24.6313 91.6884C25.5713 89.5148 23.8654 87.3005 22.0384 87.2014C21.8738 87.2082 21.7119 87.2258 21.5514 87.2557C21.7622 86.8378 21.833 86.5149 21.833 86.5149C21.8656 86.4036 21.8915 86.2937 21.9132 86.1865C22.086 86.1757 22.2111 86.1634 22.2111 86.1634C23.0818 86.0481 23.8912 85.5393 24.3701 84.8053C24.8489 84.0712 24.989 83.1255 24.7415 82.2857C24.4857 81.4132 23.8518 80.6995 23.1607 80.108C21.7649 78.9153 19.8971 78.0754 18.1028 78.473C17.7219 78.5585 17.3274 78.7159 17.1179 79.0442C17.1179 79.0442 16.8104 79.4838 16.9342 80.1025C15.3902 79.0551 12.3252 79.3278 10.3363 80.2409C7.42239 81.5787 4.04319 82.865 2.26381 85.7238C0.326622 88.8364 1.4503 93.9421 2.7141 97.1496C3.74663 99.7723 5.19136 105.615 5.62396 109.963L5.73143 111.132C8.97731 112.783 13.989 113.351 17.9994 112.647C18.2891 111.986 18.8932 111.488 18.8932 111.488C23.3253 108.3 22.822 103.877 23.2518 99.3449C23.2709 99.1346 23.2926 98.923 23.3171 98.7127C24.4694 97.8525 25.9644 97.0356 26.3739 95.5866C26.7943 93.7888 25.6067 92.4564 24.117 92.4197Z" fill="white"/>
<path d="M25.8934 91.6871C26.1981 90.7848 26.2022 89.8106 25.8172 88.8391C25.4744 87.9762 24.8799 87.2164 24.1236 86.6981C24.9629 86.1689 25.6118 85.367 25.9152 84.3372C26.4838 82.4105 25.5424 80.5734 24.1059 79.3142C22.7169 78.0972 20.962 77.1732 19.0765 77.1542C17.9052 77.142 16.6986 77.5599 16.0905 78.4282C14.8525 78.108 13.5044 78.1799 12.2637 78.3903C10.5877 78.6752 9.05184 79.4716 7.52549 80.1853C5.95561 80.9194 4.43334 81.7525 3.11512 82.8881C1.8282 83.9966 0.821515 85.4308 0.365786 87.0753C-0.102186 88.7659 -0.0640957 90.5528 0.169891 92.276C0.584808 95.3166 1.86493 98.0858 2.6594 101.029C3.55453 104.345 4.19255 107.712 4.5068 111.133C4.56666 111.79 5.02647 112.354 5.73114 112.354C6.34604 112.354 7.01671 111.794 6.95549 111.133C6.70654 108.43 6.29162 105.76 5.69441 103.112C5.3584 101.623 4.98157 100.141 4.53129 98.6829C4.17895 97.5391 3.71233 96.4373 3.35319 95.2962C2.55056 92.7495 1.86629 89.5406 2.97773 86.9789C4.1599 84.2544 7.3364 82.9288 9.86535 81.7891C11.3346 81.127 12.7575 80.61 14.3982 80.6548C14.9845 80.6711 15.7286 80.7416 16.232 81.0971C16.2415 81.1039 16.251 81.112 16.2605 81.1188C16.2782 81.1324 16.2973 81.1446 16.3136 81.1582C16.6278 81.4146 16.689 81.7701 16.6618 82.1364C16.5217 82.1961 16.383 82.2545 16.2496 82.3087C15.4008 82.6534 14.5628 83.0252 13.7452 83.439C11.993 84.325 10.3347 85.3779 8.71311 86.481C7.41938 87.3615 8.64237 89.4795 9.94834 88.5895C12.3725 86.9396 14.8988 85.3928 17.6604 84.3684C18.1474 84.1879 18.7106 83.8718 19.2398 83.9464C19.6329 84.0021 20.0179 84.1757 20.3009 84.4539C20.7049 84.8501 20.8015 85.3887 20.7185 85.9152C20.7117 85.945 20.7063 85.9762 20.7022 86.0074C20.6886 86.0739 20.6736 86.1391 20.6559 86.2042C19.5431 86.5624 18.5065 87.2978 17.5393 87.8649C15.9776 88.7794 14.3941 89.66 12.8936 90.6735C11.5958 91.5501 12.8201 93.6667 14.1288 92.782C15.2538 92.0222 16.4238 91.3357 17.5978 90.6559C18.6956 90.0209 19.7798 89.2272 20.9403 88.7156C21.8463 88.3167 22.6489 88.371 23.2611 89.2082C23.759 89.8879 23.7739 90.679 23.4379 91.2814C22.6067 91.4279 21.7919 91.8092 21.0504 92.2542C19.7921 93.01 18.5664 93.8119 17.2971 94.55C15.9368 95.3424 17.1679 97.4536 18.5324 96.6585C19.4411 96.1293 20.3376 95.5839 21.2273 95.0235C21.9973 94.5391 23.091 93.6083 24.0773 93.6355C24.0936 93.6355 24.1086 93.6382 24.1249 93.6382C24.1807 93.6409 24.2365 93.6463 24.2909 93.6558C25.0336 93.7902 25.4105 94.626 25.1602 95.3559C24.801 96.4061 23.5359 97.0425 22.6951 97.6598C22.6897 97.6639 22.6843 97.6679 22.6802 97.672C22.4965 97.7901 22.3523 97.9583 22.2517 98.1578C22.1632 98.3165 22.1088 98.4902 22.0966 98.6679C22.0939 98.6829 22.0911 98.6978 22.0898 98.7141C21.8109 101.196 21.932 103.764 21.2382 106.182C20.9212 107.289 20.4002 108.341 19.6248 109.202C18.7786 110.144 17.5216 110.741 16.9394 111.896C16.2333 113.296 18.3446 114.535 19.0534 113.128C19.1282 112.98 19.1949 112.852 19.3023 112.729C19.316 112.714 19.4221 112.617 19.4792 112.563C19.4901 112.555 19.501 112.547 19.5078 112.541C19.7118 112.385 19.9186 112.236 20.1199 112.077C20.6927 111.624 21.2164 111.118 21.6749 110.551C22.5659 109.447 23.208 108.194 23.5984 106.829C24.2909 104.415 24.2487 101.865 24.4718 99.3775C25.707 98.4997 27.0021 97.5933 27.4919 96.0954C28.0292 94.4509 27.3953 92.5731 25.8893 91.6857L25.8934 91.6871ZM19.0452 81.4919C18.9609 80.8244 18.7228 80.203 18.2889 79.6887C18.6875 79.5883 19.0956 79.5666 19.505 79.6209C20.5634 79.7606 21.5837 80.3481 22.3741 81.0415C23.0679 81.6493 23.7726 82.4282 23.6175 83.4227C23.5508 83.8474 23.3359 84.2002 23.0502 84.462C22.9672 84.1527 22.8461 83.8501 22.6747 83.5584C21.9361 82.2938 20.5022 81.515 19.0439 81.4933L19.0452 81.4919Z" fill="#333333"/>
<path d="M2.30718 109.551C3.3574 123.327 3.01459 137.174 4.23077 150.941C4.7001 156.245 5.27827 162.09 9.33085 166.016C11.0517 167.683 13.2501 168.78 15.5791 169.312C18.3339 169.94 21.0683 169.74 23.6856 168.657C29.153 166.394 33.4206 161.304 35.7631 155.98C36.0284 155.376 35.94 154.669 35.3237 154.31C34.8041 154.007 33.9157 154.14 33.6491 154.748C31.731 159.109 28.5218 163.289 24.3169 165.654C22.1906 166.85 19.6997 167.55 17.2565 167.158C15.1655 166.821 13.0787 166.063 11.5007 164.692C7.77049 161.453 7.17192 156.266 6.74204 151.622C6.12715 144.98 5.8986 138.309 5.69454 131.645C5.46872 124.279 5.31636 116.904 4.75588 109.554C4.70554 108.896 4.22941 108.333 3.53153 108.333C2.90848 108.333 2.25685 108.893 2.30718 109.554V109.551Z" fill="#333333"/>
<path d="M2.6663 110.415C4.51098 112.342 7.29705 113.266 9.85865 113.738C12.827 114.285 15.9246 114.341 18.8862 113.716C20.3282 113.412 21.7824 112.909 23.0081 112.079C24.3046 111.201 23.0802 109.083 21.7715 109.97C19.2521 111.677 15.7206 111.881 12.6896 111.659C9.826 111.451 6.3407 110.718 4.39671 108.689C3.30568 107.551 1.57663 109.28 2.66494 110.417L2.6663 110.415Z" fill="#333333"/>
<path d="M21.2097 111.349C22.7932 121.712 24.8079 132.035 25.967 142.458C26.2064 144.614 26.3996 146.775 26.469 148.944C26.5193 150.511 28.968 150.519 28.9176 148.944C28.7816 144.732 28.2238 140.537 27.6307 136.37C26.8771 131.07 25.9901 125.791 25.129 120.509C24.5971 117.241 24.0706 113.973 23.57 110.7C23.4707 110.048 22.6476 109.687 22.064 109.847C21.3648 110.038 21.109 110.695 21.2083 111.349H21.2097Z" fill="#333333"/>
</g>
<defs>
<clipPath id="clip0_240_1098">
<rect width="128" height="172" fill="white"/>
</clipPath>
</defs>
</svg>
