<svg width="115" height="161" viewBox="0 0 115 161" fill="none" xmlns="http://www.w3.org/2000/svg">
    <path
        d="M34.2162 26.6812C32.4108 26.7304 31.1216 25.716 31.032 25.4486C37.3663 22.2056 36.0803 14.2473 41.6418 10.5924C42.6651 9.9223 44.7023 9.54728 46.4861 9.84545C48.1585 4.89031 53.9704 2.62484 58.2645 2.12072C62.5585 1.6166 67.4615 4.00195 72.6891 4.02962C72.5654 4.90261 70.2654 5.4098 69.3256 5.87396C87.1416 8.78495 79.7716 17.0077 90.029 21.6062C89.4447 22.2886 88.44 23.0479 86.8664 23.0755C88.4925 25.6484 89.3303 29.3955 88.8233 32.5616C88.3812 35.3251 86.6377 38.0578 86.3656 40.8427C84.9559 40.686 83.3947 41.6204 82.5075 43.7875C82.5786 41.9586 82.0531 38.7894 81.3699 36.3118C78.8905 35.7769 76.2968 34.0986 74.4203 32.5831C69.5482 28.6885 66.8803 22.0734 60.6696 19.9586C57.9151 18.9842 54.3816 18.2095 50.1154 21.929C43.2586 28.1475 40.4763 36.0321 39.4654 43.7875C38.5751 41.6112 37.0077 40.6767 35.5949 40.8458C35.3136 38.0701 33.7772 35.3128 33.3382 32.5616C33.0352 30.6681 33.4989 28.5164 34.2162 26.7089V26.6812Z"
        fill="#333333" />
    <path
        d="M35.5949 40.8458C37.0077 40.6798 38.5751 41.6112 39.4654 43.7875C40.4763 36.0321 43.2555 28.1475 50.1154 21.929C54.3816 18.2095 57.9151 18.9842 60.6696 19.9586C66.8803 22.0734 69.5482 28.6885 74.4203 32.5831C76.2968 34.0986 78.8905 35.7769 81.3699 36.3087V36.3118C82.0531 38.7893 82.5786 41.9585 82.5075 43.7875C83.3948 41.6204 84.9559 40.6829 86.3656 40.8427C87.8835 41.0118 89.2221 42.4504 89.3458 44.974C90.0475 50.378 86.9715 56.4489 81.5337 58.072C81.5337 58.072 81.0885 58.2318 80.8536 58.2472H80.8474C79.243 63.1009 76.473 66.7742 73.1034 69.2671C65.9281 74.5788 56.0448 74.5204 48.9376 69.0704C45.7318 66.6113 43.0917 63.0548 41.5212 58.4009C41.4285 58.4101 40.8102 58.2379 40.8102 58.2379C35.2023 56.6457 31.8852 50.5716 32.6303 44.9771C32.7539 42.4596 34.0863 41.0241 35.598 40.8458H35.5949Z"
        fill="white" />
    <path
        d="M73.2732 76.3248C72.5375 78.1261 71.3596 80.0873 65.1026 85.3406C63.4085 86.6409 61.6649 89.7301 60.9477 92.5981C60.2336 89.7332 58.4065 86.3089 56.8577 85.3437C50.8294 80.4193 49.5063 78.3721 48.7705 76.5923C48.8323 76.2203 48.8756 75.5256 48.8942 75.2428C49.0487 73.1802 49.1013 70.6596 48.9282 69.0735C56.0323 74.5235 65.9187 74.5819 73.0939 69.2702C72.9239 70.8379 72.9981 73.1802 73.1558 75.2428C73.1681 75.4426 73.2207 76.0021 73.2671 76.3248H73.2732Z"
        fill="white" />
    <path
        d="M113.747 137.923C113.737 137.566 113.722 137.204 113.697 136.835C113.682 136.478 113.666 136.115 113.651 135.747C113.28 126.955 112.745 114.389 111.552 106.425C110.182 96.084 108.451 93.8124 100.079 89.9454C97.4609 88.7343 84.7026 83.4717 78.5568 80.5638C78.4981 80.5362 78.4393 80.5085 78.3837 80.4808C78.0189 80.3087 77.6758 80.1427 77.3666 79.989L77.1348 79.3742L76.9554 78.9838L76.94 78.9531L75.0666 74.9324L74.7265 74.2039L74.4607 73.6353C74.3741 73.792 74.2937 73.9396 74.2195 74.084C74.1979 74.124 74.1793 74.164 74.1577 74.2039C74.0279 74.4621 73.9197 74.705 73.8207 74.9417C73.6167 75.4273 73.459 75.87 73.2735 76.3249C73.1499 76.6262 73.017 76.9274 72.85 77.2502C72.0741 78.741 70.5809 80.6376 66.2591 84.3601C65.8943 84.6736 65.5109 85.0025 65.1029 85.3437C64.8277 85.5589 64.5495 85.8171 64.2744 86.1153C63.2356 87.2434 62.2495 88.9279 61.5601 90.6985C61.4519 90.9782 61.3499 91.261 61.2571 91.5438C61.1397 91.8973 61.0376 92.2477 60.9511 92.5982C60.8645 92.2539 60.7625 91.9004 60.645 91.5438C60.5554 91.2641 60.4534 90.9813 60.3452 90.6985C60.3142 90.6155 60.2802 90.5325 60.2493 90.4495C60.104 90.0776 59.9433 89.7118 59.7732 89.3521C59.6032 88.9894 59.4239 88.6328 59.2353 88.2947C58.7562 87.4248 58.2337 86.6563 57.7143 86.0876C57.4268 85.7741 57.1393 85.519 56.8611 85.3468C56.4716 85.0271 56.1006 84.7197 55.7482 84.4247C55.7296 84.4093 55.7142 84.3939 55.6956 84.3816C54.0386 82.9891 52.7959 81.8518 51.853 80.8897C50.4835 79.4972 49.7415 78.4797 49.2593 77.6098C49.0614 77.2532 48.9068 76.9182 48.7739 76.5954C48.5482 76.0483 48.3782 75.5257 48.1402 74.9509C48.0505 74.7357 47.9547 74.5144 47.8434 74.2808C47.831 74.2562 47.8217 74.2316 47.8094 74.207C47.7352 74.0533 47.6517 73.8935 47.559 73.7275C47.5435 73.6967 47.525 73.666 47.5095 73.6383L47.3642 73.9457L47.2436 74.207L46.9036 74.9355L45.0302 78.9562L45.0147 78.99L44.8354 79.3773L44.6036 79.9921C44.3562 80.115 44.0935 80.2411 43.8152 80.3763C43.741 80.4132 43.6638 80.4501 43.5865 80.487C43.5277 80.5146 43.469 80.5423 43.4103 80.57C43.0764 80.7268 42.7271 80.8927 42.3592 81.0649C41.8831 81.2862 41.3761 81.5198 40.8506 81.7627C34.3524 84.7321 24.5803 88.9125 22.3298 89.9515C13.9612 93.8185 12.2269 96.0901 10.8574 106.431C9.964 112.379 9.44155 123.743 9.38899 130.435C9.3859 130.813 9.38281 131.176 9.38281 131.523C9.39518 131.892 9.41682 132.255 9.45082 132.611C10.1804 140.382 15.949 145.011 22.305 144.083C22.7471 144.018 23.1923 143.926 23.6405 143.809C23.489 144.175 23.3066 144.606 23.1119 145.076C22.3359 146.957 21.3776 149.462 21.4518 150.99C21.7609 153.062 23.7302 154.639 25.7829 154.869C25.9622 154.891 26.1415 154.9 26.3239 154.897C26.3239 154.897 26.6176 154.897 26.9886 154.885C27.2328 154.879 27.511 154.866 27.7645 154.851C27.8789 154.912 27.9994 154.974 28.1169 155.029C28.1231 155.303 28.1293 155.576 28.1355 155.844C28.1386 155.988 28.1417 156.133 28.1447 156.277C28.1664 157.356 28.1787 158.398 28.1787 159.391C28.1787 159.597 28.1787 159.803 28.1787 160.015H94.9291C94.9291 159.738 94.9291 159.468 94.9291 159.2C94.9291 158.195 94.9414 157.144 94.9631 156.056C94.9723 155.675 94.9816 155.29 94.9909 154.9C95.3031 154.912 95.6154 154.919 95.9338 154.922C95.9987 154.922 96.0636 154.922 96.1285 154.922H96.2089C97.4239 154.931 98.6481 154.888 99.8352 154.777C99.9465 154.768 100.055 154.756 100.163 154.743C100.379 154.722 100.596 154.694 100.812 154.666C100.92 154.654 101.025 154.639 101.134 154.623L101.331 154.593C101.48 154.571 101.625 154.547 101.77 154.522C101.944 154.491 102.114 154.461 102.284 154.427C102.355 154.414 102.426 154.399 102.497 154.384C102.633 154.356 102.769 154.325 102.902 154.295C103.328 154.193 103.746 154.079 104.145 153.95C104.21 153.929 104.271 153.91 104.333 153.886C105.004 153.658 105.629 153.382 106.191 153.056C106.191 153.056 106.197 153.056 106.21 153.05C106.213 153.05 106.219 153.043 106.225 153.043C106.296 153.013 106.482 152.927 106.748 152.776C106.769 152.764 106.788 152.754 106.806 152.742C107.131 152.558 107.558 152.284 108.046 151.906C108.077 151.885 108.108 151.857 108.139 151.835C108.17 151.811 108.201 151.786 108.232 151.762C108.293 151.709 108.358 151.66 108.423 151.605C108.46 151.574 108.494 151.543 108.531 151.516C108.559 151.491 108.59 151.467 108.621 151.439C108.655 151.411 108.686 151.384 108.72 151.353C108.884 151.205 109.054 151.048 109.227 150.879C109.261 150.846 109.295 150.812 109.329 150.778L109.363 150.744C109.412 150.695 109.459 150.649 109.505 150.597C109.725 150.366 109.944 150.12 110.164 149.853C110.198 149.81 110.235 149.767 110.269 149.724C110.303 149.681 110.337 149.634 110.374 149.591C110.408 149.548 110.442 149.502 110.476 149.456C110.581 149.321 110.683 149.18 110.785 149.035C110.819 148.986 110.853 148.937 110.887 148.888C110.921 148.838 110.955 148.789 110.989 148.737C112.563 146.392 113.886 142.924 113.756 137.938L113.747 137.923Z"
        fill="white" />
    <path
        d="M29.279 160.006H27.0161C27.0161 158.669 26.9945 157.335 26.9883 155.998C26.9883 155.899 26.9883 155.801 26.9883 155.702C26.9883 155.475 26.9883 155.247 26.9883 155.02C26.9883 154.971 26.9883 154.925 26.9945 154.879C27.0779 154.129 27.8013 153.824 28.4103 153.963C28.8679 154.064 29.2574 154.418 29.2574 155.02C29.2574 155.567 29.2574 156.117 29.2636 156.665C29.2698 157.78 29.279 158.893 29.279 160.006Z"
        fill="#333333" />
    <path
        d="M96.1257 154.891V154.916C96.1164 155.3 96.1071 155.681 96.1009 156.065C96.0762 157.378 96.0669 158.693 96.0762 160.009H93.804C93.7978 158.675 93.804 157.338 93.8287 156.004C93.8349 155.635 93.8411 155.263 93.8535 154.891C93.8535 154.876 93.8535 154.857 93.8535 154.842C93.94 153.437 96.1597 153.452 96.1226 154.891H96.1257Z"
        fill="#333333" />
    <path
        d="M47.803 69.0705C47.9298 70.3185 47.9267 71.5757 47.8927 72.8299C47.8617 73.9611 47.8494 75.2122 47.6855 76.2911C47.5959 76.8936 47.837 77.5053 48.48 77.6805C49.0149 77.8281 49.7846 77.4992 49.8774 76.8905C50.2607 74.3576 50.338 71.6188 50.0752 69.0705C50.0134 68.4649 49.5991 67.9424 48.9407 67.9424C48.3749 67.9424 47.7412 68.4619 47.8061 69.0705H47.803Z"
        fill="#333333" />
    <path
        d="M74.4111 76.2021C74.2503 75.0125 74.1947 73.8106 74.1607 72.6118C74.1298 71.4929 74.2411 70.3832 74.2411 69.2674C74.2411 67.8134 71.9689 67.8104 71.9689 69.2674C71.9689 70.3802 71.8576 71.4898 71.8885 72.6118C71.9225 73.8106 71.9781 75.0125 72.1389 76.2021C72.2193 76.8077 72.6026 77.3303 73.2734 77.3303C73.8237 77.3303 74.4915 76.8108 74.408 76.2021H74.4111Z"
        fill="#333333" />
    <path
        d="M62.0885 97.1383C62.0885 100.197 62.0854 103.252 62.0823 106.308C62.0823 110.556 62.0762 114.804 62.0762 119.049C62.0762 123.104 62.0731 127.158 62.07 131.213V132.341C62.07 132.716 62.07 133.094 62.07 133.469V134.12C62.0669 138.925 62.0638 143.733 62.0638 148.537C62.0638 148.921 62.0638 149.302 62.0638 149.684V150.833C62.0638 153.889 62.0607 156.944 62.0576 160H59.7854C59.7854 156.797 59.7885 153.591 59.7916 150.388C59.7916 150.003 59.7916 149.622 59.7916 149.238V148.088C59.7916 147.483 59.7916 146.874 59.7916 146.269C59.7916 141.993 59.7978 137.72 59.7978 133.444V132.316C59.7978 131.941 59.7978 131.563 59.7978 131.188V130.257C59.8009 125.384 59.804 120.512 59.807 115.64C59.807 111.647 59.8101 107.654 59.8132 103.664C59.8132 100.965 59.8163 98.2664 59.8194 95.5675C59.8194 94.6238 59.8194 93.6832 59.8194 92.7395V92.592C59.8194 92.4444 59.8441 92.3092 59.8874 92.1924C60.0142 91.8358 60.314 91.6175 60.651 91.5376C60.8519 91.4884 61.0622 91.4884 61.2631 91.5376C61.6001 91.6175 61.8968 91.8358 62.0236 92.1862C62.07 92.3061 62.0916 92.4413 62.0916 92.592V92.5981C62.0916 92.6442 62.0916 92.6903 62.0916 92.7395V92.7825C62.1194 94.2334 62.0916 95.6843 62.0916 97.1321L62.0885 97.1383Z"
        fill="#333333" />
    <path
        d="M43.472 79.9891C43.1196 82.6911 43.9388 85.556 44.8106 88.0889C45.6731 90.6033 46.7551 93.0594 47.9855 95.4171C48.3255 96.0656 48.6625 96.7265 49.1138 97.3075C49.5559 97.8731 50.5916 97.6702 50.8976 97.08C52.128 94.7008 52.7556 92.0696 53.9025 89.6566C54.4064 88.5961 54.9567 87.5263 55.881 86.8193C55.7821 86.8962 56.0047 86.7394 56.0387 86.721C56.1376 86.6595 56.2396 86.6011 56.3447 86.5488C56.4931 86.4751 56.3447 86.5304 56.558 86.472C56.6044 86.4597 56.6879 86.4505 56.725 86.4259C57.0527 86.2138 56.3262 86.5027 56.3725 86.3767C56.3725 86.3859 57.3494 87.4126 57.4947 87.6247C58.5953 89.217 59.3805 91.0367 59.8597 92.9057C60.2214 94.3135 62.4132 93.7172 62.0515 92.3063C61.5538 90.3758 60.7469 88.4608 59.6587 86.7855C59.2074 86.0877 58.6911 85.3777 58.0512 84.8367C57.3649 84.2557 56.7219 84.0344 55.8439 84.3356C52.9503 85.3285 51.7354 88.7682 50.7678 91.3564C50.1866 92.9057 49.6889 94.4949 48.9376 95.9488C49.5312 95.872 50.1278 95.7951 50.7214 95.7214C51.0491 96.1425 50.6658 95.5892 50.5823 95.4478C50.4092 95.1527 50.2453 94.8515 50.0846 94.5502C49.5776 93.5973 49.1046 92.6259 48.6563 91.6423C47.5434 89.1955 46.5727 86.6441 46.007 84.0129C45.7256 82.6972 45.5618 81.3662 45.7411 80.0014C45.8215 79.3958 45.163 78.8733 44.6065 78.8733C43.9264 78.8733 43.5493 79.3958 43.472 80.0014V79.9891Z"
        fill="#333333" />
    <path
        d="M57.6675 84.5446C55.3459 82.6449 52.916 80.6776 51.0642 78.2984C51.1817 78.449 50.888 78.0555 50.8231 77.9633C50.7118 77.8035 50.6036 77.6406 50.5016 77.4777C50.3223 77.1918 50.1584 76.8967 50.0131 76.5924C49.9513 76.4664 49.8957 76.3372 49.8369 76.2081C49.9822 76.5278 49.8091 76.1374 49.7627 76.0206C49.6607 75.7563 49.5649 75.4919 49.466 75.2276C49.1877 74.4868 48.8786 73.7582 48.4922 73.0697C48.1026 72.375 46.8939 72.292 46.5291 73.0697C45.5058 75.2614 44.3558 77.4285 43.5088 79.6939C43.2955 80.2657 43.7468 80.9327 44.3033 81.0834C44.9401 81.2586 45.4842 80.8682 45.7006 80.2934C45.7531 80.152 45.8088 80.0136 45.8582 79.8722C45.9974 79.4757 45.7655 80.0321 45.8335 79.9122C45.917 79.7616 45.9819 79.5925 46.0561 79.4357C46.3622 78.781 46.6651 78.1293 46.9712 77.4746C47.4782 76.3864 47.9852 75.2983 48.4922 74.2101H46.5291C46.6991 74.5144 46.8568 74.828 47.0021 75.1446C47.0206 75.1845 47.1288 75.4397 47.0515 75.2552C46.9774 75.08 47.067 75.289 47.0825 75.3321C47.1381 75.4796 47.1968 75.6241 47.2525 75.7716C47.4782 76.371 47.6977 76.9735 47.9666 77.5545C48.7549 79.2698 50.0688 80.7206 51.4012 82.0393C52.8727 83.4933 54.4586 84.8366 56.06 86.1461C56.533 86.5334 57.2038 86.6072 57.6675 86.1461C58.0694 85.7465 58.1436 84.938 57.6675 84.5476V84.5446Z"
        fill="#333333" />
    <path
        d="M78.5103 80.0687C78.5196 79.9427 78.5103 79.8135 78.4608 79.6906C77.6138 77.4251 76.4607 75.258 75.4405 73.0663C75.0757 72.2856 73.8669 72.3747 73.4774 73.0663C73.1281 73.6873 72.8437 74.3359 72.5809 74.9967C72.4789 75.255 72.3831 75.5162 72.281 75.7744C72.2378 75.8851 72.1914 75.9958 72.1481 76.1033C72.1481 76.1064 72.1481 76.1095 72.145 76.1126C72.1079 76.1864 72.077 76.2632 72.0399 76.34C71.7462 76.964 71.3845 77.5481 70.9734 78.1014C70.9332 78.1567 70.8899 78.2121 70.8497 78.2643C70.8312 78.2858 70.726 78.418 70.7013 78.4487C70.5251 78.6639 70.3458 78.8729 70.1603 79.082C69.7615 79.5308 69.3442 79.9673 68.9176 80.3914C67.5017 81.8054 65.99 83.1211 64.4597 84.4121C63.8445 84.781 63.3097 85.4849 62.9109 85.9952C61.4672 87.8395 60.4439 90.0404 59.8596 92.2998C59.4949 93.7076 61.6867 94.3101 62.0515 92.8992C62.6358 90.6337 63.7147 88.1285 65.4984 86.4993C65.5386 86.5116 65.5726 86.5239 65.5726 86.5208C65.7519 86.6007 65.922 86.7053 66.0827 86.8159C66.2311 86.9204 66.7134 87.3969 66.8741 87.6028C67.5388 88.4512 68.018 89.4687 68.4322 90.4554C69.3565 92.644 69.981 94.9648 71.0785 97.0797C71.3845 97.6699 72.4202 97.8728 72.8622 97.3072C73.901 95.9762 74.5873 94.2917 75.2797 92.7701C76.4947 90.1019 77.5921 87.3293 78.1888 84.4521C78.4856 83.0227 78.6896 81.5257 78.5134 80.0687H78.5103ZM65.2264 86.4501C65.2542 86.4471 65.282 86.4409 65.3098 86.4347C65.3191 86.4347 65.3284 86.4409 65.3377 86.444C65.2913 86.4532 65.2542 86.4532 65.2264 86.4501ZM74.9737 87.4891C74.2039 89.7238 73.2518 91.9002 72.1667 94.0027C71.3443 91.9309 70.723 89.7484 69.6595 87.775C69.0845 86.7114 68.3425 85.6447 67.3347 84.9377C69.1927 83.3485 71.0228 81.6856 72.5284 79.7736C73.3692 78.7039 73.9721 77.588 74.476 76.3493C74.6491 76.7243 74.8253 77.0993 74.9984 77.4743C75.3045 78.1291 75.6074 78.7807 75.9135 79.4355C75.9753 79.5676 76.031 79.709 76.099 79.8382C76.1484 79.9796 76.2041 80.1179 76.2566 80.2593C76.5039 82.7061 75.7651 85.1837 74.9737 87.4922V87.4891Z"
        fill="#333333" />
    <path
        d="M86.3657 39.7148C83.9512 39.4904 82.2571 41.4884 81.4101 43.4896C81.172 44.0521 81.6667 44.7314 82.2046 44.879C82.86 45.0572 83.3639 44.6546 83.6019 44.089C83.8678 43.4619 84.3748 42.7395 84.8385 42.3983C85.092 42.2139 85.3084 42.1094 85.4722 42.0571C85.8494 41.9372 85.7907 41.9434 86.2049 41.9587C86.5388 41.971 87.0056 42.2016 87.3549 42.5705C87.7383 42.9731 87.9948 43.6279 88.1247 44.2734C88.8233 47.7192 87.7723 51.6415 85.4197 54.2574C84.6375 55.1274 83.6297 55.9635 82.5199 56.5198C82.6467 56.0127 82.761 55.4993 82.863 54.986C82.9805 54.3865 82.693 53.7656 82.0686 53.5966C81.5121 53.4459 80.7887 53.7841 80.6712 54.3866C79.8736 58.4749 78.1981 62.4555 75.49 65.5325C73.1096 68.2376 70.0954 70.2079 66.7443 71.2346C63.4705 72.2367 60.0112 72.3443 56.7497 71.5635C53.2996 70.7367 50.2298 69.0122 47.7258 66.507C44.4519 63.2302 42.5074 58.8898 41.6264 54.3066C41.512 53.7072 40.7855 53.366 40.229 53.5166C39.5984 53.6888 39.3202 54.3036 39.4345 54.906C39.5489 55.5024 39.685 56.0956 39.8333 56.6828C39.753 56.6459 39.6757 56.6121 39.5953 56.5721C38.7884 56.1725 38.0403 55.6714 37.3756 55.069C36.0278 53.8455 34.986 52.284 34.3739 50.5718C33.7308 48.7736 33.5608 46.9538 33.7463 45.0634C33.8205 44.3011 33.938 43.5818 34.3337 42.9393C34.6088 42.4936 35.0262 42.1432 35.428 42.0325C35.9474 41.888 36.3771 41.9465 36.9181 42.2661C37.5117 42.6166 38.0589 43.3727 38.3649 44.092C38.6029 44.6546 39.1161 45.0572 39.7622 44.882C40.294 44.7376 40.7948 44.0582 40.5567 43.4926C39.7591 41.6022 38.3062 39.8193 36.0896 39.7056C34.074 39.6011 32.5221 41.0888 31.876 42.8717C31.4926 43.9291 31.4154 45.1402 31.3875 46.2561C31.3597 47.4365 31.4988 48.6322 31.7709 49.7788C32.3181 52.0903 33.4773 54.2728 35.1065 56.0126C35.9814 56.944 37.017 57.7586 38.1454 58.3673C38.9152 58.7822 39.7901 59.1818 40.6773 59.3939C41.7098 62.2035 43.1968 64.8348 45.1846 67.1064C47.766 70.0543 51.1727 72.2552 54.9257 73.4079C62.3266 75.6826 70.5777 73.6169 76.0712 68.2099C78.6309 65.6893 80.4857 62.5816 81.6914 59.231C82.5446 59.0158 83.401 58.5978 84.1336 58.1828C85.1105 57.6264 86.0163 56.9133 86.7923 56.1018C88.3813 54.4357 89.5158 52.3393 90.1001 50.12C90.9843 46.7633 91.1234 40.1574 86.3595 39.7179L86.3657 39.7148Z"
        fill="#333333" />
    <path
        d="M50.8575 40.3233C51.0615 40.2833 51.2656 40.2434 51.4727 40.2034C51.5067 40.1972 51.8406 40.1634 51.5747 40.1849C51.6613 40.1788 51.7447 40.1696 51.8313 40.1665C52.3785 40.1419 52.9288 40.2065 53.4728 40.2556C54.085 40.314 54.6074 39.6962 54.6074 39.1275C54.6074 38.4697 54.085 38.0547 53.4728 37.9994C52.3507 37.8918 51.3583 37.9256 50.2516 38.1439C49.6487 38.2638 49.3056 38.9769 49.4571 39.5333C49.6302 40.1573 50.2516 40.4401 50.8544 40.3233H50.8575Z"
        fill="#333333" />
    <path
        d="M71.777 38.144C70.6733 37.9257 69.6779 37.895 68.5557 37.9995C67.9436 38.0579 67.4211 38.476 67.4211 39.1276C67.4211 39.6932 67.9436 40.3142 68.5557 40.2557C69.0998 40.2035 69.6501 40.142 70.1973 40.1666C70.2838 40.1697 70.3673 40.1758 70.4538 40.1851C70.2838 40.1697 70.4013 40.1758 70.5033 40.1943C70.7259 40.2342 70.9485 40.2773 71.1711 40.3203C71.7708 40.4402 72.3984 40.1512 72.5684 39.5303C72.723 38.9739 72.3798 38.2608 71.7739 38.1409L71.777 38.144Z"
        fill="#333333" />
    <path
        d="M53.6923 43.6955C52.7556 42.4199 51.3026 42.7273 50.604 43.7816C49.8157 44.9558 49.9177 47.0338 50.706 48.1957C50.975 48.5738 51.3552 48.8044 51.7942 48.8843C53.5285 49.1917 54.2457 47.5994 54.2364 46.2838C54.2333 45.4846 54.1777 44.3626 53.6892 43.6955H53.6923Z"
        fill="#333333" />
    <path
        d="M71.5358 43.6955C70.5991 42.4199 69.1461 42.7273 68.4475 43.7816C67.6592 44.9558 67.7612 47.0338 68.5495 48.1957C68.8185 48.5738 69.1987 48.8044 69.6377 48.8843C71.372 49.1917 72.0892 47.5994 72.0799 46.2838C72.0768 45.4846 72.0212 44.3626 71.5327 43.6955H71.5358Z"
        fill="#333333" />
    <path
        d="M61.0284 55.6067C61.8821 55.6067 62.5741 55.1429 62.5741 54.5708C62.5741 53.9987 61.8821 53.5349 61.0284 53.5349C60.1747 53.5349 59.4827 53.9987 59.4827 54.5708C59.4827 55.1429 60.1747 55.6067 61.0284 55.6067Z"
        fill="#333333" />
    <path
        d="M80.2752 36.6162C80.9028 38.9247 81.4438 41.3869 81.3696 43.7907C81.3263 45.2447 83.5985 45.2447 83.6418 43.7907C83.7191 41.1963 83.141 38.5036 82.464 36.0137C82.0837 34.612 79.8919 35.2084 80.2722 36.6131L80.2752 36.6162Z"
        fill="#333333" />
    <path
        d="M90.6007 20.6318C88.8973 19.8602 87.6144 19.0395 86.4366 17.6716C86.3902 17.6194 86.1676 17.3366 86.1614 17.3335C86.081 17.2259 86.0037 17.1183 85.9265 17.0107C85.7193 16.7156 85.5277 16.4113 85.3453 16.1009C85.0052 15.523 84.7053 14.9205 84.4055 14.3211C83.7996 13.1007 83.1936 11.8896 82.3589 10.8076C81.2924 9.42126 79.9445 8.30543 78.4019 7.46932C76.7078 6.5533 74.8746 5.9293 73.0012 5.46514C73.3752 5.17619 73.6751 4.80733 73.7833 4.33395C73.9471 3.61773 73.4525 2.9138 72.6889 2.90458C68.0858 2.84925 63.7176 0.771288 59.1113 0.931131C55.6025 1.05101 51.8805 2.3482 49.1074 4.48457C47.6545 5.60347 46.5014 7.0021 45.7501 8.64664C44.1117 8.54212 42.3619 8.77266 40.9955 9.6641C39.6538 10.5402 38.5687 11.7574 37.734 13.1099C36.1852 15.6182 35.5113 18.5446 33.9965 21.0714C33.1247 22.5253 31.9654 23.6811 30.4537 24.4711C29.8694 24.7754 29.8045 25.4793 30.0456 26.0173C30.4321 26.8718 31.7645 27.3975 32.5899 27.6157C32.6239 27.6249 32.6579 27.6311 32.6919 27.6403C32.1014 29.6137 31.9283 31.6702 32.4044 33.7082C32.9609 36.0843 34.1882 38.3129 34.4571 40.7566C34.5251 41.3622 34.9301 41.8848 35.5917 41.8848C36.1543 41.8848 36.7942 41.3653 36.7262 40.7566C36.4573 38.3006 35.4124 36.0966 34.7539 33.7389C34.1789 31.6671 34.3798 29.6937 35.0476 27.7141C35.9379 27.5604 36.7973 27.213 37.5733 26.712C38.7944 25.9251 37.6568 23.967 36.4264 24.76C35.4433 25.3933 34.3489 25.7437 33.1865 25.4394C33.168 25.4332 33.1494 25.4302 33.134 25.424C35.0136 23.9455 36.2594 21.889 37.2178 19.6543C38.2998 17.1306 39.1437 14.3149 41.1934 12.3722C41.7313 11.8619 42.3217 11.407 43.0389 11.1857C44.0344 10.8752 45.138 10.7799 46.1706 10.9336C46.7765 11.0258 47.3917 10.783 47.5679 10.1436C48.6375 7.07279 51.5899 5.13623 54.5545 4.11877C56.0199 3.61772 57.5842 3.23656 59.099 3.1843C61.1393 3.1136 63.1487 3.59006 65.1273 4.0327C66.3948 4.3155 67.6653 4.59215 68.9483 4.80425C68.8803 4.83499 68.8092 4.86573 68.7412 4.89647C68.5093 5.00713 68.3485 5.21001 68.262 5.44362C68.2589 5.45284 68.2558 5.46206 68.2527 5.47129C68.2527 5.47129 68.2527 5.47437 68.2527 5.47744C68.2403 5.50818 68.2311 5.53892 68.2218 5.57273C68.1847 5.70798 68.1785 5.8586 68.1971 6.00615C68.2125 6.16292 68.2589 6.31354 68.3362 6.44264C68.3485 6.46416 68.3609 6.4826 68.3764 6.50105C68.5186 6.73466 68.7381 6.91602 69.0163 6.96213C71.6533 7.39863 74.3707 7.97652 76.7789 9.17227C78.303 9.93153 79.3943 10.7246 80.4639 12.0433C80.4546 12.0371 80.6586 12.2984 80.6927 12.3507C80.7885 12.4859 80.8812 12.6243 80.974 12.7626C81.1687 13.0608 81.348 13.3651 81.5212 13.6755C81.8334 14.235 82.1147 14.8067 82.396 15.3785C83.036 16.6726 83.7192 17.9206 84.6373 19.0457C85.5338 20.1461 86.6529 21.0437 87.8772 21.7661C87.7937 21.7937 87.704 21.8214 87.6113 21.846C86.5571 22.1196 85.3453 21.8091 84.3344 21.3665C83.7717 21.1205 83.1133 21.2035 82.7794 21.7722C82.4981 22.2517 82.6217 23.0694 83.1874 23.3184C84.1334 23.7334 85.1474 24.0285 86.1521 24.1207C87.4567 26.4507 88.0224 29.2264 87.7628 31.8731C87.6175 33.3516 87.0394 34.7564 86.5046 36.1304C85.9172 37.6305 85.3978 39.109 85.2185 40.7198C85.1505 41.3284 85.7873 41.8479 86.3531 41.8479C87.0239 41.8479 87.4227 41.3284 87.4876 40.7198C87.6638 39.1244 88.3563 37.609 88.9282 36.1273C89.5125 34.615 89.9608 33.0996 90.0659 31.4765C90.2297 28.919 89.7042 26.2324 88.5851 23.8901C89.4074 23.6258 90.171 23.1524 90.8202 22.4085C91.253 21.9136 91.3025 20.9576 90.5914 20.6349L90.6007 20.6318ZM32.0365 24.8953C32.0365 24.8953 32.018 24.8799 32.0211 24.8769C32.0118 24.8799 31.9407 24.7939 31.9314 24.7877C31.9901 24.8338 32.0211 24.8676 32.0396 24.8953H32.0365Z"
        fill="#333333" />
    <path
        d="M73.8948 21.2895C75.6384 25.6606 78.2414 29.6167 81.5956 32.9304C82.6343 33.9571 84.2419 32.3586 83.2031 31.332C80.1395 28.3042 77.6818 24.6831 76.0866 20.687C75.861 20.1214 75.3262 19.7249 74.6893 19.897C74.1483 20.0446 73.6691 20.7147 73.8948 21.2864V21.2895Z"
        fill="#333333" />
    <path
        d="M40.6032 43.7905C41.1658 39.527 42.3004 35.2819 44.2604 31.4364C45.3084 29.3831 46.5728 27.4342 48.0659 25.6759C49.6209 23.8439 51.3707 22.0088 53.578 20.9729C56.7405 19.4882 60.5306 20.6501 63.2634 22.559C66.4847 24.8091 68.6116 28.2949 71.2424 31.1383C72.8407 32.8658 74.6925 34.369 76.7205 35.5739C78.9525 36.9018 81.4998 37.9039 84.1368 37.4951C84.7428 37.3998 85.0797 36.6467 84.9313 36.1057C84.752 35.4633 84.143 35.2235 83.534 35.3157C81.4102 35.6446 79.1627 34.4396 77.4346 33.3576C75.657 32.2418 74.0835 30.8954 72.6738 29.3493C69.9162 26.3215 67.6595 22.7895 64.2002 20.4626C61.1582 18.4154 56.9322 17.278 53.3894 18.6152C50.9348 19.5435 48.9779 21.2956 47.2343 23.2015C45.5742 25.0151 44.1151 27.0192 42.9125 29.1587C40.3713 33.6773 39.0111 38.6847 38.3341 43.7874C38.2537 44.393 38.9122 44.9155 39.4687 44.9155C40.1488 44.9155 40.5228 44.393 40.6032 43.7874V43.7905Z"
        fill="#333333" />
    <path
        d="M95.5626 132.891C95.4636 129.983 95.5409 127.069 95.7666 124.167C95.9274 122.108 96.1067 119.993 96.6538 117.992C97.0403 116.587 94.8484 115.987 94.462 117.392C93.8777 119.519 93.686 121.776 93.5098 123.964C93.2687 126.931 93.1883 129.915 93.2904 132.891C93.3398 134.342 95.612 134.348 95.5626 132.891Z"
        fill="#333333" />
    <path
        d="M103.925 98.3402C101.483 99.4591 99.7328 101.903 98.4468 104.162C97.1824 106.385 96.0911 108.878 95.6676 111.407C95.5686 112.01 95.8252 112.625 96.4621 112.797C97.0061 112.944 97.7574 112.612 97.8594 112.007C98.2427 109.707 99.1887 107.476 100.323 105.45C101.445 103.446 102.908 101.279 105.072 100.289C105.628 100.034 105.767 99.2347 105.48 98.7429C105.146 98.1742 104.484 98.082 103.925 98.3371V98.3402Z"
        fill="#333333" />
    <path
        d="M17.9924 100.289C19.634 101.045 20.8953 102.466 21.9093 103.923C22.9295 105.392 23.8105 107.006 24.3175 108.727C24.7287 110.12 26.9205 109.526 26.5093 108.128C25.9312 106.17 24.9451 104.294 23.7641 102.631C22.5616 100.932 21.0715 99.2287 19.1394 98.3403C18.5829 98.0852 17.9151 98.1836 17.5844 98.7461C17.2969 99.2348 17.4329 100.034 17.9924 100.292V100.289Z"
        fill="#333333" />
    <path
        d="M65.4213 60.107C62.605 58.8929 59.3497 58.939 56.5489 60.1624C55.9863 60.4083 55.8564 61.2229 56.1408 61.7085C56.4809 62.2834 57.1301 62.3602 57.6958 62.1143C59.6682 61.2536 62.2897 61.2014 64.2744 62.059C64.837 62.3018 65.4924 62.225 65.8294 61.6532C66.1107 61.1768 65.9871 60.353 65.4213 60.107Z"
        fill="#333333" />
    <path d="M12.5237 46.2563C12.6597 46.1512 12.8236 46.0399 12.5237 46.2563V46.2563Z" fill="white" />
    <path
        d="M15.6708 36.0904C15.5007 35.7615 15.3029 35.4387 15.071 35.1313C14.8515 34.8147 14.6135 34.5227 14.36 34.2522C10.0134 29.6075 1.48726 32.2757 1.09155 38.9922C1.14102 41.6818 4.47977 42.3181 5.74417 40.4892C5.94512 40.2002 6.09351 39.8467 6.17079 39.4348C6.17079 39.3979 6.17388 39.361 6.18007 39.3211C6.18007 39.3088 6.18006 39.2965 6.18315 39.2842C6.22643 38.8907 6.36246 38.5311 6.5634 38.2206C7.23115 37.1939 8.6223 36.696 9.84033 37.197C11.2964 37.7995 11.6705 39.6807 10.8605 40.9349C10.8234 40.9902 10.7863 41.0455 10.743 41.1009C10.5514 41.3191 10.335 41.5128 10.1093 41.6941C9.76922 41.9708 9.40752 42.2198 9.06128 42.4903C8.8016 42.6962 8.55119 42.9114 8.32861 43.1604C7.49392 44.0856 6.92819 45.1615 6.888 46.4218C6.84163 47.805 7.58666 49.0039 8.46154 50.006C10.5297 51.9979 13.4542 49.7477 12.7215 47.4546C12.7154 47.4331 12.7092 47.4085 12.6999 47.387C12.5979 47.1011 12.4433 46.8152 12.2207 46.5386C12.264 46.4894 12.3073 46.4464 12.3506 46.4033C12.3722 46.3818 12.3908 46.3634 12.4124 46.3419L12.4186 46.3357C12.5175 46.2773 12.6133 46.2189 12.7092 46.1574C12.9627 45.9945 13.2038 45.8162 13.4326 45.6256C13.4944 45.5765 13.5531 45.5242 13.6119 45.472C16.2365 43.1696 17.2721 39.2135 15.6677 36.0842L15.6708 36.0904ZM10.0536 41.7587C10.0227 41.7863 9.9949 41.8048 9.97635 41.8079C9.98872 41.8017 10.0196 41.7833 10.0536 41.7587ZM6.18934 39.3211C6.18316 39.358 6.17697 39.3948 6.17079 39.4317C6.17079 39.444 6.17079 39.4594 6.17079 39.4717C6.17697 39.4225 6.18315 39.3703 6.19242 39.3211H6.18934Z"
        fill="white" />
    <path
        d="M14.8238 53.7654C11.4294 52.8616 10.0228 57.6077 13.3151 58.6652C16.7095 59.5689 18.1161 54.8228 14.8238 53.7654Z"
        fill="white" />
    <path
        d="M13.6984 46.8492C17.4545 44.0796 18.9137 38.5066 16.0541 34.5597C13.4449 30.8833 8.60682 29.7982 4.59104 31.8424C2.68053 32.8137 1.21519 34.4767 0.463969 36.4686C-0.296524 38.4789 -0.302706 41.0364 1.83657 42.1922C3.92329 43.3203 6.54483 42.2537 7.18785 40.0405C7.22494 39.9605 7.24967 39.8714 7.26513 39.773C7.27441 39.7116 7.28059 39.6501 7.28987 39.5886C7.29605 39.5486 7.29914 39.5118 7.30223 39.4718C7.30223 39.4718 7.30223 39.4718 7.30532 39.4718C7.40116 38.0978 9.53116 37.5721 10.0536 38.9369C10.3473 39.7054 9.9825 40.3448 9.3704 40.8489C8.45533 41.6051 7.56191 42.2137 6.86325 43.1974C5.401 45.2569 5.45974 47.8328 6.92199 49.8739C7.5681 50.7745 8.33786 51.5676 9.46315 51.8197C10.3566 52.0195 11.3087 51.8627 12.094 51.3955C13.7015 50.4426 14.3476 48.4968 13.6984 46.8492ZM11.587 48.7335C11.3489 49.2314 10.8357 49.5972 10.4246 49.6403C9.70737 49.7202 9.20347 49.2069 8.76757 48.5644C8.16784 47.6791 7.85251 46.7293 8.14929 45.6719C8.41824 44.7067 9.08599 43.8982 9.86812 43.2865C10.777 42.5795 11.7044 41.9862 12.1496 40.8796C12.9132 38.9707 11.9765 36.7084 9.99178 36.0444C7.79068 35.3067 5.57412 36.8006 5.11349 38.9216C5.10731 38.94 5.10422 38.9615 5.10112 38.98C5.10112 38.9861 5.10112 38.9892 5.10112 38.9923C5.09185 39.0445 5.08258 39.0968 5.0733 39.1521C5.01766 39.4595 4.95274 39.6624 4.77343 39.9052C4.73015 39.9636 4.45811 40.2034 4.29117 40.2741C4.09332 40.3602 3.84909 40.3909 3.66979 40.3878C3.49048 40.3878 3.10715 40.2987 2.98658 40.2311C2.55687 39.9974 2.27247 39.6409 2.23846 39.1183C2.19209 38.4021 2.46104 37.4891 2.7269 36.8897C3.35137 35.4819 4.39319 34.4675 5.74415 33.782C6.95599 33.1641 8.52953 32.909 9.80939 33.0934C11.556 33.3455 13.0616 34.2308 14.0972 35.6878C16.3323 38.774 15.2132 43.0806 12.162 45.1554C12.094 45.1831 12.0259 45.2231 11.9579 45.2723C11.8961 45.3153 11.8343 45.3614 11.7725 45.4044C11.6952 45.4598 11.6271 45.5182 11.5715 45.5827C11.522 45.6319 11.4726 45.6811 11.4262 45.7333C11.1109 46.0592 10.9439 46.7047 11.25 47.1012C11.4695 47.3902 11.6704 47.6883 11.7168 48.0541C11.7384 48.2293 11.6642 48.5798 11.5962 48.7212L11.587 48.7335Z"
        fill="#333333" />
    <path
        d="M15.4111 52.7849C15.3276 52.7388 15.2318 52.7019 15.1267 52.6773C15.0247 52.6404 14.9258 52.622 14.833 52.6158C13.3337 52.3484 11.8467 52.8402 10.9594 54.1374C10.1649 55.3024 10.0846 56.9377 10.8389 58.1427C11.7199 59.5505 13.5779 60.2299 15.1731 59.7719C16.6477 59.3477 17.6462 58.0259 17.8039 56.532C17.9863 54.8167 16.9321 53.4242 15.4111 52.7879V52.7849ZM15.4822 56.6488C15.3895 56.993 15.1453 57.3066 14.8237 57.4818C14.6723 57.5648 14.4559 57.6293 14.3971 57.6386C14.0942 57.6754 13.8747 57.657 13.6181 57.5771C13.1482 57.4326 12.9009 57.2021 12.7123 56.8486C12.737 56.8793 12.6257 56.6057 12.6134 56.5658C12.5979 56.5135 12.5917 56.4951 12.5855 56.492C12.5855 56.4766 12.5855 56.4428 12.5855 56.3844C12.5825 56.283 12.5855 56.1785 12.5886 56.077C12.5948 56.0893 12.6474 55.8157 12.6566 55.7788C12.6597 55.7635 12.7247 55.6067 12.7308 55.5883C12.7772 55.4961 12.8298 55.4069 12.8885 55.3239C12.8978 55.3239 13.0369 55.1579 13.0616 55.1333C13.1358 55.0626 13.1451 55.0473 13.1451 55.0442C13.1451 55.0442 13.1544 55.0442 13.2193 55.0042C13.4913 54.8352 13.479 54.8382 13.8005 54.786C13.6552 54.8106 14.0725 54.7829 14.1282 54.786C14.2704 54.7952 14.3415 54.8106 14.5208 54.8567C14.7588 54.9397 15.0278 55.1087 15.1514 55.2163C15.17 55.2348 15.2782 55.3577 15.3029 55.3792C15.3555 55.4684 15.4606 55.6528 15.442 55.5944C15.6244 56.0278 15.5966 56.2338 15.4822 56.6518V56.6488Z"
        fill="#333333" />
    <path
        d="M114.832 136.835C114.556 130.343 114.288 123.851 113.811 117.368C113.586 114.309 113.323 111.248 112.93 108.204C112.575 105.447 112.241 102.653 111.514 99.9633C110.97 97.9499 110.145 96.0287 108.819 94.4026C107.554 92.8533 105.866 91.6883 104.132 90.717C100.614 88.7466 96.79 87.2957 93.0864 85.7188C88.0134 83.5578 82.8816 81.4645 77.9384 79.0177C76.6338 78.3722 75.4807 80.321 76.7914 80.9696C81.0762 83.0875 85.5093 84.9257 89.9022 86.8039C93.6089 88.3869 97.3866 89.8655 101.007 91.6391C102.905 92.5705 104.815 93.6003 106.25 94.9651C107.489 96.1424 108.346 97.5964 108.899 99.1856C109.746 101.617 110.092 104.19 110.454 106.729C110.859 109.603 111.153 112.489 111.388 115.382C111.966 122.523 112.256 129.682 112.559 136.838C112.621 138.286 114.893 138.295 114.832 136.838V136.835Z"
        fill="#333333" />
    <path
        d="M10.5237 131.517C10.5237 125.996 10.7648 120.463 11.1481 114.955C11.3213 112.446 11.5377 109.784 11.8623 107.381C12.1992 104.875 12.5362 102.339 13.272 99.914C13.5595 98.9642 13.7975 98.3217 14.2365 97.4979C14.4343 97.126 14.6507 96.7633 14.8919 96.4159C15.1608 96.0255 15.2505 95.9118 15.6215 95.506C16.9137 94.0951 18.4254 93.1791 20.1782 92.2539C23.6128 90.4433 27.2545 88.9986 30.8097 87.4463C35.62 85.3406 40.4673 83.2811 45.1818 80.9634C46.4925 80.3179 45.3425 78.369 44.0349 79.0115C39.7501 81.1171 35.351 83.0045 30.9766 84.9195C27.3535 86.5087 23.6654 87.9996 20.1164 89.7517C18.1997 90.6985 16.3016 91.759 14.7157 93.2098C13.2967 94.507 12.2858 96.1177 11.5779 97.8883C10.6968 100.092 10.2918 102.468 9.94866 104.802C9.56841 107.396 9.26546 109.993 9.05215 112.606C8.53897 118.889 8.25456 125.209 8.25146 131.514C8.25146 132.968 10.5237 132.971 10.5237 131.514V131.517Z"
        fill="#333333" />
    <path
        d="M101.05 136.752L110.976 148.724C108.816 151.946 106.182 153.046 106.182 153.046C99.6556 156.83 84.7425 153.701 84.7425 153.701C84.7425 153.701 68.7319 151.193 52.573 147.775C52.573 147.775 55.955 142.5 52.573 132.264L90.6657 132.586C90.6657 132.586 97.9213 132.159 101.047 136.752H101.05Z"
        fill="white" />
    <path
        d="M66.3951 76.4784C65.817 75.2857 64.1662 75.2058 62.8399 75.3011C62.8399 75.3011 62.1753 75.3257 61.6157 75.5778C61.5075 74.3728 61.2448 73.1832 60.812 72.3348C60.0638 70.8747 58.7716 69.599 57.1579 69.2763C56.0264 69.0488 54.8609 69.3039 53.7357 69.556C51.9828 69.9464 50.1929 70.3552 48.6781 71.3142C46.3719 72.7682 44.8756 75.2273 43.7812 77.7172C41.3328 83.284 39.7191 88.0455 37.5056 93.3296C40.2601 96.9445 43.7812 98.7396 46.378 99.6188C48.607 99.0224 50.8143 97.4148 52.3074 95.4659C53.782 93.5447 54.5549 91.9586 55.3092 89.9052L55.8595 90.2618C57.4361 91.2854 59.7269 89.7976 60.5616 88.4144C60.948 87.8273 60.9913 87.2893 60.8181 86.8006C61.0315 86.5823 61.2108 86.3487 61.2108 86.3487C62.605 84.8978 62.3731 83.6253 61.5848 82.5893L62.6761 81.8301C64.3022 80.6866 64.7937 80.1394 65.548 79.374C66.3024 78.6086 66.865 77.4467 66.3951 76.4815V76.4784Z"
        fill="white" />
    <path
        d="M65.5758 74.4343C64.7102 74.1239 63.5942 74.0317 62.5772 74.17C62.2309 72.4209 61.4735 70.7733 60.1071 69.5837C58.9571 68.5816 57.5536 68.016 56.0109 68.0652C54.4467 68.1144 52.8237 68.557 51.3243 68.9812C49.8373 69.4024 48.4369 70.0171 47.2127 70.97C46.0349 71.8891 45.0765 73.0511 44.2789 74.3052C42.6034 76.9457 41.5399 80.0135 40.3961 82.906C39.0606 86.2812 37.7993 89.6809 36.3989 93.0284C36.1639 93.5909 36.6524 94.2703 37.1934 94.4178C37.8457 94.5961 38.3557 94.1934 38.5907 93.6278C40.8258 88.2761 42.6127 82.7001 45.1291 77.4683C46.2142 75.209 47.6795 73.0234 49.9888 71.8707C51.1821 71.2744 52.5207 70.9854 53.816 70.6934C55.0557 70.4137 56.4283 70.0479 57.637 70.6196C59.529 71.5141 60.274 73.506 60.4719 75.5133C60.4719 75.5471 60.4719 75.5809 60.4719 75.6178C59.9123 75.2797 59.3281 74.9754 58.7592 74.668C57.5381 74.0071 56.3015 73.3738 55.1021 72.6791C53.8377 71.9445 52.6907 73.8964 53.9551 74.6311C55.8626 75.7377 57.9462 76.6168 59.7732 77.8525C60.0669 78.0523 60.3761 78.2982 60.6357 78.5872C60.6821 78.6548 60.7347 78.7194 60.7965 78.7778C61.0654 79.1251 61.2447 79.5247 61.2386 79.9612C61.2355 80.1518 61.1953 80.3178 61.1396 80.4992C61.1396 80.5053 61.1396 80.5084 61.1365 80.5145C61.1304 80.5299 61.1211 80.5483 61.1118 80.5729C60.1967 79.8629 59.1858 79.285 58.1966 78.6856C56.8642 77.8771 55.5163 77.0963 54.1066 76.4262C53.5533 76.1619 52.8793 76.2756 52.5516 76.832C52.261 77.3269 52.4032 78.1138 52.9597 78.3782C55.0681 79.3833 57.13 80.5914 59.0776 81.8855C59.5939 82.2298 60.1782 82.6386 60.5894 83.1458C60.5925 83.1519 60.5955 83.1612 60.6017 83.1673C60.6419 83.238 60.6945 83.3026 60.7501 83.361C60.8429 83.4962 60.9201 83.6407 60.982 83.7913C61.1489 84.2032 61.0654 84.5844 60.8738 84.9379C60.2833 84.3753 59.5537 83.9235 58.886 83.5516C57.0342 82.5218 55.1546 81.5412 53.2472 80.619C51.9395 79.9858 50.7864 81.9316 52.1003 82.571C53.7171 83.3548 55.3092 84.1817 56.8858 85.0455C57.7978 85.5465 58.9818 86.0383 59.5846 86.8898C59.8258 87.2341 59.8443 87.3816 59.6217 87.7782C59.3497 88.2608 58.9169 88.6696 58.4532 88.9678C58.0173 89.2475 57.4546 89.5426 56.9167 89.478C56.8364 89.4688 56.756 89.4473 56.6818 89.4166C56.7529 89.2167 56.824 89.0139 56.892 88.811C57.3619 87.4308 55.167 86.8376 54.7002 88.2116C53.2379 92.512 50.8297 97.2058 46.072 98.5338C44.6654 98.9272 45.2651 101.107 46.6748 100.713C49.4231 99.9447 51.7262 98.1126 53.4172 95.8656C54.4405 94.507 55.2195 93.0438 55.8718 91.5099C56.0635 91.5837 56.2614 91.6421 56.4716 91.6759C57.4546 91.8327 58.4315 91.5683 59.2941 91.0949C60.6852 90.3295 62.1382 88.8294 62.0269 87.148C62.7812 86.275 63.4118 85.2883 63.3407 84.0833C63.316 83.6776 63.2202 83.2933 63.0718 82.9306C63.6746 82.5064 64.2713 82.0761 64.8401 81.6058C65.8912 80.7359 67.0226 79.6969 67.4925 78.3935C68.1016 76.706 67.2421 75.0338 65.5758 74.4374V74.4343ZM64.8741 78.4366C64.4537 78.9192 63.9899 79.3557 63.5046 79.7645C63.4706 79.0083 63.1954 78.2921 62.775 77.6619C62.8028 77.2562 62.8152 76.8443 62.809 76.4293C63.4273 76.334 64.0889 76.3586 64.6732 76.5154C65.7304 76.7982 65.48 77.7419 64.8741 78.4335V78.4366Z"
        fill="#333333" />
    <path
        d="M33.3073 137.591C36.272 136.177 39.586 135.43 42.8351 135.021C46.1986 134.597 49.6146 134.511 52.9967 134.76C53.6088 134.806 54.1312 134.21 54.1312 133.632C54.1312 132.983 53.6088 132.547 52.9967 132.504C49.4724 132.245 45.9234 132.356 42.4239 132.817C38.8873 133.284 35.3909 134.105 32.1604 135.642C31.607 135.906 31.4617 136.693 31.7523 137.188C32.0831 137.751 32.7508 137.858 33.3073 137.594V137.591Z"
        fill="#333333" />
    <path
        d="M52.7832 143.766C50.3194 145.93 47.5711 147.716 44.3745 148.598C42.4207 149.136 40.4082 149.342 38.3864 149.324C36.0153 149.302 33.536 148.328 31.2297 149.219C30.6578 149.441 30.2621 149.979 30.4352 150.609C30.5867 151.153 31.2576 151.62 31.8326 151.399C32.7353 151.051 33.672 151.061 34.6118 151.171C34.1048 152.007 33.5792 152.831 32.93 153.56C32.556 153.981 31.9717 154.58 31.4956 154.703C30.8217 154.875 29.8077 154.503 29.1523 154.248C28.33 153.926 27.4025 153.449 26.843 152.745C26.6853 152.548 26.6019 152.342 26.5524 152.1C26.5493 152.032 26.5462 151.961 26.5493 151.894C26.5555 151.722 26.5617 151.703 26.5679 151.675C26.809 150.311 27.7179 149.05 28.5185 147.934C29.5233 146.53 30.6547 145.223 31.7677 143.905C32.1603 143.437 32.2283 142.764 31.7677 142.306C31.3627 141.903 30.5558 141.836 30.1601 142.306C28.9421 143.751 27.7117 145.186 26.608 146.723C25.5848 148.147 24.5059 149.776 24.308 151.556C24.2369 152.189 24.3451 152.767 24.5739 153.286C24.509 153.255 24.444 153.225 24.3822 153.191C23.5197 152.724 22.617 151.841 22.5335 150.818C22.4501 149.776 22.9416 148.592 23.2817 147.627C23.6866 146.48 24.1627 145.365 24.6295 144.243C24.8583 143.692 24.3822 143.035 23.8567 142.89C23.2198 142.715 22.7252 143.108 22.4964 143.659C21.9585 144.947 21.4082 146.232 20.9723 147.559C20.5457 148.857 20.0789 150.378 20.4746 151.731C20.9012 153.188 21.9956 154.427 23.3404 155.127C24.577 155.77 25.8414 155.877 27.1923 155.813C27.3222 155.884 27.4551 155.951 27.588 156.013C28.6453 156.517 29.7829 156.898 30.9608 156.972C31.9686 157.036 32.8249 156.655 33.6009 156.046C35.1033 154.866 36.0709 153.142 37.0571 151.522C37.1653 151.534 37.2704 151.543 37.3786 151.549C39.1562 151.672 40.9709 151.537 42.7299 151.26C45.6018 150.809 48.3563 149.736 50.7893 148.153C52.066 147.323 53.2593 146.367 54.4001 145.365C55.4975 144.399 53.8869 142.807 52.7925 143.766H52.7832ZM26.5462 152.072C26.5462 152.072 26.5462 152.072 26.5462 152.069C26.5277 151.974 26.54 152.029 26.5462 152.072Z"
        fill="#333333" />
    <path
        d="M112.562 136.835C112.748 139.841 112.479 142.887 111.326 145.697C110.584 147.504 109.533 149.029 108.12 150.342C107.857 150.587 107.579 150.818 107.301 151.042C107.137 151.175 107.471 150.919 107.301 151.042C107.236 151.088 107.174 151.135 107.109 151.181C106.992 151.264 106.871 151.347 106.75 151.427C106.438 151.633 106.114 151.82 105.78 151.992C104.197 152.798 102.555 153.296 100.716 153.545C98.014 153.907 95.2193 153.837 92.4958 153.628C90.2947 153.458 88.4831 153.228 86.3624 152.859C83.8954 152.432 81.4253 152.029 78.9584 151.611C71.3473 150.32 63.7547 148.924 56.1899 147.378C55.0832 147.151 53.9796 146.923 52.8759 146.69C53.1016 147.243 53.3273 147.796 53.556 148.35C54.063 147.553 54.3753 146.576 54.6164 145.672C55.2532 143.29 55.3429 140.763 55.0708 138.323C54.8297 136.159 54.3474 134.041 53.6704 131.969C53.3056 132.445 52.9408 132.922 52.576 133.398C54.3969 133.414 56.2178 133.429 58.0386 133.444C62.1039 133.478 66.1691 133.512 70.2343 133.546C74.5098 133.583 78.7822 133.616 83.0576 133.653C85.5091 133.675 87.9576 133.693 90.4091 133.715C93.2965 133.739 96.2766 133.976 98.7127 135.894C99.2289 136.3 99.6957 136.786 100.07 137.324C100.419 137.825 101.065 138.052 101.625 137.729C102.123 137.44 102.382 136.687 102.033 136.183C99.501 132.547 94.8947 131.409 90.6687 131.459C88.7428 131.48 86.8106 131.425 84.8847 131.409C80.6958 131.376 76.5069 131.339 72.318 131.305C68.0394 131.268 63.7578 131.234 59.4792 131.197C57.2194 131.179 54.9379 131.068 52.6781 131.139C52.6441 131.139 52.6131 131.139 52.5791 131.139C51.8681 131.133 51.256 131.87 51.4848 132.568C52.6317 136.082 53.3335 140.087 52.743 143.622C52.5822 144.59 52.3287 145.531 51.9794 146.447C51.9485 146.524 51.8156 146.813 51.9732 146.465C51.9423 146.53 51.9176 146.598 51.8836 146.662C51.8341 146.763 51.7877 146.865 51.7352 146.966C51.6919 147.049 51.6486 147.132 51.5992 147.209C51.222 147.799 51.5713 148.718 52.2793 148.869C60.3572 150.575 68.4753 152.094 76.6151 153.495C79.4839 153.99 82.362 154.421 85.2247 154.946C89.9701 155.816 94.9257 156.354 99.7452 155.915C103.143 155.604 106.426 154.673 109.088 152.509C112.936 149.379 114.674 144.437 114.875 139.617C114.915 138.691 114.893 137.766 114.838 136.841C114.748 135.396 112.476 135.387 112.565 136.841L112.562 136.835Z"
        fill="#333333" />
    <path
        d="M8.25146 131.517C8.36894 134.664 9.22218 137.855 11.1389 140.403C12.8268 142.644 15.1856 144.341 17.9431 144.999C22.9513 146.192 27.9532 143.926 31.2827 140.25C34.6431 136.539 37.0946 132.018 39.3235 127.576C41.8183 122.602 43.9978 117.478 46.1154 112.336C46.9903 110.208 47.8497 108.078 48.7276 105.954C48.907 105.518 49.0894 105.084 49.2717 104.648C49.2965 104.589 49.4078 104.325 49.3676 104.42C49.3212 104.528 49.4232 104.288 49.4418 104.248C49.5314 104.039 49.6211 103.83 49.7138 103.618C49.9951 102.976 50.2796 102.336 50.5918 101.706C50.7062 101.472 50.8267 101.245 50.9504 101.017C51.3894 100.227 50.8237 99.3852 49.9704 99.3176C49.8931 99.3114 49.8158 99.2991 49.7386 99.293C49.5438 99.2776 50.0755 99.3483 49.7386 99.293C49.6025 99.2715 49.4634 99.2499 49.3274 99.2254C48.5545 99.087 47.794 98.8903 47.049 98.6536C44.7644 97.9282 42.5324 96.7324 40.659 95.0694C39.2617 93.8276 38.1024 92.3859 37.1657 90.7721C36.7792 90.1051 35.5489 89.9668 35.2026 90.7721C33.0541 95.7734 29.8792 100.295 26.7104 104.7C23.3408 109.385 19.8103 113.971 16.7807 118.886C15.2257 121.413 13.8222 124.035 12.7557 126.804C12.5362 127.373 12.9999 128.043 13.5502 128.194C14.1901 128.369 14.728 127.976 14.9475 127.404C16.8518 122.467 19.9278 118.001 22.976 113.703C26.3055 109.01 29.8421 104.454 32.952 99.6096C34.5349 97.1443 36.0064 94.5991 37.1626 91.9064H35.1995C38.0313 96.7693 42.9436 100.267 48.4958 101.352C48.9811 101.448 49.4758 101.531 49.9673 101.571C49.6396 101.005 49.3119 100.436 48.9873 99.8709C48.3103 101.091 47.7786 102.395 47.2345 103.676C46.4431 105.542 45.6857 107.42 44.919 109.299C42.9776 114.06 41.0022 118.809 38.8041 123.46C36.6494 128.025 34.3216 132.602 31.295 136.669C30.7509 137.4 30.1141 138.181 29.4124 138.931C29.097 139.269 28.7693 139.595 28.4324 139.908C28.2716 140.056 28.1078 140.204 27.9408 140.345C27.8666 140.41 27.7893 140.471 27.7152 140.533C27.6533 140.582 27.3875 140.785 27.5668 140.652C25.7212 142.029 23.4335 142.967 21.1242 143.053C18.7283 143.145 16.3634 142.358 14.5333 140.763C12.4589 138.949 11.2471 136.435 10.7555 133.761C10.6195 133.017 10.5546 132.267 10.5268 131.514C10.4742 130.066 8.202 130.057 8.25456 131.514L8.25146 131.517Z"
        fill="#333333" />
</svg>